SplineFontDB: 3.0
FontName: Rokkitt-100
FullName: Rokkitt Light
FamilyName: Rokkitt 100
Weight: Regular
Copyright: Copyright (c) 2011-2013 by Vernon Adams. All rights reserved.
Version: 
ItalicAngle: 0
UnderlinePosition: 0
UnderlineWidth: 0
Ascent: 1638
Descent: 410
UFOAscent: 1152
UFODescent: -410
LayerCount: 2
Layer: 0 0 "Back"  1
Layer: 1 0 "Fore"  0
OS2Version: 0
OS2_WeightWidthSlopeOnly: 0
OS2_UseTypoMetrics: 0
CreationTime: 1391820481
ModificationTime: 1391820959
PfmFamily: 0
TTFWeight: 300
TTFWidth: 5
LineGap: 0
VLineGap: 0
Panose: 2 0 5 3 5 0 0 2 0 3
OS2TypoAscent: 0
OS2TypoAOffset: 1
OS2TypoDescent: 0
OS2TypoDOffset: 1
OS2TypoLinegap: 0
OS2WinAscent: 0
OS2WinAOffset: 1
OS2WinDescent: 0
OS2WinDOffset: 1
HheadAscent: 0
HheadAOffset: 1
HheadDescent: 0
HheadDOffset: 1
OS2SubXSize: 1331
OS2SubYSize: 1228
OS2SubXOff: 0
OS2SubYOff: 153
OS2SupXSize: 1331
OS2SupYSize: 1228
OS2SupXOff: 0
OS2SupYOff: 716
OS2StrikeYSize: 0
OS2StrikeYPos: 501
OS2Vendor: 'NeWT'
Lookup: 6 0 0 "loclLocalizedFormsinLatinlookup"  {"loclLocalizedFormsinLatinlookup contextual 0"  "loclLocalizedFormsinLatinlookup contextual 1"  } ['locl' ('latn' <'dflt' 'CAT ' > ) ]
Lookup: 4 0 0 "Ligature Substitution lookup 1"  {"Ligature Substitution lookup 1 subtable"  } []
Lookup: 4 0 0 "Ligature Substitution lookup 2"  {"Ligature Substitution lookup 2 subtable"  } []
Lookup: 1 0 0 "sub_single_locllatn_0"  {"sub_single_locllatn_0 subtable"  } ['locl' ('latn' <'dflt' 'ROM ' > ) ]
Lookup: 1 0 0 "sub_single_locllatn_2"  {"sub_single_locllatn_2 subtable"  } ['locl' ('latn' <'dflt' 'MOL ' > ) ]
Lookup: 1 0 0 "sub_single_locllatn_4"  {"sub_single_locllatn_4 subtable"  } ['locl' ('latn' <'dflt' 'KAZ ' > ) ]
Lookup: 1 0 0 "sub_single_locllatn_6"  {"sub_single_locllatn_6 subtable"  } ['locl' ('latn' <'dflt' 'TAT ' > ) ]
Lookup: 1 0 0 "sub_single_locllatn_8"  {"sub_single_locllatn_8 subtable"  } ['locl' ('latn' <'dflt' 'TRK ' > ) ]

StartChar: A
Encoding: 65 65 1
Width: 1383
VWidth: 0
GlyphClass: 2
Flags: HW
PickledData: "(dp1
S'com.typemytype.robofont.layerData'
p2
(dp3
S'b'
(dp4
S'name'
p5
S'A'
sS'lib'
p6
(dp7
sS'unicodes'
p8
(tsS'width'
p9
I1383
sS'contours'
p10
(tsS'components'
p11
(tsS'anchors'
p12
(tsss."
AnchorPoint: "top" 692 1152 basechar 0
LayerCount: 2
Fore
SplineSet
92 0 m 1
 442 0 l 1
 442 34 l 1
 294 34 l 1
 462 488 l 1
 922 488 l 1
 1090 34 l 1
 941 34 l 1
 941 0 l 1
 1291 0 l 1
 1291 34 l 1
 1136 34 l 1
 732 1118 l 1
 883 1118 l 1
 883 1152 l 1
 505 1152 l 1
 505 1118 l 1
 652 1118 l 1
 247 34 l 1
 92 34 l 1
 92 0 l 1
472 520 m 1
 690 1111 l 1
 693 1111 l 1
 912 520 l 1
 472 520 l 1
EndSplineSet
Substitution2: "Single Substitution lookup 13 subtable" ordfeminine
EndChar

StartChar: AE
Encoding: 198 198 2
Width: 2243
VWidth: 0
GlyphClass: 2
Flags: W
PickledData: "(dp1
S'com.typemytype.robofont.layerData'
p2
(dp3
S'b'
(dp4
S'name'
p5
S'AE'
p6
sS'lib'
p7
(dp8
sS'unicodes'
p9
(tsS'width'
p10
I2243
sS'contours'
p11
(tsS'components'
p12
(tsS'anchors'
p13
(tsss."
AnchorPoint: "top" 1257 1152 basechar 0
LayerCount: 2
Fore
SplineSet
174 0 m 257
 555 0 l 257
 555 34 l 257
 407 34 l 257
 631 437 l 257
 1121 437 l 257
 1187 34 l 257
 1024 34 l 257
 1024 0 l 257
 2037 0 l 257
 1972 395 l 257
 1933 395 l 257
 1990 34 l 257
 1233 34 l 257
 1150 546 l 257
 1601 546 l 257
 1640 343 l 257
 1678 343 l 257
 1600 759 l 257
 1562 759 l 257
 1594 580 l 257
 1144 580 l 257
 1059 1118 l 257
 1757 1118 l 257
 1815 754 l 257
 1854 754 l 257
 1791 1152 l 257
 821 1152 l 257
 821 1118 l 257
 963 1118 l 257
 354 34 l 257
 174 34 l 257
 174 0 l 257
651 471 m 257
 1006 1118 l 257
 1014 1118 l 257
 1117 471 l 257
 651 471 l 257
EndSplineSet
EndChar

StartChar: B
Encoding: 66 66 19
Width: 1315
VWidth: 0
GlyphClass: 2
Flags: HW
PickledData: "(dp1
S'com.typemytype.robofont.layerData'
p2
(dp3
S'b'
(dp4
S'name'
p5
S'B'
sS'lib'
p6
(dp7
sS'unicodes'
p8
(tsS'width'
p9
I1354
sS'contours'
p10
((dp11
S'points'
p12
((dp13
S'segmentType'
p14
S'line'
p15
sS'x'
I353
sS'smooth'
p16
I0
sS'y'
I1095
s(dp17
g14
S'line'
p18
sS'x'
I740
sg16
I1
sS'y'
I1095
s(dp19
S'y'
I1095
sS'x'
I917
sg16
I0
s(dp20
S'y'
I983
sS'x'
I1004
sg16
I0
s(dp21
g14
S'curve'
p22
sS'x'
I1004
sg16
I1
sS'y'
I868
s(dp23
S'y'
I751
sS'x'
I1004
sg16
I0
s(dp24
S'y'
I634
sS'x'
I928
sg16
I0
s(dp25
g14
S'curve'
p26
sS'x'
I784
sg16
I1
sS'y'
I634
s(dp27
g14
S'line'
p28
sS'x'
I353
sg16
I0
sS'y'
I634
stp29
s(dp30
g12
((dp31
g14
S'line'
p32
sS'x'
I353
sg16
I0
sS'y'
I573
s(dp33
g14
S'line'
p34
sS'x'
I793
sg16
I1
sS'y'
I573
s(dp35
S'y'
I573
sS'x'
I979
sg16
I0
s(dp36
S'y'
I439
sS'x'
I1072
sg16
I0
s(dp37
g14
S'curve'
p38
sS'x'
I1072
sg16
I1
sS'y'
I320
s(dp39
S'y'
I187
sS'x'
I1072
sg16
I0
s(dp40
S'y'
I58
sS'x'
I985
sg16
I0
s(dp41
g14
S'curve'
p42
sS'x'
I807
sg16
I1
sS'y'
I58
s(dp43
g14
S'line'
p44
sS'x'
I353
sg16
I0
sS'y'
I58
stp45
s(dp46
g12
((dp47
g14
S'line'
p48
sS'x'
I807
sg16
I1
sS'y'
I0
s(dp49
S'y'
I0
sS'x'
I1031
sg16
I0
s(dp50
S'y'
I158
sS'x'
I1146
sg16
I0
s(dp51
g14
S'curve'
p52
sS'x'
I1146
sg16
I1
sS'y'
I316
s(dp53
S'y'
I439
sS'x'
I1146
sg16
I0
s(dp54
S'y'
I568
sS'x'
I1074
sg16
I0
s(dp55
g14
S'curve'
p56
sS'x'
I919
sg16
I0
sS'y'
I611
s(dp57
S'y'
I669
sS'x'
I1029
sg16
I0
s(dp58
S'y'
I769
sS'x'
I1079
sg16
I0
s(dp59
g14
S'curve'
p60
sS'x'
I1079
sg16
I1
sS'y'
I870
s(dp61
S'y'
I1012
sS'x'
I1079
sg16
I0
s(dp62
S'y'
I1154
sS'x'
I964
sg16
I0
s(dp63
g14
S'curve'
p64
sS'x'
I740
sg16
I1
sS'y'
I1154
s(dp65
g14
S'line'
p66
sS'x'
I122
sg16
I0
sS'y'
I1154
s(dp67
g14
S'line'
p68
sS'x'
I122
sg16
I0
sS'y'
I1095
s(dp69
g14
S'line'
p70
sS'x'
I278
sg16
I0
sS'y'
I1095
s(dp71
g14
S'line'
p72
sS'x'
I278
sg16
I0
sS'y'
I58
s(dp73
g14
S'line'
p74
sS'x'
I135
sg16
I0
sS'y'
I58
s(dp75
g14
S'line'
p76
sS'x'
I135
sg16
I0
sS'y'
I0
stp77
stp78
sS'components'
p79
(tsS'anchors'
p80
(tsss."
AnchorPoint: "top" 594 1152 basechar 0
LayerCount: 2
Fore
SplineSet
795 1152 m 2
 130 1152 l 1
 130 1118 l 1
 306 1118 l 1
 306 34 l 1
 130 34 l 1
 130 0 l 1
 897 0 l 2
 1074 0 1195 127 1195 314 c 0
 1195 442 1143 578 949 609 c 1
 1059 628 1123 732 1123 873 c 0
 1123 1060 1007 1152 795 1152 c 2
350 1118 m 1
 498.333333333 1118 646.666666667 1118 795 1118 c 0
 981 1118 1084 1043 1084 873 c 0
 1084 731 1022 623 864 623 c 2
 350 623 l 1
 350 1118 l 1
350 589 m 1
 864 589 l 2
 1065 589 1153 467 1153 314 c 0
 1153 146 1050 34 897 34 c 0
 714.666666667 34 532.333333333 34 350 34 c 1
 350 589 l 1
EndSplineSet
EndChar

StartChar: C
Encoding: 67 67 21
Width: 1411
VWidth: 0
GlyphClass: 2
Flags: HW
PickledData: "(dp1
S'com.typemytype.robofont.layerData'
p2
(dp3
S'b'
(dp4
S'name'
p5
S'C'
sS'lib'
p6
(dp7
sS'unicodes'
p8
(tsS'width'
p9
I1411
sS'contours'
p10
(tsS'components'
p11
(tsS'anchors'
p12
(tsss."
AnchorPoint: "bot" 721 0 basechar 0
AnchorPoint: "top" 722 1152 basechar 0
LayerCount: 2
Fore
SplineSet
715 -22 m 0
 938 -22 1117 53 1241 245 c 1
 1215 268 l 1
 1096 72 897 14 715 14 c 0
 453 14 166 193 166 580 c 0
 166 867 362 1136 715 1136 c 0
 978 1136 1104 1032 1211 820 c 1
 1243 836 l 1
 1243 1152 l 1
 1197 1152 l 1
 1197 904 l 1
 1108 1070 980 1172 715 1172 c 0
 361 1172 122 908 122 582 c 0
 122 154 449 -22 715 -22 c 0
EndSplineSet
EndChar

StartChar: D
Encoding: 68 68 28
Width: 1434
VWidth: 0
GlyphClass: 2
Flags: HW
PickledData: "(dp1
S'com.typemytype.robofont.layerData'
p2
(dp3
S'b'
(dp4
S'name'
p5
S'D'
sS'lib'
p6
(dp7
sS'unicodes'
p8
(tsS'width'
p9
I1434
sS'contours'
p10
(tsS'components'
p11
(tsS'anchors'
p12
(tsss."
AnchorPoint: "top" 656 1152 basechar 0
LayerCount: 2
Fore
SplineSet
826 1152 m 2
 130 1152 l 1
 130 1118 l 1
 306 1118 l 1
 306 34 l 1
 130 34 l 1
 130 0 l 1
 832 0 l 2
 1148 0 1306 321 1306 570 c 0
 1306 823 1156 1152 826 1152 c 2
350 1118 m 1
 509.333333333 1118 668.666666667 1118 828 1118 c 0
 1116 1118 1264 823 1264 570 c 0
 1264 319 1116 34 822 34 c 0
 664.666666667 34 507.333333333 34 350 34 c 1
 350 1118 l 1
EndSplineSet
EndChar

StartChar: Delta
Encoding: 916 916 33
Width: 1167
VWidth: 0
GlyphClass: 2
Flags: W
LayerCount: 2
Fore
SplineSet
84 0 m 257
 1083 0 l 257
 1083 26 l 257
 588 1152 l 257
 542 1152 l 257
 84 26 l 257
 84 0 l 257
129 34 m 257
 563 1117 l 257
 1040 34 l 257
 129 34 l 257
EndSplineSet
EndChar

StartChar: E
Encoding: 69 69 36
Width: 1227
VWidth: 0
GlyphClass: 2
Flags: HW
PickledData: "(dp1
S'com.typemytype.robofont.layerData'
p2
(dp3
S'b'
(dp4
S'name'
p5
S'E'
sS'lib'
p6
(dp7
sS'unicodes'
p8
(tsS'width'
p9
I1227
sS'contours'
p10
(tsS'components'
p11
(tsS'anchors'
p12
(tsss."
AnchorPoint: "bot" 649 0 basechar 0
AnchorPoint: "top" 676 1152 basechar 0
LayerCount: 2
Fore
SplineSet
782 380 m 1
 821 380 l 1
 821 780 l 1
 781 780 l 1
 781 603 l 1
 350 603 l 1
 350 1118 l 1
 573 1118 796 1118 1019 1118 c 1
 1019 826 l 1
 1059 826 l 1
 1059 1152 l 1
 130 1152 l 1
 130 1118 l 1
 306 1118 l 1
 306 34 l 1
 130 34 l 1
 130 0 l 1
 1087 0 l 1
 1087 332 l 1
 1047 332 l 1
 1047 34 l 1
 814.666666667 34 582.333333333 34 350 34 c 1
 350 569 l 1
 782 569 l 1
 782 380 l 1
EndSplineSet
EndChar

StartChar: Eng
Encoding: 330 330 48
Width: 1444
VWidth: 0
GlyphClass: 2
Flags: W
LayerCount: 2
Fore
SplineSet
867 -374 m 257
 1100 -374 1238 -261 1238 -17 c 258
 1238 252 l 257
 1194 252 l 257
 1194 -31 l 258
 1194 -220 1091 -340 870 -340 c 257
 867 -374 l 257
EndSplineSet
Refer: 93 78 N 1 0 0 1 0 0 2
EndChar

StartChar: Euro
Encoding: 8364 8364 52
Width: 1408
VWidth: 0
GlyphClass: 2
Flags: W
LayerCount: 2
Fore
SplineSet
-25 446 m 257
 602 446 l 257
 628 479 l 257
 1 479 l 257
 -25 446 l 257
-25 636 m 257
 602 636 l 257
 628 669 l 257
 1 669 l 257
 -25 636 l 257
EndSplineSet
Refer: 21 67 N 1 0 0 1 0 0 2
EndChar

StartChar: F
Encoding: 70 70 53
Width: 1177
VWidth: 0
GlyphClass: 2
Flags: HW
PickledData: "(dp1
S'com.typemytype.robofont.layerData'
p2
(dp3
S'b'
(dp4
S'name'
p5
S'F'
sS'lib'
p6
(dp7
sS'unicodes'
p8
(tsS'width'
p9
I1177
sS'contours'
p10
((dp11
S'points'
p12
((dp13
S'segmentType'
p14
S'line'
p15
sS'x'
I990
sS'smooth'
p16
I0
sS'y'
I1086
s(dp17
g14
S'line'
p18
sS'x'
I990
sg16
I0
sS'y'
I802
s(dp19
g14
S'line'
p20
sS'x'
I1062
sg16
I0
sS'y'
I802
s(dp21
g14
S'line'
p22
sS'x'
I1062
sg16
I0
sS'y'
I1152
s(dp23
g14
S'line'
p24
sS'x'
I122
sg16
I0
sS'y'
I1152
s(dp25
g14
S'line'
p26
sS'x'
I122
sg16
I0
sS'y'
I1086
s(dp27
g14
S'line'
p28
sS'x'
I286
sg16
I0
sS'y'
I1086
s(dp29
g14
S'line'
p30
sS'x'
I286
sg16
I0
sS'y'
I1039
s(dp31
g14
S'line'
p32
sS'x'
I363
sg16
I0
sS'y'
I1039
s(dp33
g14
S'line'
p34
sS'x'
I363
sg16
I0
sS'y'
I1086
stp35
s(dp36
g12
((dp37
g14
S'line'
p38
sS'x'
I286
sg16
I0
sS'y'
I1039
s(dp39
g14
S'line'
p40
sS'x'
I286
sg16
I0
sS'y'
I677
s(dp41
g14
S'line'
p42
sS'x'
I363
sg16
I0
sS'y'
I677
s(dp43
g14
S'line'
p44
sS'x'
I363
sg16
I0
sS'y'
I1039
stp45
s(dp46
g12
((dp47
g14
S'line'
p48
sS'x'
I286
sg16
I0
sS'y'
I677
s(dp49
g14
S'line'
p50
sS'x'
I286
sg16
I0
sS'y'
I65
s(dp51
g14
S'line'
p52
sS'x'
I122
sg16
I0
sS'y'
I65
s(dp53
g14
S'line'
p54
sS'x'
I122
sg16
I0
sS'y'
I0
s(dp55
g14
S'line'
p56
sS'x'
I552
sg16
I0
sS'y'
I0
s(dp57
g14
S'line'
p58
sS'x'
I552
sg16
I0
sS'y'
I65
s(dp59
g14
S'line'
p60
sS'x'
I363
sg16
I0
sS'y'
I65
s(dp61
g14
S'line'
p62
sS'x'
I363
sg16
I0
sS'y'
I539
s(dp63
g14
S'line'
p64
sS'x'
I824
sg16
I0
sS'y'
I539
s(dp65
g14
S'line'
p66
sS'x'
I824
sg16
I0
sS'y'
I378
s(dp67
g14
S'line'
p68
sS'x'
I886
sg16
I0
sS'y'
I378
s(dp69
g14
S'line'
p70
sS'x'
I886
sg16
I0
sS'y'
I764
s(dp71
g14
S'line'
p72
sS'x'
I824
sg16
I0
sS'y'
I764
s(dp73
g14
S'line'
p74
sS'x'
I824
sg16
I0
sS'y'
I601
s(dp75
g14
S'line'
p76
sS'x'
I363
sg16
I0
sS'y'
I601
s(dp77
g14
S'line'
p78
sS'x'
I363
sg16
I0
sS'y'
I677
stp79
stp80
sS'components'
p81
(tsS'anchors'
p82
(tsss."
AnchorPoint: "top" 649 1152 basechar 0
LayerCount: 2
Fore
SplineSet
851 390 m 1
 887 390 l 1
 887 770 l 1
 851 770 l 1
 851 609 l 1
 350 609 l 1
 350 1118 l 1
 579.666666667 1118 809.333333333 1118 1039 1118 c 1
 1039 796 l 1
 1075 796 l 1
 1075 1152 l 1
 130 1152 l 1
 130 1118 l 1
 306 1118 l 1
 306 34 l 1
 130 34 l 1
 130 0 l 1
 526 0 l 1
 526 34 l 1
 350 34 l 1
 350 575 l 1
 851 575 l 1
 851 390 l 1
EndSplineSet
EndChar

StartChar: G
Encoding: 71 71 55
Width: 1394
VWidth: 0
GlyphClass: 2
Flags: HW
PickledData: "(dp1
S'com.typemytype.robofont.layerData'
p2
(dp3
S'b'
(dp4
S'name'
p5
S'G'
sS'lib'
p6
(dp7
sS'unicodes'
p8
(tsS'width'
p9
I1394
sS'contours'
p10
(tsS'components'
p11
(tsS'anchors'
p12
(tsss."
AnchorPoint: "bot" 711 0 basechar 0
AnchorPoint: "top" 707 1152 basechar 0
LayerCount: 2
Fore
SplineSet
707 -22 m 0
 897 -22 1245 59 1245 543 c 1
 948 543 l 1
 948 509 l 1
 1203 509 l 1
 1198 110 884 14 707 14 c 0
 372 14 161 233 161 582 c 0
 161 924 372 1138 707 1138 c 0
 913 1138 1091 1034 1169 851 c 1
 1201 851 l 1
 1201 1152 l 1
 1157 1152 l 1
 1157 945 l 1
 1066 1093 892 1174 707 1174 c 0
 346 1174 119 946 119 582 c 0
 119 211 346 -22 707 -22 c 0
EndSplineSet
EndChar

StartChar: H
Encoding: 72 72 62
Width: 1506
VWidth: 0
GlyphClass: 2
Flags: HW
PickledData: "(dp1
S'com.typemytype.robofont.layerData'
p2
(dp3
S'b'
(dp4
S'name'
p5
S'H'
sS'lib'
p6
(dp7
sS'unicodes'
p8
(tsS'width'
p9
I1506
sS'contours'
p10
(tsS'components'
p11
(tsS'anchors'
p12
(tsss."
AnchorPoint: "bot" 752 0 basechar 0
AnchorPoint: "top" 750 1152 basechar 0
LayerCount: 2
Fore
SplineSet
130 0 m 1
 526 0 l 1
 526 34 l 1
 350 34 l 1
 350 564 l 1
 1155 564 l 1
 1155 34 l 1
 979 34 l 1
 979 0 l 1
 1375 0 l 1
 1375 34 l 1
 1199 34 l 1
 1199 1118 l 1
 1375 1118 l 1
 1375 1152 l 1
 979 1152 l 1
 979 1118 l 1
 1155 1118 l 1
 1155 598 l 1
 350 598 l 1
 350 1118 l 1
 526 1118 l 1
 526 1152 l 1
 130 1152 l 1
 130 1118 l 1
 306 1118 l 1
 306 34 l 1
 130 34 l 1
 130 0 l 1
EndSplineSet
EndChar

StartChar: Hbar
Encoding: 294 294 63
Width: 1471
VWidth: 0
GlyphClass: 2
Flags: W
PickledData: "(dp1
S'com.typemytype.robofont.layerData'
p2
(dp3
S'b'
(dp4
S'name'
p5
S'Hbar'
p6
sS'lib'
p7
(dp8
sS'unicodes'
p9
(tsS'width'
p10
I1471
sS'contours'
p11
(tsS'components'
p12
(tsS'anchors'
p13
(tsss."
LayerCount: 2
Fore
SplineSet
151 839 m 257
 1316 839 l 257
 1316 877 l 257
 151 877 l 257
 151 839 l 257
EndSplineSet
Refer: 62 72 N 1 0 0 1 0 0 2
EndChar

StartChar: I
Encoding: 73 73 66
Width: 626
VWidth: 0
GlyphClass: 2
Flags: HW
PickledData: "(dp1
S'com.typemytype.robofont.layerData'
p2
(dp3
S'b'
(dp4
S'name'
p5
S'I'
sS'lib'
p6
(dp7
sS'unicodes'
p8
(tsS'width'
p9
I626
sS'contours'
p10
(tsS'components'
p11
(tsS'anchors'
p12
(tsss."
AnchorPoint: "top" 316 1152 basechar 0
LayerCount: 2
Fore
SplineSet
114 0 m 1
 510 0 l 1
 510 34 l 1
 334 34 l 1
 334 1118 l 1
 510 1118 l 1
 510 1152 l 1
 114 1152 l 1
 114 1118 l 1
 290 1118 l 1
 290 34 l 1
 114 34 l 1
 114 0 l 1
EndSplineSet
EndChar

StartChar: J
Encoding: 74 74 80
Width: 551
VWidth: 0
GlyphClass: 2
Flags: HW
PickledData: "(dp1
S'com.typemytype.robofont.layerData'
p2
(dp3
S'b'
(dp4
S'name'
p5
S'J'
sS'lib'
p6
(dp7
sS'unicodes'
p8
(tsS'width'
p9
I551
sS'contours'
p10
(tsS'components'
p11
(tsS'anchors'
p12
(tsss."
AnchorPoint: "top" 346 1152 basechar 0
LayerCount: 2
Fore
SplineSet
107 -40 m 1
 212 -40 l 1
 313 -39 362 -20 362 161 c 2
 362 1118 l 1
 483 1118 l 1
 483 1152 l 1
 189 1152 l 1
 189 1118 l 1
 318 1118 l 1
 318 173 l 2
 318 42 307 -6 229 -6 c 2
 107 -6 l 1
 107 -40 l 1
EndSplineSet
EndChar

StartChar: K
Encoding: 75 75 82
Width: 1304
VWidth: 0
GlyphClass: 2
Flags: HW
PickledData: "(dp1
S'com.typemytype.robofont.guides'
p2
((dp3
S'y'
I593
sS'x'
I467
sS'magnetic'
p4
I5
sS'angle'
p5
I0
sS'isGlobal'
p6
I0
stp7
sS'com.typemytype.robofont.layerData'
p8
(dp9
S'b'
(dp10
S'name'
p11
S'K'
sS'lib'
p12
(dp13
sS'unicodes'
p14
(tsS'width'
p15
I1304
sS'contours'
p16
(tsS'components'
p17
(tsS'anchors'
p18
(tsss."
AnchorPoint: "bot" 685 0 basechar 0
AnchorPoint: "top" 663 1152 basechar 0
LayerCount: 2
Fore
SplineSet
840 0 m 1
 1215 0 l 1
 1215 34 l 1
 1052 34 l 1
 408 588 l 1
 1004 1118 l 1
 1179 1118 l 1
 1179 1152 l 1
 794 1152 l 1
 794 1118 l 1
 954 1118 l 1
 350 589.749174917 l 1
 350 1118 l 1
 526 1118 l 1
 526 1152 l 1
 130 1152 l 1
 130 1118 l 1
 306 1118 l 1
 306 34 l 1
 130 34 l 1
 130 0 l 1
 526 0 l 1
 526 34 l 1
 350 34 l 1
 350 586.292758089 l 1
 997 34 l 1
 840 34 l 1
 840 0 l 1
EndSplineSet
EndChar

StartChar: L
Encoding: 76 76 85
Width: 1055
VWidth: 0
GlyphClass: 2
Flags: HW
PickledData: "(dp1
S'com.typemytype.robofont.layerData'
p2
(dp3
S'b'
(dp4
S'name'
p5
S'L'
sS'lib'
p6
(dp7
sS'unicodes'
p8
(tsS'width'
p9
I1055
sS'contours'
p10
(tsS'components'
p11
(tsS'anchors'
p12
(tsss."
AnchorPoint: "caron.alt" 510 804 basechar 0
AnchorPoint: "bot" 652 0 basechar 0
AnchorPoint: "top" 712 1152 basechar 0
LayerCount: 2
Fore
SplineSet
350 34 m 1
 350 1118 l 1
 526 1118 l 1
 526 1152 l 1
 130 1152 l 1
 130 1118 l 1
 306 1118 l 1
 306 34 l 1
 130 34 l 1
 130 0 l 1
 1002 0 l 1
 1002 358 l 1
 966 358 l 1
 966 34 l 1
 760.666666667 34 555.333333333 34 350 34 c 1
EndSplineSet
EndChar

StartChar: Lslash
Encoding: 321 321 90
Width: 1243
VWidth: 0
GlyphClass: 2
Flags: W
PickledData: "(dp1
S'com.typemytype.robofont.layerData'
p2
(dp3
S'b'
(dp4
S'name'
p5
S'Lslash'
p6
sS'lib'
p7
(dp8
sS'unicodes'
p9
(tsS'width'
p10
I1243
sS'contours'
p11
(tsS'components'
p12
(tsS'anchors'
p13
(tsss."
LayerCount: 2
Fore
SplineSet
124 434 m 257
 524 691 l 257
 524 742 l 257
 124 481 l 257
 124 434 l 257
EndSplineSet
Refer: 85 76 N 1 0 0 1 0 0 2
EndChar

StartChar: M
Encoding: 77 77 91
Width: 1606
VWidth: 0
GlyphClass: 2
Flags: HW
PickledData: "(dp1
S'com.typemytype.robofont.layerData'
p2
(dp3
S'b'
(dp4
S'name'
p5
S'M'
sS'lib'
p6
(dp7
sS'unicodes'
p8
(tsS'width'
p9
I1606
sS'contours'
p10
(tsS'components'
p11
(tsS'anchors'
p12
(tsss."
AnchorPoint: "top" 795 1152 basechar 0
LayerCount: 2
Fore
SplineSet
146 0 m 1
 499 0 l 1
 499 34 l 1
 343 34 l 1
 343 1058 l 1
 818 105 l 1
 822 105 l 1
 1270 1058 l 1
 1270 34 l 1
 1112 34 l 1
 1112 0 l 1
 1467 0 l 1
 1467 34 l 1
 1314 34 l 1
 1314 1118 l 1
 1467 1118 l 1
 1467 1152 l 1
 1267 1152 l 1
 819 190 l 1
 342 1152 l 1
 146 1152 l 1
 146 1118 l 1
 299 1118 l 1
 299 34 l 1
 146 34 l 1
 146 0 l 1
EndSplineSet
EndChar

StartChar: N
Encoding: 78 78 93
Width: 1444
VWidth: 0
GlyphClass: 2
Flags: HW
PickledData: "(dp1
S'com.typemytype.robofont.layerData'
p2
(dp3
S'b'
(dp4
S'name'
p5
S'N'
sS'lib'
p6
(dp7
sS'unicodes'
p8
(tsS'width'
p9
I1444
sS'contours'
p10
(tsS'components'
p11
(tsS'anchors'
p12
(tsss."
AnchorPoint: "bot" 711 0 basechar 0
AnchorPoint: "top" 721 1152 basechar 0
LayerCount: 2
Fore
SplineSet
140 0 m 1
 477 0 l 1
 477 34 l 1
 328 34 l 1
 328 1073 l 1
 1194 0 l 1
 1238 0 l 1
 1238 1118 l 1
 1361 1118 l 1
 1361 1152 l 1
 1043 1152 l 1
 1043 1118 l 1
 1194 1118 l 1
 1194 63 l 1
 318 1152 l 1
 140 1152 l 1
 140 1118 l 1
 284 1118 l 1
 284 34 l 1
 140 34 l 1
 140 0 l 1
EndSplineSet
EndChar

StartChar: O
Encoding: 79 79 100
Width: 1456
VWidth: 0
GlyphClass: 2
Flags: HW
PickledData: "(dp1
S'com.typemytype.robofont.layerData'
p2
(dp3
S'b'
(dp4
S'name'
p5
S'O'
sS'lib'
p6
(dp7
sS'unicodes'
p8
(tsS'width'
p9
I1456
sS'contours'
p10
(tsS'components'
p11
(tsS'anchors'
p12
(tsss."
AnchorPoint: "top" 727 1152 basechar 0
LayerCount: 2
Fore
SplineSet
728 14 m 0
 337 14 170 300 170 572 c 0
 170 832 341 1138 728 1138 c 0
 1110 1138 1286 832 1286 572 c 0
 1286 310 1110 14 728 14 c 0
728 -22.002382346 m 0
 1147 -22.002382346 1328 289 1328 572 c 0
 1328 851 1144 1174 728 1174 c 0
 313 1174 128 852 128 572 c 0
 128 291.446423512 308.425348966 -22.002382346 726.00481129 -22.002382346 c 0
 726.669273645 -22.002382346 727.334336472 -22.002382346 728 -22.002382346 c 0
EndSplineSet
Substitution2: "Single Substitution lookup 14 subtable" ordmasculine
EndChar

StartChar: OE
Encoding: 338 338 101
Width: 1953
VWidth: 0
GlyphClass: 2
Flags: W
PickledData: "(dp1
S'com.typemytype.robofont.layerData'
p2
(dp3
S'b'
(dp4
S'name'
p5
S'OE'
p6
sS'lib'
p7
(dp8
sS'unicodes'
p9
(tsS'width'
p10
I1953
sS'contours'
p11
(tsS'components'
p12
(tsS'anchors'
p13
(tsss."
LayerCount: 2
Fore
SplineSet
783 0 m 258
 1813 0 l 257
 1813 395 l 257
 1773 395 l 257
 1773 40 l 257
 1041 40 l 257
 1041 542 l 257
 1530 542 l 257
 1530 343 l 257
 1570 343 l 257
 1570 759 l 257
 1530 759 l 257
 1530 580 l 257
 1042 580 l 257
 1042 1112 l 257
 1743 1112 l 257
 1743 782 l 257
 1783 782 l 257
 1783 1152 l 257
 783 1152 l 258
 375 1152 129 935 128 570 c 256
 129 212 375 0 783 0 c 258
783 40 m 258
 403 40 170 240 170 570 c 256
 170 913 408 1112 783 1112 c 258
 998 1112 l 257
 998 40 l 257
 783 40 l 258
EndSplineSet
EndChar

StartChar: Omega
Encoding: 937 937 113
Width: 1426
VWidth: 0
GlyphClass: 2
Flags: W
LayerCount: 2
Fore
SplineSet
191 0 m 257
 548 0 l 257
 548 38 l 257
 324 177 213 420 213 636 c 256
 213 901 380 1139 713 1139 c 256
 1046 1139 1213 901 1213 636 c 256
 1213 420 1102 177 878 38 c 257
 878 0 l 257
 1235 0 l 257
 1235 34 l 257
 915 34 l 257
 1143 168 1254 409 1254 629 c 256
 1254 913 1070 1174 713 1174 c 256
 356 1174 172 913 172 629 c 256
 172 409 283 168 511 34 c 257
 191 34 l 257
 191 0 l 257
EndSplineSet
EndChar

StartChar: Oslash
Encoding: 216 216 115
Width: 1598
VWidth: 0
GlyphClass: 2
Flags: W
PickledData: "(dp1
S'com.typemytype.robofont.layerData'
p2
(dp3
S'b'
(dp4
S'name'
p5
S'Oslash'
p6
sS'lib'
p7
(dp8
sS'unicodes'
p9
(tsS'width'
p10
I1598
sS'contours'
p11
(tsS'components'
p12
(tsS'anchors'
p13
(tsss."
LayerCount: 2
Fore
SplineSet
266 -71 m 257
 1239 1195 l 257
 1215 1213 l 257
 239 -51 l 257
 266 -71 l 257
EndSplineSet
Refer: 100 79 N 1 0 0 1 8 -10 2
EndChar

StartChar: P
Encoding: 80 80 118
Width: 1226
VWidth: 0
GlyphClass: 2
Flags: HW
PickledData: "(dp1
S'com.typemytype.robofont.layerData'
p2
(dp3
S'b'
(dp4
S'name'
p5
S'P'
sS'lib'
p6
(dp7
sS'unicodes'
p8
(tsS'width'
p9
I1226
sS'contours'
p10
((dp11
S'points'
p12
((dp13
S'segmentType'
p14
S'line'
p15
sS'x'
I353
sS'smooth'
p16
I0
sS'y'
I1095
s(dp17
g14
S'line'
p18
sS'x'
I759
sg16
I1
sS'y'
I1095
s(dp19
S'y'
I1095
sS'x'
I936
sg16
I0
s(dp20
S'y'
I960
sS'x'
I1024
sg16
I0
s(dp21
g14
S'curve'
p22
sS'x'
I1024
sg16
I1
sS'y'
I823
s(dp23
S'y'
I683
sS'x'
I1024
sg16
I0
s(dp24
S'y'
I544
sS'x'
I934
sg16
I0
s(dp25
g14
S'curve'
p26
sS'x'
I759
sg16
I1
sS'y'
I544
s(dp27
g14
S'line'
p28
sS'x'
I353
sg16
I0
sS'y'
I544
stp29
s(dp30
g12
((dp31
g14
S'line'
p32
sS'x'
I135
sg16
I0
sS'y'
I0
s(dp33
g14
S'line'
p34
sS'x'
I512
sg16
I0
sS'y'
I0
s(dp35
g14
S'line'
p36
sS'x'
I512
sg16
I0
sS'y'
I58
s(dp37
g14
S'line'
p38
sS'x'
I353
sg16
I0
sS'y'
I58
s(dp39
g14
S'line'
p40
sS'x'
I353
sg16
I0
sS'y'
I483
s(dp41
g14
S'line'
p42
sS'x'
I759
sg16
I1
sS'y'
I483
s(dp43
S'y'
I483
sS'x'
I984
sg16
I0
s(dp44
S'y'
I656
sS'x'
I1098
sg16
I0
s(dp45
g14
S'curve'
p46
sS'x'
I1098
sg16
I1
sS'y'
I826
s(dp47
S'y'
I989
sS'x'
I1098
sg16
I0
s(dp48
S'y'
I1154
sS'x'
I984
sg16
I0
s(dp49
g14
S'curve'
p50
sS'x'
I759
sg16
I1
sS'y'
I1154
s(dp51
g14
S'line'
p52
sS'x'
I122
sg16
I0
sS'y'
I1154
s(dp53
g14
S'line'
p54
sS'x'
I122
sg16
I0
sS'y'
I1095
s(dp55
g14
S'line'
p56
sS'x'
I278
sg16
I0
sS'y'
I1095
s(dp57
g14
S'line'
p58
sS'x'
I278
sg16
I0
sS'y'
I58
s(dp59
g14
S'line'
p60
sS'x'
I135
sg16
I0
sS'y'
I58
stp61
stp62
sS'components'
p63
(tsS'anchors'
p64
(tsss."
AnchorPoint: "top" 680 1152 basechar 0
LayerCount: 2
Fore
SplineSet
448 500 m 1
 766 500 l 2
 960 500 1075 631 1075 852 c 0
 1075 1041 956 1152 754 1152 c 2
 130 1152 l 1
 130 1118 l 1
 306 1118 l 1
 306 34 l 1
 130 34 l 1
 130 0 l 1
 526 0 l 1
 526 34 l 1
 350 34 l 1
 350 1118 l 1
 484.333333333 1118 618.666666667 1118 753 1118 c 0
 928.062172301 1118 1031.00757963 1018.07732689 1031.00757963 847.988750298 c 0
 1031.00757963 650.810181832 933.155919247 534 767 534 c 2
 449 534 l 1
 448 500 l 1
EndSplineSet
EndChar

StartChar: Q
Encoding: 81 81 120
Width: 1438
VWidth: 0
GlyphClass: 2
Flags: HW
PickledData: "(dp1
S'com.typemytype.robofont.layerData'
p2
(dp3
S'b'
(dp4
S'name'
p5
S'Q'
sS'lib'
p6
(dp7
sS'unicodes'
p8
(tsS'width'
p9
I1438
sS'contours'
p10
(tsS'components'
p11
(tsS'anchors'
p12
(tsss."
LayerCount: 2
Fore
SplineSet
1154 -174 m 1
 1143 -146 l 1
 1099.33286236 -160.475294246 1062.99941974 -167.15126204 1030.74193203 -167.15126204 c 0
 935.3534692 -167.15126204 875.606836044 -108.773848092 767.263195046 -21.0668952345 c 1
 1158.33168573 -2.24319330875 1328 298.001919394 1328 572 c 0
 1328 851 1144 1174 728 1174 c 0
 313 1174 128 852 128 572 c 0
 128 293.32780834 306.013607518 -17.7999029234 717.635958369 -21.9601994202 c 1
 852.528883157 -127.338514252 918.957000805 -198.840628354 1027.89775277 -198.840628435 c 0
 1063.9392167 -198.840628435 1104.63377783 -191.014571718 1154 -174 c 1
728 14 m 0
 337 14 170 300 170 572 c 0
 170 832 341 1138 728 1138 c 0
 1110 1138 1286 832 1286 572 c 0
 1286 310 1110 14 728 14 c 0
EndSplineSet
EndChar

StartChar: R
Encoding: 82 82 121
Width: 1296
VWidth: 0
GlyphClass: 2
Flags: HW
PickledData: "(dp1
S'com.typemytype.robofont.layerData'
p2
(dp3
S'b'
(dp4
S'name'
p5
S'R'
sS'lib'
p6
(dp7
sS'unicodes'
p8
(tsS'width'
p9
I1296
sS'contours'
p10
((dp11
S'points'
p12
((dp13
S'segmentType'
p14
S'line'
p15
sS'x'
I135
sS'smooth'
p16
I0
sS'y'
I0
s(dp17
g14
S'line'
p18
sS'x'
I512
sg16
I0
sS'y'
I0
s(dp19
g14
S'line'
p20
sS'x'
I512
sg16
I0
sS'y'
I58
s(dp21
g14
S'line'
p22
sS'x'
I353
sg16
I0
sS'y'
I58
s(dp23
g14
S'line'
p24
sS'x'
I353
sg16
I0
sS'y'
I539
s(dp25
g14
S'line'
p26
sS'x'
I641
sg16
I0
sS'y'
I539
s(dp27
g14
S'line'
p28
sS'x'
I961
sg16
I0
sS'y'
I0
s(dp29
g14
S'line'
p30
sS'x'
I1178
sg16
I0
sS'y'
I0
s(dp31
g14
S'line'
p32
sS'x'
I1178
sg16
I0
sS'y'
I58
s(dp33
g14
S'line'
p34
sS'x'
I1015
sg16
I0
sS'y'
I58
s(dp35
g14
S'line'
p36
sS'x'
I721
sg16
I0
sS'y'
I539
s(dp37
S'y'
I539
sS'x'
I945
sg16
I0
s(dp38
S'y'
I696
sS'x'
I1059
sg16
I0
s(dp39
g14
S'curve'
p40
sS'x'
I1059
sg16
I1
sS'y'
I848
s(dp41
S'y'
I1000
sS'x'
I1059
sg16
I0
s(dp42
S'y'
I1154
sS'x'
I945
sg16
I0
s(dp43
g14
S'curve'
p44
sS'x'
I721
sg16
I1
sS'y'
I1154
s(dp45
g14
S'line'
p46
sS'x'
I122
sg16
I0
sS'y'
I1154
s(dp47
g14
S'line'
p48
sS'x'
I122
sg16
I0
sS'y'
I1095
s(dp49
g14
S'line'
p50
sS'x'
I278
sg16
I0
sS'y'
I1095
s(dp51
g14
S'line'
p52
sS'x'
I278
sg16
I0
sS'y'
I58
s(dp53
g14
S'line'
p54
sS'x'
I135
sg16
I0
sS'y'
I58
stp55
s(dp56
g12
((dp57
g14
S'line'
p58
sS'x'
I353
sg16
I0
sS'y'
I1095
s(dp59
g14
S'line'
p60
sS'x'
I721
sg16
I1
sS'y'
I1095
s(dp61
S'y'
I1095
sS'x'
I898
sg16
I0
s(dp62
S'y'
I971
sS'x'
I985
sg16
I0
s(dp63
g14
S'curve'
p64
sS'x'
I985
sg16
I1
sS'y'
I845
s(dp65
S'y'
I723
sS'x'
I985
sg16
I0
s(dp66
S'y'
I600
sS'x'
I896
sg16
I0
s(dp67
g14
S'curve'
p68
sS'x'
I721
sg16
I1
sS'y'
I600
s(dp69
g14
S'line'
p70
sS'x'
I353
sg16
I0
sS'y'
I600
stp71
stp72
sS'components'
p73
(tsS'anchors'
p74
(tsss."
AnchorPoint: "bot" 719 0 basechar 0
AnchorPoint: "top" 658 1152 basechar 0
LayerCount: 2
Fore
SplineSet
1000 0 m 1
 1198 0 l 1
 1198 34 l 1
 1029 34 l 1
 711 539 l 1
 996 539 1078 698 1078 845 c 0
 1078 988 995 1152 759 1152 c 2
 130 1152 l 1
 130 1118 l 1
 306 1118 l 1
 306 34 l 1
 130 34 l 1
 130 0 l 1
 526 0 l 1
 526 34 l 1
 350 34 l 1
 350 1118 l 1
 488 1118 626 1118 764 1118 c 0
 971 1118 1036 973 1036 845 c 0
 1036 727 978 573 702 573 c 2
 419 573 l 1
 419 539 l 1
 661 539 l 1
 1000 0 l 1
EndSplineSet
EndChar

StartChar: S
Encoding: 83 83 127
Width: 1143
VWidth: 0
GlyphClass: 2
Flags: HW
PickledData: "(dp1
S'com.typemytype.robofont.layerData'
p2
(dp3
S'b'
(dp4
S'name'
p5
S'S'
sS'lib'
p6
(dp7
sS'unicodes'
p8
(tsS'width'
p9
I1143
sS'contours'
p10
((dp11
S'points'
p12
((dp13
S'segmentType'
p14
S'curve'
p15
sS'x'
I636
sS'smooth'
p16
I1
sS'y'
S'-23'
p17
s(dp18
S'y'
S'-23'
p19
sS'x'
I930
sg16
I0
s(dp20
S'y'
I171
sS'x'
I1026
sg16
I0
s(dp21
g14
S'curve'
p22
sS'x'
I1026
sg16
I1
sS'y'
I295
s(dp23
S'y'
I543
sS'x'
I1026
sg16
I0
s(dp24
S'y'
I599
sS'x'
I829
sg16
I0
s(dp25
g14
S'curve'
p26
sS'x'
I606
sg16
I1
sS'y'
I622
s(dp27
S'y'
I643
sS'x'
I405
sg16
I0
s(dp28
S'y'
I667
sS'x'
I269
sg16
I0
s(dp29
g14
S'curve'
p30
sS'x'
I269
sg16
I1
sS'y'
I851
s(dp31
S'y'
I998
sS'x'
I269
sg16
I0
s(dp32
S'y'
I1104
sS'x'
I360
sg16
I0
s(dp33
g14
S'curve'
p34
sS'x'
I573
sg16
I1
sS'y'
I1104
s(dp35
S'y'
I1104
sS'x'
I719
sg16
I0
s(dp36
S'y'
I1024
sS'x'
I885
sg16
I0
s(dp37
g14
S'curve'
p38
sS'x'
I885
sg16
I1
sS'y'
I941
s(dp39
g14
S'line'
p40
sS'x'
I885
sg16
I0
sS'y'
I839
s(dp41
g14
S'line'
p42
sS'x'
I959
sg16
I0
sS'y'
I839
s(dp43
g14
S'line'
p44
sS'x'
I959
sg16
I0
sS'y'
I1152
s(dp45
g14
S'line'
p46
sS'x'
I885
sg16
I0
sS'y'
I1152
s(dp47
g14
S'line'
p48
sS'x'
I885
sg16
I0
sS'y'
I1049
s(dp49
S'y'
I1131
sS'x'
I828
sg16
I0
s(dp50
S'y'
I1172
sS'x'
I673
sg16
I0
s(dp51
g14
S'curve'
p52
sS'x'
I561
sg16
I1
sS'y'
I1172
s(dp53
S'y'
I1172
sS'x'
I360
sg16
I0
s(dp54
S'y'
I1066
sS'x'
I184
sg16
I0
s(dp55
g14
S'curve'
p56
sS'x'
I184
sg16
I1
sS'y'
I863
s(dp57
S'y'
I635
sS'x'
I184
sg16
I0
s(dp58
S'y'
I579
sS'x'
I332
sg16
I0
s(dp59
g14
S'curve'
p60
sS'x'
I584
sg16
I1
sS'y'
I553
s(dp61
S'y'
I531
sS'x'
I805
sg16
I0
s(dp62
S'y'
I488
sS'x'
I942
sg16
I0
s(dp63
g14
S'curve'
p64
sS'x'
I942
sg16
I1
sS'y'
I300
s(dp65
S'y'
I169
sS'x'
I942
sg16
I0
s(dp66
S'y'
I47
sS'x'
I831
sg16
I0
s(dp67
g14
S'curve'
p68
sS'x'
I644
sg16
I1
sS'y'
I47
s(dp69
S'y'
I47
sS'x'
I448
sg16
I0
s(dp70
S'y'
I118
sS'x'
I261
sg16
I0
s(dp71
g14
S'curve'
p72
sS'x'
I261
sg16
I1
sS'y'
I247
s(dp73
g14
S'line'
p74
sS'x'
I261
sg16
I0
sS'y'
I387
s(dp75
g14
S'line'
p76
sS'x'
I187
sg16
I0
sS'y'
I387
s(dp77
g14
S'line'
p78
sS'x'
I187
sg16
I0
sS'y'
S'-1'
p79
s(dp80
g14
S'line'
p81
sS'x'
I261
sg16
I0
sS'y'
S'-1'
p82
s(dp83
g14
S'line'
p84
sS'x'
I261
sg16
I0
sS'y'
I122
s(dp85
S'y'
I22
sS'x'
I335
sg16
I0
s(dp86
S'y'
S'-23'
p87
sS'x'
I496
sg16
I0
stp88
stp89
sS'components'
p90
(tsS'anchors'
p91
(tsss."
AnchorPoint: "bot" 646 0 basechar 0
AnchorPoint: "top" 584 1152 basechar 0
LayerCount: 2
Fore
SplineSet
641 -22 m 0
 985 -22 1030 197 1030 292 c 0
 1030 562 831 578 614 598 c 0
 410 617 222 638 222 856 c 0
 222 1011 325 1138 577 1138 c 0
 779 1138 918 1044 918 958 c 2
 917 847 l 1
 961 847 l 1
 961 1152 l 1
 917 1152 l 1
 917 1037 l 1
 868 1127 690 1174 573 1174 c 0
 357 1174 180 1074 180 859 c 0
 180 599 402 576 609 560 c 0
 836 542 988 512 988 300 c 0
 988 158 906 14 644 14 c 0
 390 14 266 80 225 231 c 1
 225 387 l 1
 181 387 l 1
 181 -1 l 1
 225 -1 l 1
 225 153 l 1
 276 24 434 -22 641 -22 c 0
EndSplineSet
EndChar

StartChar: Sigma
Encoding: 931 931 135
Width: 838
VWidth: 0
GlyphClass: 2
Flags: W
LayerCount: 2
Fore
SplineSet
122 0 m 257
 811 0 l 257
 811 34 l 257
 177 34 l 257
 599 569 l 257
 193 1118 l 257
 777 1118 l 257
 777 1152 l 257
 139 1152 l 257
 139 1124 l 257
 549 569 l 257
 122 31 l 257
 122 0 l 257
EndSplineSet
EndChar

StartChar: T
Encoding: 84 84 136
Width: 1147
VWidth: 0
GlyphClass: 2
Flags: HW
PickledData: "(dp1
S'com.typemytype.robofont.layerData'
p2
(dp3
S'b'
(dp4
S'name'
p5
S'T'
sS'lib'
p6
(dp7
sS'unicodes'
p8
(tsS'width'
p9
I1147
sS'contours'
p10
(tsS'components'
p11
(tsS'anchors'
p12
(tsss."
AnchorPoint: "bot" 563 0 basechar 0
AnchorPoint: "top" 566 1152 basechar 0
LayerCount: 2
Fore
SplineSet
52 777 m 1
 92 777 l 1
 92 1118 l 1
 242.333333333 1118 392.666666667 1118 543 1118 c 1
 543 34 l 1
 367 34 l 1
 367 0 l 1
 763 0 l 1
 763 34 l 1
 587 34 l 1
 587 1118 l 1
 742.333333333 1118 897.666666667 1118 1053 1118 c 1
 1053 777 l 1
 1097 777 l 1
 1097 1152 l 1
 52 1152 l 1
 52 777 l 1
EndSplineSet
EndChar

StartChar: Thorn
Encoding: 222 222 141
Width: 1226
VWidth: 0
GlyphClass: 2
Flags: W
PickledData: "(dp1
S'com.typemytype.robofont.layerData'
p2
(dp3
S'b'
(dp4
S'name'
p5
S'Thorn'
p6
sS'lib'
p7
(dp8
sS'unicodes'
p9
(tsS'width'
p10
I1226
sS'contours'
p11
(tsS'components'
p12
(tsS'anchors'
p13
(tsss."
AnchorPoint: "top" 680 1152 basechar 0
LayerCount: 2
Fore
SplineSet
448 342 m 257
 743 342 l 258
 937 342 1052 458 1052 654 c 256
 1052 817 933 914 731 914 c 258
 326 914 l 257
 326 880 l 257
 730 880 l 258
 904 880 1007 796 1008 653 c 256
 1009 479 911 376 744 376 c 258
 449 376 l 257
 448 342 l 257
EndSplineSet
Refer: 468 -1 N 1 0 0 1 16 0 2
EndChar

StartChar: U
Encoding: 85 85 142
Width: 1514
VWidth: 0
GlyphClass: 2
Flags: HW
PickledData: "(dp1
S'com.typemytype.robofont.layerData'
p2
(dp3
S'b'
(dp4
S'name'
p5
S'U'
sS'lib'
p6
(dp7
sS'unicodes'
p8
(tsS'width'
p9
I1514
sS'contours'
p10
(tsS'components'
p11
(tsS'anchors'
p12
(tsss."
AnchorPoint: "top" 758 1152 basechar 0
LayerCount: 2
Fore
SplineSet
745 -22 m 0
 1061 -22 1283 136 1283 368 c 2
 1283 1118 l 1
 1442 1118 l 1
 1442 1152 l 1
 1087 1152 l 1
 1087 1118 l 1
 1238 1118 l 1
 1238 368 l 2
 1238 157 1035 14 745 14 c 0
 474 14 288 159 288 372 c 2
 288 1118 l 1
 439 1118 l 1
 439 1152 l 1
 90 1152 l 1
 90 1118 l 1
 243 1118 l 1
 243 368 l 2
 243 136 452 -22 745 -22 c 0
EndSplineSet
EndChar

StartChar: V
Encoding: 86 86 156
Width: 1228
VWidth: 0
GlyphClass: 2
Flags: HW
PickledData: "(dp1
S'com.typemytype.robofont.layerData'
p2
(dp3
S'b'
(dp4
S'name'
p5
S'V'
sS'lib'
p6
(dp7
sS'unicodes'
p8
(tsS'width'
p9
I1228
sS'contours'
p10
(tsS'components'
p11
(tsS'anchors'
p12
(tsss."
LayerCount: 2
Fore
SplineSet
591 0 m 1
 641 0 l 1
 1063 1118 l 1
 1184 1118 l 1
 1184 1152 l 1
 847 1152 l 1
 847 1118 l 1
 1004 1118 l 1
 615 58 l 1
 224 1118 l 1
 385 1118 l 1
 385 1152 l 1
 39 1152 l 1
 39 1118 l 1
 175 1118 l 1
 591 0 l 1
EndSplineSet
EndChar

StartChar: W
Encoding: 87 87 157
Width: 1962
VWidth: 0
GlyphClass: 2
Flags: HW
PickledData: "(dp1
S'com.typemytype.robofont.layerData'
p2
(dp3
S'b'
(dp4
S'name'
p5
S'W'
sS'lib'
p6
(dp7
sS'unicodes'
p8
(tsS'width'
p9
I1962
sS'contours'
p10
(tsS'components'
p11
(tsS'anchors'
p12
(tsss."
AnchorPoint: "top" 985 1152 basechar 0
LayerCount: 2
Fore
SplineSet
597 0 m 1
 650 0 l 1
 984 1003 l 1
 1314 0 l 1
 1365 0 l 1
 1741 1118 l 1
 1886 1118 l 1
 1886 1152 l 1
 1535 1152 l 1
 1535 1118 l 1
 1692 1118 l 1
 1339 55 l 1
 1001 1087 l 1
 966 1087 l 1
 623 55 l 1
 264 1118 l 1
 427 1118 l 1
 427 1152 l 1
 76 1152 l 1
 76 1118 l 1
 213 1118 l 1
 597 0 l 1
EndSplineSet
EndChar

StartChar: X
Encoding: 88 88 162
Width: 1293
VWidth: 0
GlyphClass: 2
Flags: HW
PickledData: "(dp1
S'com.typemytype.robofont.layerData'
p2
(dp3
S'b'
(dp4
S'name'
p5
S'X'
sS'lib'
p6
(dp7
sS'unicodes'
p8
(tsS'width'
p9
I1293
sS'contours'
p10
(tsS'components'
p11
(tsS'anchors'
p12
(tsss."
LayerCount: 2
Fore
SplineSet
118 0 m 1
 458 0 l 1
 458 34 l 1
 299 34 l 1
 644 561 l 1
 998 34 l 1
 843 34 l 1
 843 0 l 1
 1180 0 l 1
 1180 34 l 1
 1033 34 l 1
 668 584 l 1
 1015 1118 l 1
 1161 1118 l 1
 1161 1152 l 1
 814 1152 l 1
 814 1118 l 1
 972 1118 l 1
 648 620 l 1
 315 1118 l 1
 469 1118 l 1
 469 1152 l 1
 130 1152 l 1
 130 1118 l 1
 278 1118 l 1
 626 595 l 1
 254 34 l 1
 118 34 l 1
 118 0 l 1
EndSplineSet
EndChar

StartChar: Y
Encoding: 89 89 163
Width: 1254
VWidth: 0
GlyphClass: 2
Flags: HW
PickledData: "(dp1
S'com.typemytype.robofont.layerData'
p2
(dp3
S'b'
(dp4
S'name'
p5
S'Y'
sS'lib'
p6
(dp7
sS'unicodes'
p8
(tsS'width'
p9
I1254
sS'contours'
p10
(tsS'components'
p11
(tsS'anchors'
p12
(tsss."
AnchorPoint: "top" 632 1152 basechar 0
LayerCount: 2
Fore
SplineSet
436 0 m 1
 816 0 l 1
 816 34 l 1
 648 34 l 1
 648 459 l 1
 1085 1118 l 1
 1237 1118 l 1
 1237 1152 l 1
 873 1152 l 1
 873 1118 l 1
 1035 1118 l 1
 626 501 l 1
 217 1118 l 1
 369 1118 l 1
 369 1152 l 1
 12 1152 l 1
 12 1118 l 1
 169 1118 l 1
 604 459 l 1
 604 34 l 1
 436 34 l 1
 436 0 l 1
EndSplineSet
EndChar

StartChar: Z
Encoding: 90 90 170
Width: 1241
VWidth: 0
GlyphClass: 2
Flags: HW
PickledData: "(dp1
S'com.typemytype.robofont.layerData'
p2
(dp3
S'b'
(dp4
S'name'
p5
S'Z'
sS'lib'
p6
(dp7
sS'unicodes'
p8
(tsS'width'
p9
I1241
sS'contours'
p10
(tsS'components'
p11
(tsS'anchors'
p12
(tsss."
AnchorPoint: "top" 648 1152 basechar 0
LayerCount: 2
Fore
SplineSet
143 0 m 1
 1091 0 l 1
 1091 359 l 1
 1051 359 l 1
 1051 34 l 1
 191 34 l 1
 1062 1117 l 1
 1062 1152 l 1
 171 1152 l 1
 171 808 l 1
 211 808 l 1
 211 1118 l 1
 1014 1118 l 1
 143 36 l 1
 143 0 l 1
EndSplineSet
EndChar

StartChar: a
Encoding: 97 97 174
Width: 951
VWidth: 0
GlyphClass: 2
Flags: HW
PickledData: "(dp1
S'com.typemytype.robofont.layerData'
p2
(dp3
S'b'
(dp4
S'name'
p5
S'a'
sS'lib'
p6
(dp7
sS'unicodes'
p8
(tsS'width'
p9
I951
sS'contours'
p10
((dp11
S'points'
p12
((dp13
S'segmentType'
p14
S'curve'
p15
sS'x'
I391
sS'smooth'
p16
I1
sS'y'
S'-14'
p17
s(dp18
S'y'
S'-14'
p19
sS'x'
I507
sg16
I0
s(dp20
S'y'
I21
sS'x'
I593
sg16
I0
s(dp21
g14
S'curve'
p22
sS'x'
I687
sg16
I0
sS'y'
I91
s(dp23
g14
S'line'
p24
sS'x'
I703
sg16
I0
sS'y'
S'-1'
p25
s(dp26
g14
S'line'
p27
sS'x'
I890
sg16
I0
sS'y'
S'-1'
p28
s(dp29
g14
S'line'
p30
sS'x'
I890
sg16
I0
sS'y'
I57
s(dp31
g14
S'line'
p32
sS'x'
I764
sg16
I0
sS'y'
I57
s(dp33
g14
S'line'
p34
sS'x'
I764
sg16
I1
sS'y'
I569
s(dp35
S'y'
I672
sS'x'
I764
sg16
I0
s(dp36
S'y'
I819
sS'x'
I710
sg16
I0
s(dp37
g14
S'curve'
p38
sS'x'
I461
sg16
I1
sS'y'
I819
s(dp39
S'y'
I819
sS'x'
I332
sg16
I0
s(dp40
S'y'
I792
sS'x'
I226
sg16
I0
s(dp41
g14
S'curve'
p42
sS'x'
I155
sg16
I0
sS'y'
I724
s(dp43
g14
S'line'
p44
sS'x'
I190
sg16
I0
sS'y'
I668
s(dp45
S'y'
I726
sS'x'
I247
sg16
I0
s(dp46
S'y'
I755
sS'x'
I339
sg16
I0
s(dp47
g14
S'curve'
p48
sS'x'
I459
sg16
I1
sS'y'
I755
s(dp49
S'y'
I755
sS'x'
I600
sg16
I0
s(dp50
S'y'
I706
sS'x'
I687
sg16
I0
s(dp51
g14
S'curve'
p52
sS'x'
I687
sg16
I1
sS'y'
I551
s(dp53
g14
S'line'
p54
sS'x'
I687
sg16
I0
sS'y'
I428
s(dp55
S'y'
I443
sS'x'
I609
sg16
I0
s(dp56
S'y'
I455
sS'x'
I539
sg16
I0
s(dp57
g14
S'curve'
p58
sS'x'
I465
sg16
I1
sS'y'
I455
s(dp59
S'y'
I455
sS'x'
I295
sg16
I0
s(dp60
S'y'
I433
sS'x'
I117
sg16
I0
s(dp61
g14
S'curve'
p62
sS'x'
I117
sg16
I1
sS'y'
I222
s(dp63
S'y'
I96
sS'x'
I117
sg16
I0
s(dp64
S'y'
S'-14'
p65
sS'x'
I206
sg16
I0
stp66
s(dp67
g12
((dp68
g14
S'curve'
p69
sS'x'
I401
sg16
I1
sS'y'
I50
s(dp70
S'y'
I50
sS'x'
I246
sg16
I0
s(dp71
S'y'
I142
sS'x'
I195
sg16
I0
s(dp72
g14
S'curve'
p73
sS'x'
I195
sg16
I1
sS'y'
I220
s(dp74
S'y'
I390
sS'x'
I195
sg16
I0
s(dp75
S'y'
I393
sS'x'
I346
sg16
I0
s(dp76
g14
S'curve'
p77
sS'x'
I462
sg16
I1
sS'y'
I393
s(dp78
S'y'
I393
sS'x'
I559
sg16
I0
s(dp79
S'y'
I368
sS'x'
I687
sg16
I0
s(dp80
g14
S'curve'
p81
sS'x'
I687
sg16
I0
sS'y'
I368
s(dp82
g14
S'line'
p83
sS'x'
I687
sg16
I0
sS'y'
I151
s(dp84
S'y'
I76
sS'x'
I606
sg16
I0
s(dp85
S'y'
I50
sS'x'
I511
sg16
I0
stp86
stp87
sS'components'
p88
(tsS'anchors'
p89
(tsss."
AnchorPoint: "top" 475 805 basechar 0
LayerCount: 2
Fore
SplineSet
402 -22 m 0
 493 -22 596 11 721 84 c 1
 721 84 735 -8 735 0 c 1
 886 0 l 1
 886 34 l 1
 763 34 l 1
 763 558 l 2
 763 669 714 826 468 826 c 0
 398 826 293 805 182 763 c 1
 195 726 l 1
 279 759 377 792 477 792 c 0
 618 792 719 714 719 540 c 2
 719 414 l 1
 617 432 506 450 406 450 c 0
 262 450 133 395 133 217 c 0
 133 73 240 -22 402 -22 c 0
400 12 m 0
 255 12 175 108 175 215 c 0
 175 364 283 416 407 416 c 0
 502 416 607 395 719 379 c 1
 719 118 l 1
 579 41 498 12 400 12 c 0
EndSplineSet
Substitution2: "Single Substitution lookup 13 subtable" ordfeminine
EndChar

StartChar: acute
Encoding: 180 180 179
Width: 129
VWidth: 0
GlyphClass: 4
Flags: W
PickledData: "(dp1
S'com.typemytype.robofont.layerData'
p2
(dp3
S'b'
(dp4
S'name'
p5
S'acute'
p6
sS'lib'
p7
(dp8
sS'unicodes'
p9
(tsS'width'
p10
I45
sS'contours'
p11
(tsS'components'
p12
(tsS'anchors'
p13
(tsss."
AnchorPoint: "top" 4 804 mark 0
LayerCount: 2
Fore
SplineSet
87 1236 m 257
 0 991 l 257
 21 991 l 257
 129 1236 l 257
 87 1236 l 257
EndSplineSet
EndChar

StartChar: ae
Encoding: 230 230 183
Width: 1657
VWidth: 0
GlyphClass: 2
Flags: W
PickledData: "(dp1
S'com.typemytype.robofont.layerData'
p2
(dp3
S'b'
(dp4
S'name'
p5
S'ae'
p6
sS'lib'
p7
(dp8
sS'unicodes'
p9
(tsS'width'
p10
I1657
sS'contours'
p11
(tsS'components'
p12
(tsS'anchors'
p13
(tsss."
AnchorPoint: "top" 889 804 basechar 0
LayerCount: 2
Fore
SplineSet
439 -22 m 256
 551 -22 706 -12 838 111 c 257
 913 13 1019 -22 1148 -22 c 256
 1322 -22 1394 25 1520 142 c 257
 1504 173 l 257
 1409 68 1279 12 1148 12 c 256
 907 12 804 140 806 394 c 257
 1511 394 l 257
 1511 685 1364 826 1154 826 c 256
 977 826 838 733 799 556 c 257
 793 738 719 826 504 826 c 256
 375 826 267 782 194 712 c 257
 217 682 l 257
 277 743 377 792 504 792 c 256
 680 792 767 729 767 535 c 258
 767 428 l 257
 563 428 l 258
 327 428 154 391 154 215 c 256
 154 62 243 -22 439 -22 c 256
439 12 m 256
 269 12 196 86 196 215 c 256
 196 366 338 394 561 394 c 258
 767 394 l 257
 767 325 784 212 820 140 c 257
 725 44 602 12 439 12 c 256
1475 427 m 257
 806 428 l 257
 813 613 923 792 1154 792 c 256
 1352 792 1475 655 1475 427 c 257
EndSplineSet
EndChar

StartChar: ampersand
Encoding: 38 38 189
Width: 1088
VWidth: 0
GlyphClass: 2
Flags: W
PickledData: "(dp1
S'com.typemytype.robofont.layerData'
p2
(dp3
S'b'
(dp4
S'name'
p5
S'ampersand'
p6
sS'lib'
p7
(dp8
sS'unicodes'
p9
(tsS'width'
p10
I1088
sS'contours'
p11
(tsS'components'
p12
(tsS'anchors'
p13
(tsss."
LayerCount: 2
Fore
SplineSet
476 -22 m 256
 617 -22 736 26 799 106 c 257
 882 0 l 257
 1042 0 l 257
 1042 34 l 257
 901 34 l 257
 823 132 l 257
 865 199 910 349 910 400 c 257
 1042 400 l 257
 1042 433 l 257
 877 433 l 257
 877 369 838 223 803 161 c 257
 429 628 l 257
 611 700 727 825 727 966 c 256
 727 1098 635 1172 470 1172 c 256
 302 1172 209 1099 209 967 c 256
 209 869 276 765 376 642 c 257
 202 587 120 470 120 303 c 256
 120 92 247 -22 476 -22 c 256
476 14 m 256
 274 14 162 115 162 303 c 256
 162 458 238 565 397 610 c 257
 776 134 l 257
 712 56 602 14 476 14 c 256
412 656 m 257
 324 767 245 867 245 967 c 256
 245 1073 332 1136 470 1136 c 256
 608 1136 685 1075 685 966 c 256
 685 832 578 717 412 656 c 257
EndSplineSet
EndChar

StartChar: apostrophemod
Encoding: 700 700 191
Width: 600
VWidth: 0
GlyphClass: 4
Flags: W
AnchorPoint: "top" 58 804 mark 0
LayerCount: 2
Fore
SplineSet
45 922 m 257
 127 922 137 994 137 1073 c 258
 138 1175 l 257
 55 1176 l 257
 55 1079 l 257
 104 1079 l 257
 104 967 95 946 45 940 c 257
 45 922 l 257
EndSplineSet
EndChar

StartChar: approxequal
Encoding: 8776 8776 192
Width: 600
VWidth: 0
GlyphClass: 2
Flags: W
LayerCount: 2
Fore
SplineSet
550 693 m 257
 496 666 462 651 421 651 c 256
 389 651 354 661 303 681 c 256
 243 704 193 721 145 721 c 256
 107 721 69 710 28 681 c 257
 28 627 l 257
 68 654 102 665 137 665 c 256
 180 665 223 649 278 629 c 256
 333 607 376 595 416 595 c 256
 459 595 500 609 550 640 c 257
 550 693 l 257
550 493 m 257
 496 466 462 451 421 451 c 256
 389 451 354 461 303 481 c 256
 243 504 193 521 145 521 c 256
 107 521 69 510 28 481 c 257
 28 427 l 257
 68 454 102 465 137 465 c 256
 180 465 223 449 278 429 c 256
 333 407 376 395 416 395 c 256
 459 395 500 409 550 440 c 257
 550 493 l 257
EndSplineSet
EndChar

StartChar: asciicircum
Encoding: 94 94 195
Width: 911
VWidth: 0
GlyphClass: 2
Flags: W
PickledData: "(dp1
S'com.typemytype.robofont.layerData'
p2
(dp3
S'b'
(dp4
S'name'
p5
S'asciicircum'
p6
sS'lib'
p7
(dp8
sS'unicodes'
p9
(tsS'width'
p10
I911
sS'contours'
p11
(tsS'components'
p12
(tsS'anchors'
p13
(tsss."
LayerCount: 2
Fore
SplineSet
70 823 m 257
 113 823 l 257
 463 1244 l 257
 795 823 l 257
 836 823 l 257
 492 1289 l 257
 434 1289 l 257
 70 823 l 257
EndSplineSet
EndChar

StartChar: asciitilde
Encoding: 126 126 196
Width: 708
VWidth: 0
GlyphClass: 2
Flags: W
PickledData: "(dp1
S'com.typemytype.robofont.layerData'
p2
(dp3
S'b'
(dp4
S'name'
p5
S'asciitilde'
p6
sS'lib'
p7
(dp8
sS'unicodes'
p9
(tsS'width'
p10
I708
sS'contours'
p11
(tsS'components'
p12
(tsS'anchors'
p13
(tsss."
LayerCount: 2
Fore
SplineSet
633 626 m 257
 606 583 574 558 527 558 c 256
 404 558 316 674 184 674 c 256
 133 674 83 641 63 600 c 257
 73 566 l 257
 101 615 139 637 186 637 c 256
 301 637 381 522 527 522 c 256
 584 522 624 555 643 591 c 257
 633 626 l 257
EndSplineSet
EndChar

StartChar: asterisk
Encoding: 42 42 197
Width: 941
VWidth: 0
GlyphClass: 2
Flags: W
PickledData: "(dp1
S'com.typemytype.robofont.layerData'
p2
(dp3
S'b'
(dp4
S'name'
p5
S'asterisk'
p6
sS'lib'
p7
(dp8
sS'unicodes'
p9
(tsS'width'
p10
I941
sS'contours'
p11
(tsS'components'
p12
(tsS'anchors'
p13
(tsss."
LayerCount: 2
Fore
SplineSet
240 417 m 257
 471 765 l 257
 700 417 l 257
 765 466 l 257
 493 788 l 257
 896 920 l 257
 868 992 l 257
 488 817 l 257
 515 1236 l 257
 426 1236 l 257
 454 817 l 257
 72 992 l 257
 44 920 l 257
 447 788 l 257
 176 466 l 257
 240 417 l 257
EndSplineSet
EndChar

StartChar: at
Encoding: 64 64 198
Width: 1379
VWidth: 0
GlyphClass: 2
Flags: W
PickledData: "(dp1
S'com.typemytype.robofont.layerData'
p2
(dp3
S'b'
(dp4
S'name'
p5
S'at'
p6
sS'lib'
p7
(dp8
sS'unicodes'
p9
(tsS'width'
p10
I1379
sS'contours'
p11
(tsS'components'
p12
(tsS'anchors'
p13
(tsss."
LayerCount: 2
Fore
SplineSet
756 -25 m 256
 922 -25 1034 10 1129 78 c 257
 1116 99 l 257
 1022 37 906 4 756 4 c 256
 383 4 162 219 162 543 c 256
 162 876 408 1127 743 1127 c 256
 1087 1127 1239 908 1239 678 c 256
 1239 420 1072 275 976 279 c 256
 913 282 899 323 932 475 c 258
 1020 874 l 257
 992 874 l 257
 947 672 l 257
 949 814 855 894 731 894 c 256
 529 894 417 699 417 519 c 256
 417 341 522 250 650 250 c 256
 780 250 867 350 909 480 c 257
 846 302 906 255 961 250 c 256
 1100 238 1273 419 1273 678 c 256
 1273 918 1123 1156 747 1156 c 256
 345 1156 118 844 118 545 c 256
 118 251 323 -25 756 -25 c 256
655 279 m 256
 522 279 456 371 456 518 c 256
 456 706 562 862 727 862 c 256
 845 862 921 796 921 650 c 256
 921 483 816 279 655 279 c 256
EndSplineSet
EndChar

StartChar: b
Encoding: 98 98 200
Width: 1037
VWidth: 0
GlyphClass: 2
Flags: HW
PickledData: "(dp1
S'com.typemytype.robofont.layerData'
p2
(dp3
S'b'
(dp4
S'name'
p5
S'b'
sS'lib'
p6
(dp7
sS'unicodes'
p8
(tsS'width'
p9
I1037
sS'contours'
p10
(tsS'components'
p11
(tsS'anchors'
p12
(tsss."
AnchorPoint: "top" 599 804 basechar 0
LayerCount: 2
Fore
SplineSet
545 -22 m 0
 809.07982772 -22 974.114556995 144.921522739 974.114556995 411.948595473 c 0
 974.114556995 666.97662307 816.040015366 826 561 826 c 0
 459.453226019 826 342.004885703 782.479923715 250 712.284038938 c 1
 250 1174 l 1
 74 1174 l 1
 74 1140 l 1
 206 1140 l 1
 206 34 l 1
 66 34 l 1
 66 0 l 1
 250 0 l 1
 250 98.5196992715 l 1
 330.060995284 23.5534727554 440.377589689 -22 545 -22 c 0
250 674.894361696 m 1
 346.015421043 747.281195096 463.632722953 792 561 792 c 0
 789 792 932 641 932 400 c 0
 932 162 783 12 545 12 c 0
 441.958079346 12 331.563224195 60.2025705844 250 139.623119807 c 1
 250 674.894361696 l 1
EndSplineSet
EndChar

StartChar: backslash
Encoding: 92 92 201
Width: 296
VWidth: 0
GlyphClass: 2
Flags: W
PickledData: "(dp1
S'com.typemytype.robofont.layerData'
p2
(dp3
S'b'
(dp4
S'name'
p5
S'backslash'
p6
sS'lib'
p7
(dp8
sS'unicodes'
p9
(tsS'width'
p10
I296
sS'contours'
p11
(tsS'components'
p12
(tsS'anchors'
p13
(tsss."
LayerCount: 2
Fore
SplineSet
272 -25 m 257
 320 -25 l 257
 7 1172 l 257
 -35 1172 l 257
 272 -25 l 257
EndSplineSet
EndChar

StartChar: bar
Encoding: 124 124 202
Width: 348
VWidth: 0
GlyphClass: 2
Flags: W
PickledData: "(dp1
S'com.typemytype.robofont.layerData'
p2
(dp3
S'b'
(dp4
S'name'
p5
S'bar'
p6
sS'lib'
p7
(dp8
sS'unicodes'
p9
(tsS'width'
p10
I348
sS'contours'
p11
(tsS'components'
p12
(tsS'anchors'
p13
(tsss."
LayerCount: 2
Fore
SplineSet
159 6 m 257
 200 6 l 257
 200 1180 l 257
 159 1180 l 257
 159 6 l 257
EndSplineSet
EndChar

StartChar: braceleft
Encoding: 123 123 204
Width: 404
VWidth: 0
GlyphClass: 2
Flags: W
PickledData: "(dp1
S'com.typemytype.robofont.layerData'
p2
(dp3
S'b'
(dp4
S'name'
p5
S'braceleft'
p6
sS'lib'
p7
(dp8
sS'unicodes'
p9
(tsS'width'
p10
I404
sS'contours'
p11
(tsS'components'
p12
(tsS'anchors'
p13
(tsss."
LayerCount: 2
Fore
SplineSet
304 12 m 258
 361 12 l 257
 361 45 l 257
 218 45 190 71 190 218 c 256
 190 530 172 559 68 576 c 257
 173 582 190 620 190 920 c 256
 190 1082 211 1106 361 1106 c 257
 361 1141 l 257
 305 1141 l 258
 151 1141 145 1051 145 834 c 256
 145 657 150 599 8 599 c 257
 8 553 l 257
 140 553 145 503 145 345 c 256
 145 104 150 12 304 12 c 258
EndSplineSet
EndChar

StartChar: braceright
Encoding: 125 125 205
Width: 406
VWidth: 0
GlyphClass: 2
Flags: W
PickledData: "(dp1
S'com.typemytype.robofont.layerData'
p2
(dp3
S'b'
(dp4
S'name'
p5
S'braceright'
p6
sS'lib'
p7
(dp8
sS'unicodes'
p9
(tsS'width'
p10
I406
sS'contours'
p11
(tsS'components'
p12
(tsS'anchors'
p13
(tsss."
LayerCount: 2
Fore
SplineSet
43 12 m 257
 100 12 l 258
 254 12 259 104 259 345 c 256
 259 503 264 553 396 553 c 257
 396 599 l 257
 254 599 259 657 259 834 c 256
 259 1051 253 1141 99 1141 c 258
 43 1141 l 257
 43 1106 l 257
 193 1106 214 1082 214 920 c 256
 214 620 231 582 336 576 c 257
 232 559 214 530 214 218 c 256
 214 71 186 45 43 45 c 257
 43 12 l 257
EndSplineSet
EndChar

StartChar: bracketleft
Encoding: 91 91 206
Width: 318
VWidth: 0
GlyphClass: 2
Flags: W
PickledData: "(dp1
S'com.typemytype.robofont.layerData'
p2
(dp3
S'b'
(dp4
S'name'
p5
S'bracketleft'
p6
sS'lib'
p7
(dp8
sS'unicodes'
p9
(tsS'width'
p10
I318
sS'contours'
p11
(tsS'components'
p12
(tsS'anchors'
p13
(tsss."
LayerCount: 2
Fore
SplineSet
157 -127 m 257
 317 -127 l 257
 317 -88 l 257
 207 -88 l 257
 207 1152 l 257
 317 1152 l 257
 317 1189 l 257
 157 1189 l 257
 157 -127 l 257
EndSplineSet
EndChar

StartChar: bracketright
Encoding: 93 93 207
Width: 316
VWidth: 0
GlyphClass: 2
Flags: W
PickledData: "(dp1
S'com.typemytype.robofont.layerData'
p2
(dp3
S'b'
(dp4
S'name'
p5
S'bracketright'
p6
sS'lib'
p7
(dp8
sS'unicodes'
p9
(tsS'width'
p10
I316
sS'contours'
p11
(tsS'components'
p12
(tsS'anchors'
p13
(tsss."
LayerCount: 2
Fore
SplineSet
-10 -127 m 257
 150 -127 l 257
 150 1189 l 257
 -10 1189 l 257
 -10 1152 l 257
 100 1152 l 257
 100 -88 l 257
 -10 -88 l 257
 -10 -127 l 257
EndSplineSet
EndChar

StartChar: breve
Encoding: 728 728 208
Width: 233
VWidth: 0
GlyphClass: 4
Flags: W
PickledData: "(dp1
S'com.typemytype.robofont.layerData'
p2
(dp3
S'b'
(dp4
S'name'
p5
S'breve'
p6
sS'lib'
p7
(dp8
sS'unicodes'
p9
(tsS'width'
p10
I233
sS'contours'
p11
(tsS'components'
p12
(tsS'anchors'
p13
(tsss."
AnchorPoint: "top" 122 804 mark 0
LayerCount: 2
Fore
SplineSet
120 934 m 256
 194 933 237 974 252 1059 c 257
 224 1059 l 257
 206 997 172 967 120 967 c 256
 67 967 33 997 15 1059 c 257
 -15 1059 l 257
 4 974 48 933 120 934 c 256
EndSplineSet
EndChar

StartChar: breveinvertedcomb
Encoding: 785 785 209
Width: 962
VWidth: 0
GlyphClass: 4
Flags: W
PickledData: "(dp1
S'com.typemytype.robofont.layerData'
p2
(dp3
S'b'
(dp4
S'name'
p5
S'uni0311'
p6
sS'lib'
p7
(dp8
sS'unicodes'
p9
(tsS'width'
p10
I962
sS'contours'
p11
(tsS'components'
p12
(tsS'anchors'
p13
(tsss."
AnchorPoint: "top" 488 804 mark 0
LayerCount: 2
Fore
SplineSet
352 934 m 257
 382 934 l 257
 400 996 434 1026 487 1026 c 256
 539 1026 573 996 591 934 c 257
 619 934 l 257
 604 1019 561 1060 487 1059 c 256
 415 1060 371 1019 352 934 c 257
EndSplineSet
EndChar

StartChar: brokenbar
Encoding: 166 166 210
Width: 418
VWidth: 0
GlyphClass: 2
Flags: W
PickledData: "(dp1
S'com.typemytype.robofont.layerData'
p2
(dp3
S'b'
(dp4
S'name'
p5
S'brokenbar'
p6
sS'lib'
p7
(dp8
sS'unicodes'
p9
(tsS'width'
p10
I418
sS'contours'
p11
(tsS'components'
p12
(tsS'anchors'
p13
(tsss."
LayerCount: 2
Fore
SplineSet
184 -26 m 257
 231 -26 l 257
 231 544 l 257
 184 544 l 257
 184 -26 l 257
184 725 m 257
 231 725 l 257
 231 1296 l 257
 184 1296 l 257
 184 725 l 257
EndSplineSet
EndChar

StartChar: bullet
Encoding: 8226 8226 211
Width: 768
VWidth: 0
GlyphClass: 2
Flags: W
PickledData: "(dp1
S'com.typemytype.robofont.layerData'
p2
(dp3
S'b'
(dp4
S'name'
p5
S'bullet'
p6
sS'lib'
p7
(dp8
sS'unicodes'
p9
(tsS'width'
p10
I768
sS'contours'
p11
(tsS'components'
p12
(tsS'anchors'
p13
(tsss."
LayerCount: 2
Fore
SplineSet
384 472 m 256
 527 472 641 582 641 719 c 256
 641 858 527 965 384 965 c 256
 240 965 128 857 128 719 c 256
 128 584 240 472 384 472 c 256
EndSplineSet
EndChar

StartChar: c
Encoding: 99 99 212
Width: 956
VWidth: 0
GlyphClass: 2
Flags: HW
PickledData: "(dp1
S'com.typemytype.robofont.layerData'
p2
(dp3
S'b'
(dp4
S'name'
p5
S'c'
sS'lib'
p6
(dp7
sS'unicodes'
p8
(tsS'width'
p9
I956
sS'contours'
p10
((dp11
S'points'
p12
((dp13
S'y'
S'-14'
p14
sS'x'
I633
sS'smooth'
p15
I0
s(dp16
S'y'
I33
sS'x'
I758
sg15
I0
s(dp17
S'segmentType'
p18
S'curve'
p19
sS'x'
I868
sg15
I0
sS'y'
I142
s(dp20
g18
S'line'
p21
sS'x'
I845
sg15
I0
sS'y'
I213
s(dp22
S'y'
I105
sS'x'
I763
sg15
I0
s(dp23
S'y'
I51
sS'x'
I637
sg15
I0
s(dp24
g18
S'curve'
p25
sS'x'
I515
sg15
I1
sS'y'
I51
s(dp26
S'y'
I51
sS'x'
I316
sg15
I0
s(dp27
S'y'
I193
sS'x'
I169
sg15
I0
s(dp28
g18
S'curve'
p29
sS'x'
I169
sg15
I1
sS'y'
I406
s(dp30
S'y'
I630
sS'x'
I169
sg15
I0
s(dp31
S'y'
I755
sS'x'
I336
sg15
I0
s(dp32
g18
S'curve'
p33
sS'x'
I515
sg15
I1
sS'y'
I755
s(dp34
S'y'
I755
sS'x'
I705
sg15
I0
s(dp35
S'y'
I657
sS'x'
I768
sg15
I0
s(dp36
g18
S'curve'
p37
sS'x'
I776
sg15
I0
sS'y'
I570
s(dp38
g18
S'line'
p39
sS'x'
I840
sg15
I0
sS'y'
I570
s(dp40
g18
S'line'
p41
sS'x'
I840
sg15
I0
sS'y'
I825
s(dp42
g18
S'line'
p43
sS'x'
I767
sg15
I0
sS'y'
I825
s(dp44
g18
S'line'
p45
sS'x'
I767
sg15
I0
sS'y'
I714
s(dp46
S'y'
I764
sS'x'
I736
sg15
I0
s(dp47
S'y'
I819
sS'x'
I645
sg15
I0
s(dp48
g18
S'curve'
p49
sS'x'
I522
sg15
I1
sS'y'
I819
s(dp50
S'y'
I819
sS'x'
F268.96812951340218
sg15
I0
s(dp51
S'y'
I650
sS'x'
I90
sg15
I0
s(dp52
g18
S'curve'
p53
sS'x'
I90
sg15
I1
sS'y'
I406
s(dp54
S'y'
I145
sS'x'
I90
sg15
I0
s(dp55
S'y'
S'-14'
p56
sS'x'
I286
sg15
I0
s(dp57
g18
S'curve'
p58
sS'x'
I515
sg15
I1
sS'y'
S'-14'
p59
stp60
stp61
sS'components'
p62
(tsS'anchors'
p63
(tsss."
AnchorPoint: "bot" 438 0 basechar 0
AnchorPoint: "top" 482 805 basechar 0
LayerCount: 2
Fore
SplineSet
809 154 m 1
 707.225021192 52.2250211915 614.769675177 11.9817963068 475 11.9817963068 c 0
 258.105444731 11.9817963068 105 174.396457301 105 403 c 0
 105 631 264 792 488 792 c 0
 631 792 746 703 765 578 c 1
 803 578 l 1
 803 804 l 1
 759 804 l 1
 757 694 l 1
 716 771 604 826 487 826 c 0
 239 826 63 652 63 405 c 0
 63 155 234 -22 475 -22 c 0
 615 -22 715 19 808 114 c 1
 809 154 l 1
EndSplineSet
EndChar

StartChar: caron
Encoding: 711 711 214
Width: 351
VWidth: 0
GlyphClass: 4
Flags: W
PickledData: "(dp1
S'com.typemytype.robofont.layerData'
p2
(dp3
S'b'
(dp4
S'name'
p5
S'caron'
p6
sS'lib'
p7
(dp8
sS'unicodes'
p9
(tsS'width'
p10
I351
sS'contours'
p11
(tsS'components'
p12
(tsS'anchors'
p13
(tsss."
AnchorPoint: "top" 176 804 mark 0
LayerCount: 2
Fore
SplineSet
159 930 m 257
 182 930 l 257
 355 1236 l 257
 319 1236 l 257
 171 969 l 257
 21 1236 l 257
 -17 1236 l 257
 159 930 l 257
EndSplineSet
EndChar

StartChar: caron.alt
Encoding: 65539 -1 215
Width: 600
VWidth: 0
GlyphClass: 4
Flags: W
AnchorPoint: "caron.alt" 198 804 mark 0
LayerCount: 2
Fore
SplineSet
328 914 m 257
 419 913 425 994 425 1076 c 258
 425 1174 l 257
 343 1174 l 257
 343 1091 l 257
 391 1091 l 257
 391 1006 394 936 328 933 c 257
 328 914 l 257
EndSplineSet
EndChar

StartChar: cedilla
Encoding: 184 184 220
Width: 600
VWidth: 0
GlyphClass: 4
Flags: W
AnchorPoint: "bot" 292 0 mark 0
LayerCount: 2
Fore
SplineSet
279 -279 m 256
 335 -279 385 -255 385 -197 c 256
 385 -150 354 -108 259 -108 c 257
 298 6 l 257
 270 6 l 257
 212 -144 l 257
 305 -144 333 -166 333 -192 c 256
 333 -225 305 -243 258 -243 c 256
 236 -243 210 -239 181 -230 c 257
 181 -256 l 257
 210 -271 245 -279 279 -279 c 256
EndSplineSet
EndChar

StartChar: cent
Encoding: 162 162 221
Width: 909
VWidth: 0
GlyphClass: 2
Flags: W
PickledData: "(dp1
S'com.typemytype.robofont.layerData'
p2
(dp3
S'b'
(dp4
S'name'
p5
S'cent'
p6
sS'lib'
p7
(dp8
sS'unicodes'
p9
(tsS'width'
p10
I909
sS'contours'
p11
(tsS'components'
p12
(tsS'anchors'
p13
(tsss."
LayerCount: 2
Fore
SplineSet
323 -200 m 257
 637 1000 l 257
 610 1004 l 257
 296 -195 l 257
 323 -200 l 257
EndSplineSet
Refer: 212 99 N 1 0 0 1 0 0 2
EndChar

StartChar: circumflex
Encoding: 710 710 222
Width: 347
VWidth: 0
GlyphClass: 4
Flags: W
PickledData: "(dp1
S'com.typemytype.robofont.layerData'
p2
(dp3
S'b'
(dp4
S'name'
p5
S'circumflex'
p6
sS'lib'
p7
(dp8
sS'unicodes'
p9
(tsS'width'
p10
I347
sS'contours'
p11
(tsS'components'
p12
(tsS'anchors'
p13
(tsss."
AnchorPoint: "top" 176 804 mark 0
LayerCount: 2
Fore
SplineSet
21 930 m 257
 171 1197 l 257
 319 930 l 257
 355 930 l 257
 182 1236 l 257
 159 1236 l 257
 -17 930 l 257
 21 930 l 257
EndSplineSet
EndChar

StartChar: colon
Encoding: 58 58 223
Width: 453
VWidth: 0
GlyphClass: 2
Flags: W
PickledData: "(dp1
S'com.typemytype.robofont.layerData'
p2
(dp3
S'b'
(dp4
S'name'
p5
S'colon'
p6
sS'lib'
p7
(dp8
sS'unicodes'
p9
(tsS'width'
p10
I453
sS'contours'
p11
(tsS'components'
p12
(tsS'anchors'
p13
(tsss."
LayerCount: 2
Fore
SplineSet
194 272 m 257
 267 272 l 257
 267 355 l 257
 194 355 l 257
 194 272 l 257
194 729 m 257
 267 729 l 257
 267 813 l 257
 194 813 l 257
 194 729 l 257
EndSplineSet
EndChar

StartChar: comma
Encoding: 44 44 224
Width: 374
VWidth: 0
GlyphClass: 2
Flags: W
PickledData: "(dp1
S'com.typemytype.robofont.layerData'
p2
(dp3
S'b'
(dp4
S'name'
p5
S'comma'
p6
sS'lib'
p7
(dp8
sS'unicodes'
p9
(tsS'width'
p10
I374
sS'contours'
p11
(tsS'components'
p12
(tsS'anchors'
p13
(tsss."
LayerCount: 2
Fore
SplineSet
171 -157 m 257
 253 -157 263 -85 263 -6 c 258
 264 96 l 257
 181 97 l 257
 181 0 l 257
 230 0 l 257
 230 -112 221 -133 171 -139 c 257
 171 -157 l 257
EndSplineSet
EndChar

StartChar: commaaccent
Encoding: 806 806 225
Width: 418
VWidth: 0
GlyphClass: 4
Flags: W
PickledData: "(dp1
S'com.typemytype.robofont.layerData'
p2
(dp3
S'b'
(dp4
S'name'
p5
S'uni0326'
p6
sS'lib'
p7
(dp8
sS'unicodes'
p9
(tsS'width'
p10
I418
sS'contours'
p11
(tsS'components'
p12
(tsS'anchors'
p13
(tsss."
AnchorPoint: "bot" 249 0 mark 0
LayerCount: 2
Fore
SplineSet
188 -392 m 257
 279 -393 285 -312 285 -230 c 258
 285 -132 l 257
 203 -132 l 257
 203 -215 l 257
 251 -215 l 257
 251 -300 254 -370 188 -373 c 257
 188 -392 l 257
EndSplineSet
EndChar

StartChar: commaturnedabovecomb
Encoding: 786 786 226
Width: 600
VWidth: 0
GlyphClass: 4
Flags: W
AnchorPoint: "top" 294 804 mark 0
LayerCount: 2
Fore
SplineSet
330 932 m 257
 330 1029 l 257
 281 1029 l 257
 281 1141 290 1162 340 1168 c 257
 340 1186 l 257
 258 1186 248 1114 248 1035 c 258
 247 933 l 257
 330 932 l 257
EndSplineSet
EndChar

StartChar: copyright
Encoding: 169 169 227
Width: 1512
VWidth: 0
GlyphClass: 2
Flags: W
PickledData: "(dp1
S'com.typemytype.robofont.layerData'
p2
(dp3
S'b'
(dp4
S'name'
p5
S'copyright'
p6
sS'lib'
p7
(dp8
sS'unicodes'
p9
(tsS'width'
p10
I1512
sS'contours'
p11
(tsS'components'
p12
(tsS'anchors'
p13
(tsss."
LayerCount: 2
Fore
SplineSet
757 154 m 256
 882 154 1002 200 1090 290 c 257
 1091 333 l 257
 995 237 893 189 761 188 c 256
 561 187 387 344 387 579 c 256
 387 858 601 968 770 968 c 256
 937 968 1036 888 1047 754 c 257
 1085 754 l 257
 1085 980 l 257
 1050 980 l 257
 1048 870 l 257
 995 966 890 1002 769 1002 c 256
 585 1002 345 883 345 581 c 256
 345 322 536 154 757 154 c 256
756 -48 m 256
 1113 -48 1397 224 1397 577 c 256
 1397 929 1113 1201 756 1201 c 256
 399 1201 115 929 115 577 c 256
 115 224 399 -48 756 -48 c 256
756 -14 m 256
 423 -14 159 243 159 577 c 256
 159 910 423 1167 756 1167 c 256
 1089 1167 1353 910 1353 577 c 256
 1353 246 1089 -14 756 -14 c 256
EndSplineSet
EndChar

StartChar: currency
Encoding: 164 164 228
Width: 1124
VWidth: 0
GlyphClass: 2
Flags: W
PickledData: "(dp1
S'com.typemytype.robofont.layerData'
p2
(dp3
S'b'
(dp4
S'name'
p5
S'currency'
p6
sS'lib'
p7
(dp8
sS'unicodes'
p9
(tsS'width'
p10
I1124
sS'contours'
p11
(tsS'components'
p12
(tsS'anchors'
p13
(tsss."
LayerCount: 2
Fore
SplineSet
925 605 m 257
 970 648 l 257
 857 758 l 257
 924 855 958 957 958 1055 c 256
 958 1154 924 1256 856 1348 c 257
 970 1459 l 257
 925 1501 l 257
 824 1388 l 257
 727 1439 639 1466 555 1466 c 256
 476 1466 394 1441 308 1390 c 257
 206 1500 l 257
 154 1459 l 257
 265 1350 l 257
 192 1263 156 1151 156 1046 c 256
 156 941 192 835 264 756 c 257
 154 648 l 257
 206 606 l 257
 307 716 l 257
 396 664 480 640 560 640 c 256
 646 640 733 666 825 718 c 257
 925 605 l 257
557 687 m 256
 387 687 201 805 201 1054 c 256
 201 1302 389 1420 558 1420 c 256
 728 1420 921 1308 921 1054 c 256
 921 800 730 687 557 687 c 256
EndSplineSet
EndChar

StartChar: d
Encoding: 100 100 229
Width: 1011
VWidth: 0
GlyphClass: 2
Flags: HW
PickledData: "(dp1
S'com.typemytype.robofont.layerData'
p2
(dp3
S'b'
(dp4
S'name'
p5
S'd'
sS'lib'
p6
(dp7
sS'unicodes'
p8
(tsS'width'
p9
I1011
sS'contours'
p10
(tsS'components'
p11
(tsS'anchors'
p12
(tsss."
AnchorPoint: "caron.alt" 816 804 basechar 0
AnchorPoint: "top" 479 804 basechar 0
LayerCount: 2
Fore
SplineSet
62.9599910868 403.683128152 m 0
 62.9599910868 154.084048906 241.212717088 -22 490 -22 c 0
 594.149652647 -22 713.062912298 24.7514221813 794 93.741411537 c 1
 794 0 l 1
 977 0 l 1
 977 34 l 1
 838 34 l 1
 838 1174 l 1
 662 1174 l 1
 662 1140 l 1
 794 1140 l 1
 794 709.563838881 l 1
 706.809195002 778.591207809 577.087265538 826 464 826 c 0
 228.117834351 826 62.9599910868 651.153758551 62.9599910868 403.683128152 c 0
794 131.8332388 m 1
 710.822450447 60.6910879318 591.745862117 12 490 12 c 0
 265 12 105 172 105 397 c 0
 105 628 254 792 464 792 c 0
 575.554798082 792 704.667640538 745.178548334 794 676.000083345 c 1
 794 131.8332388 l 1
EndSplineSet
EndChar

StartChar: dagger
Encoding: 8224 8224 230
Width: 364
VWidth: 0
GlyphClass: 2
Flags: W
PickledData: "(dp1
S'com.typemytype.robofont.layerData'
p2
(dp3
S'b'
(dp4
S'name'
p5
S'dagger'
p6
sS'lib'
p7
(dp8
sS'unicodes'
p9
(tsS'width'
p10
I364
sS'contours'
p11
(tsS'components'
p12
(tsS'anchors'
p13
(tsss."
LayerCount: 2
Fore
SplineSet
172 94 m 257
 194 94 l 257
 194 267 220 384 199 521 c 257
 199 652 222 693 194 840 c 257
 374 828 l 257
 374 869 l 257
 194 865 l 257
 217 1072 l 257
 148 1072 l 257
 172 865 l 257
 -12 869 l 257
 -12 828 l 257
 172 840 l 257
 144 690 166 649 166 517 c 257
 146 383 172 271 172 94 c 257
EndSplineSet
EndChar

StartChar: daggerdbl
Encoding: 8225 8225 231
Width: 486
VWidth: 0
GlyphClass: 2
Flags: W
PickledData: "(dp1
S'com.typemytype.robofont.layerData'
p2
(dp3
S'b'
(dp4
S'name'
p5
S'daggerdbl'
p6
sS'lib'
p7
(dp8
sS'unicodes'
p9
(tsS'width'
p10
I486
sS'contours'
p11
(tsS'components'
p12
(tsS'anchors'
p13
(tsss."
LayerCount: 2
Fore
SplineSet
202 17 m 257
 286 17 l 257
 260 308 l 257
 472 295 l 257
 472 351 l 257
 256 331 l 257
 266 391 275 459 275 603 c 256
 275 750 266 828 256 891 c 257
 472 871 l 257
 472 927 l 257
 260 914 l 257
 286 1205 l 257
 202 1205 l 257
 229 914 l 257
 13 927 l 257
 13 871 l 257
 233 891 l 257
 221 829 214 755 214 610 c 256
 214 465 221 392 233 331 c 257
 13 351 l 257
 13 295 l 257
 229 308 l 257
 202 17 l 257
EndSplineSet
EndChar

StartChar: dblgravecomb
Encoding: 783 783 232
Width: 643
VWidth: 0
GlyphClass: 4
Flags: W
PickledData: "(dp1
S'com.typemytype.robofont.layerData'
p2
(dp3
S'b'
(dp4
S'name'
p5
S'uni030F'
p6
sS'lib'
p7
(dp8
sS'unicodes'
p9
(tsS'width'
p10
I643
sS'contours'
p11
(tsS'components'
p12
(tsS'anchors'
p13
(tsss."
AnchorPoint: "top" 323 804 mark 0
LayerCount: 2
Fore
SplineSet
206 991 m 257
 227 991 l 257
 120 1286 l 257
 78 1286 l 257
 206 991 l 257
386 991 m 257
 407 991 l 257
 300 1286 l 257
 258 1286 l 257
 386 991 l 257
EndSplineSet
EndChar

StartChar: degree
Encoding: 176 176 236
Width: 922
VWidth: 0
GlyphClass: 2
Flags: W
PickledData: "(dp1
S'com.typemytype.robofont.layerData'
p2
(dp3
S'b'
(dp4
S'name'
p5
S'degree'
p6
sS'lib'
p7
(dp8
sS'unicodes'
p9
(tsS'width'
p10
I922
sS'contours'
p11
(tsS'components'
p12
(tsS'anchors'
p13
(tsss."
LayerCount: 2
Fore
SplineSet
462 783 m 256
 349 783 265 860 265 965 c 257
 266 1069 349 1147 461 1147 c 256
 574 1147 658 1070 658 966 c 256
 658 861 574 783 462 783 c 256
461 739 m 256
 604 739 711 836 711 965 c 256
 711 1095 604 1192 461 1192 c 256
 319 1192 212 1095 212 965 c 256
 212 836 319 739 461 739 c 256
EndSplineSet
EndChar

StartChar: dieresis
Encoding: 168 168 237
Width: 295
VWidth: 0
GlyphClass: 4
Flags: W
PickledData: "(dp1
S'com.typemytype.robofont.layerData'
p2
(dp3
S'b'
(dp4
S'name'
p5
S'dieresis'
p6
sS'lib'
p7
(dp8
sS'unicodes'
p9
(tsS'width'
p10
I295
sS'contours'
p11
(tsS'components'
p12
(tsS'anchors'
p13
(tsss."
AnchorPoint: "top" 157 804 mark 0
LayerCount: 2
Fore
SplineSet
-11 947 m 256
 13 947 27 960 27 983 c 256
 27 1006 13 1019 -11 1019 c 256
 -34 1019 -48 1006 -48 983 c 256
 -48 960 -34 947 -11 947 c 256
299 946 m 256
 323 946 337 959 338 982 c 256
 338 1005 324 1019 299 1019 c 256
 276 1019 263 1005 263 982 c 256
 263 959 276 946 299 946 c 256
EndSplineSet
EndChar

StartChar: divide
Encoding: 247 247 238
Width: 712
VWidth: 0
GlyphClass: 2
Flags: W
PickledData: "(dp1
S'com.typemytype.robofont.layerData'
p2
(dp3
S'b'
(dp4
S'name'
p5
S'divide'
p6
sS'lib'
p7
(dp8
sS'unicodes'
p9
(tsS'width'
p10
I339
sS'contours'
p11
(tsS'components'
p12
(tsS'anchors'
p13
(tsss."
LayerCount: 2
Fore
SplineSet
327 270 m 257
 388 270 l 257
 388 376 l 257
 327 376 l 257
 327 270 l 257
128 492 m 257
 584 492 l 257
 584 528 l 257
 128 528 l 257
 128 492 l 257
327 630 m 257
 388 630 l 257
 388 737 l 257
 327 737 l 257
 327 630 l 257
EndSplineSet
EndChar

StartChar: dollar
Encoding: 36 36 239
Width: 1143
VWidth: 0
GlyphClass: 2
Flags: W
LayerCount: 2
Fore
SplineSet
586 -181 m 257
 619 -181 l 257
 619 1325 l 257
 586 1325 l 257
 586 -181 l 257
EndSplineSet
Refer: 127 83 N 1 0 0 1 0 0 2
EndChar

StartChar: dotaboverightcomb
Encoding: 856 856 240
Width: 600
VWidth: 0
GlyphClass: 4
Flags: W
AnchorPoint: "top" 251 804 mark 0
LayerCount: 2
Fore
SplineSet
251 1019 m 256
 279 1019 298 1036 298 1061 c 256
 298 1085 279 1102 251 1102 c 256
 225 1102 207 1085 207 1061 c 256
 207 1036 225 1019 251 1019 c 256
EndSplineSet
EndChar

StartChar: dotaccent
Encoding: 729 729 241
Width: 496
VWidth: 0
GlyphClass: 4
Flags: W
AnchorPoint: "top" 251 804 mark 0
LayerCount: 2
Fore
SplineSet
251 1019 m 256
 279 1019 298 1036 298 1061 c 256
 298 1085 279 1102 251 1102 c 256
 225 1102 207 1085 207 1061 c 256
 207 1036 225 1019 251 1019 c 256
EndSplineSet
EndChar

StartChar: dotlessj
Encoding: 567 567 245
Width: 398
VWidth: 0
GlyphClass: 2
Flags: W
PickledData: "(dp1
S'com.typemytype.robofont.layerData'
p2
(dp3
S'b'
(dp4
S'name'
p5
S'uni0237'
p6
sS'lib'
p7
(dp8
sS'unicodes'
p9
(tsS'width'
p10
I398
sS'contours'
p11
(tsS'components'
p12
(tsS'anchors'
p13
(tsss."
AnchorPoint: "top" 228 805 basechar 0
LayerCount: 2
Fore
SplineSet
23 -240 m 257
 95 -240 l 258
 293 -240 268 -101 268 -34 c 258
 268 805 l 257
 64 805 l 257
 64 774 l 257
 221 774 l 257
 221 -39 l 258
 221 -152 228 -208 85 -208 c 258
 23 -208 l 257
 23 -240 l 257
EndSplineSet
EndChar

StartChar: e
Encoding: 101 101 248
Width: 975
VWidth: 0
GlyphClass: 2
Flags: HW
PickledData: "(dp1
S'com.typemytype.robofont.layerData'
p2
(dp3
S'b'
(dp4
S'name'
p5
S'e'
sS'lib'
p6
(dp7
sS'unicodes'
p8
(tsS'width'
p9
I975
sS'contours'
p10
((dp11
S'points'
p12
((dp13
S'segmentType'
p14
S'line'
p15
sS'x'
I171
sS'smooth'
p16
I0
sS'y'
I442
s(dp17
S'y'
I592
sS'x'
I182
sg16
I0
s(dp18
S'y'
I755
sS'x'
I296
sg16
I0
s(dp19
g14
S'curve'
p20
sS'x'
I507
sg16
I1
sS'y'
I755
s(dp21
S'y'
I755
sS'x'
I699
sg16
I0
s(dp22
S'y'
I616
sS'x'
I803
sg16
I0
s(dp23
g14
S'curve'
p24
sS'x'
I820
sg16
I0
sS'y'
I442
stp25
s(dp26
g12
((dp27
g14
S'line'
p28
sS'x'
I890
sg16
I0
sS'y'
I383
s(dp29
S'y'
I601
sS'x'
I889
sg16
I0
s(dp30
S'y'
I819
sS'x'
F778.76831688899995
sg16
I0
s(dp31
g14
S'curve'
p32
sS'x'
I502
sg16
I1
sS'y'
I819
s(dp33
S'y'
I819
sS'x'
I232
sg16
I0
s(dp34
S'y'
I618
sS'x'
I90
sg16
I0
s(dp35
g14
S'curve'
p36
sS'x'
I90
sg16
I1
sS'y'
I403
s(dp37
S'y'
I150
sS'x'
I90
sg16
I0
s(dp38
S'y'
S'-14'
p39
sS'x'
I284
sg16
I0
s(dp40
g14
S'curve'
p41
sS'x'
I511
sg16
I1
sS'y'
S'-14'
p42
s(dp43
S'y'
S'-14'
p44
sS'x'
I657
sg16
I0
s(dp45
S'y'
I34
sS'x'
I761
sg16
I0
s(dp46
g14
S'curve'
p47
sS'x'
I868
sg16
I0
sS'y'
I139
s(dp48
g14
S'line'
p49
sS'x'
I836
sg16
I0
sS'y'
I197
s(dp50
S'y'
I103
sS'x'
I747
sg16
I0
s(dp51
S'y'
I50
sS'x'
I652
sg16
I0
s(dp52
g14
S'curve'
p53
sS'x'
I515
sg16
I1
sS'y'
I50
s(dp54
S'y'
I50
sS'x'
I347
sg16
I0
s(dp55
S'y'
I162
sS'x'
I182
sg16
I0
s(dp56
g14
S'curve'
p57
sS'x'
I169
sg16
I0
sS'y'
I383
stp58
stp59
sS'components'
p60
(tsS'anchors'
p61
(tsss."
AnchorPoint: "top" 488 804 basechar 0
AnchorPoint: "bot" 502 0 basechar 0
LayerCount: 2
Fore
SplineSet
485 -22 m 0
 604 -22 735 25 840 129 c 1
 827 166 l 1
 758 81 614 12 485 12 c 0
 305 12 118 140 107 390 c 1
 860 390 l 1
 852 718 642 826 466 826 c 0
 269 826 63 687 63 403 c 0
 63 133 269 -22 485 -22 c 0
106 424 m 1
 113 649 273 792 466 792 c 0
 638 792 796 678 820 424 c 1
 106 424 l 1
EndSplineSet
EndChar

StartChar: eight
Encoding: 56 56 258
Width: 964
VWidth: 0
GlyphClass: 2
Flags: W
PickledData: "(dp1
S'com.typemytype.robofont.layerData'
p2
(dp3
S'b'
(dp4
S'name'
p5
S'eight'
p6
sS'lib'
p7
(dp8
sS'unicodes'
p9
(tsS'width'
p10
I964
sS'contours'
p11
(tsS'components'
p12
(tsS'anchors'
p13
(tsss."
LayerCount: 2
Fore
SplineSet
482 -22 m 256
 709 -22 852 100 852 294 c 256
 852 456 761 573 595 603 c 257
 746 625 814 745 814 887 c 256
 814 1064 686 1175 483 1174 c 256
 280 1175 152 1064 152 887 c 256
 152 750 210 662 361 615 c 257
 190 592 112 455 112 294 c 256
 112 100 255 -22 482 -22 c 256
482 14 m 256
 281 14 154 122 154 294 c 256
 154 473 232 571 406 597 c 257
 717 584 810 473 810 294 c 256
 810 122 683 14 482 14 c 256
576 621 m 257
 292 630 194 723 194 887 c 256
 194 1041 305 1138 483 1138 c 256
 661 1138 772 1041 772 887 c 256
 772 714 704 658 576 621 c 257
EndSplineSet
EndChar

StartChar: emdash
Encoding: 8212 8212 262
Width: 849
VWidth: 0
GlyphClass: 2
Flags: W
PickledData: "(dp1
S'com.typemytype.robofont.layerData'
p2
(dp3
S'b'
(dp4
S'name'
p5
S'emdash'
p6
sS'lib'
p7
(dp8
sS'unicodes'
p9
(tsS'width'
p10
I1309
sS'contours'
p11
(tsS'components'
p12
(tsS'anchors'
p13
(tsss."
LayerCount: 2
Fore
SplineSet
0 454 m 257
 849 454 l 257
 849 491 l 257
 0 491 l 257
 0 454 l 257
EndSplineSet
EndChar

StartChar: emptyset
Encoding: 8709 8709 263
Width: 1347
VWidth: 0
GlyphClass: 2
Flags: W
LayerCount: 2
Fore
SplineSet
230 -42.0001 m 257
 341.765 89.7186 l 257
 433.713 19.6286 548.514 -22.0001 673 -22.0001 c 256
 975 -22.0001 1221 223 1221 525 c 256
 1221 681.634 1154.82 823.203 1048.98 923.2 c 257
 1171 1067 l 257
 1145 1092 l 257
 1022.02 947.063 l 257
 927.139 1025.68 805.456 1073 673 1073 c 256
 371 1073 126 827 126 525 c 256
 126 360.42 198.762 212.768 313.859 112.473 c 257
 204 -17.0001 l 257
 230 -42.0001 l 257
339.25 142.397 m 257
 232.543 235.609 165 372.602 165 525 c 256
 165 805 393 1034 673 1034 c 256
 795.65 1034 908.513 990.06 996.631 917.142 c 257
 339.25 142.397 l 257
673 16.9998 m 256
 558.303 16.9998 452.333 55.2579 367.184 119.676 c 257
 1023.55 893.23 l 257
 1121.03 800.365 1182 669.471 1182 525 c 256
 1182 245 953 16.9998 673 16.9998 c 256
EndSplineSet
EndChar

StartChar: endash
Encoding: 8211 8211 264
Width: 653
VWidth: 0
GlyphClass: 2
Flags: W
PickledData: "(dp1
S'com.typemytype.robofont.layerData'
p2
(dp3
S'b'
(dp4
S'name'
p5
S'endash'
p6
sS'lib'
p7
(dp8
sS'unicodes'
p9
(tsS'width'
p10
I1113
sS'contours'
p11
(tsS'components'
p12
(tsS'anchors'
p13
(tsss."
LayerCount: 2
Fore
SplineSet
0 453 m 257
 653 453 l 257
 653 490 l 257
 0 490 l 257
 0 453 l 257
EndSplineSet
EndChar

StartChar: eng
Encoding: 331 331 265
Width: 1010
VWidth: 0
GlyphClass: 2
Flags: W
LayerCount: 2
Fore
SplineSet
479 -374 m 257
 712 -374 850 -261 850 -17 c 258
 850 582 l 258
 850 732 756 826 607 826 c 256
 509 826 363 775 230 694 c 257
 230 661 l 257
 382 743 525 790 602 790 c 256
 727 790 806 719 806 605 c 258
 806 -31 l 258
 806 -220 703 -340 482 -340 c 257
 479 -374 l 257
EndSplineSet
Refer: 346 -1 N 1 0 0 1 -59 0 2
EndChar

StartChar: equal
Encoding: 61 61 267
Width: 715
VWidth: 0
GlyphClass: 2
Flags: W
PickledData: "(dp1
S'com.typemytype.robofont.layerData'
p2
(dp3
S'b'
(dp4
S'name'
p5
S'equal'
p6
sS'lib'
p7
(dp8
sS'unicodes'
p9
(tsS'width'
p10
I715
sS'contours'
p11
(tsS'components'
p12
(tsS'anchors'
p13
(tsss."
LayerCount: 2
Fore
SplineSet
178 311 m 257
 539 311 l 257
 539 351 l 257
 178 351 l 257
 178 311 l 257
178 539 m 257
 539 539 l 257
 539 577 l 257
 178 577 l 257
 178 539 l 257
EndSplineSet
EndChar

StartChar: estimated
Encoding: 8494 8494 268
Width: 600
VWidth: 0
GlyphClass: 2
Flags: W
LayerCount: 2
Fore
SplineSet
521 -14 m 256
 669 -14 783 52 868 139 c 257
 840 171 l 257
 772 90 661 30 524 30 c 256
 331 30 194 184 187 393 c 257
 869 393 l 257
 869 642.053 704 819 497 819 c 256
 264 819 106 641 106 403 c 256
 106 165 279 -14 521 -14 c 256
187 430 m 257
 195 634 318 785 501 785 c 256
 671 785 808 633 820 430 c 257
 187 430 l 257
EndSplineSet
EndChar

StartChar: eth
Encoding: 240 240 269
Width: 886
VWidth: 0
GlyphClass: 2
Flags: W
PickledData: "(dp1
S'com.typemytype.robofont.layerData'
p2
(dp3
S'b'
(dp4
S'name'
p5
S'eth'
p6
sS'lib'
p7
(dp8
sS'unicodes'
p9
(tsS'width'
p10
I886
sS'contours'
p11
(tsS'components'
p12
(tsS'anchors'
p13
(tsss."
LayerCount: 2
Fore
SplineSet
433 -23 m 256
 635 -23 817 120 817 395 c 256
 817 804 360 1159 141 1353 c 257
 113 1327 l 257
 296 1171 558 971 687 695 c 257
 608 768 499 808 424 808 c 256
 207 808 38 629 38 437 c 256
 38 210 159 -23 433 -23 c 256
433 18 m 256
 187 18 85 225 85 413 c 256
 85 660 267 770 428 770 c 256
 591 770 773 662 773 406 c 256
 773 220 678 18 433 18 c 256
166 918 m 257
 713 1152 l 257
 692 1187 l 257
 144 955 l 257
 166 918 l 257
EndSplineSet
EndChar

StartChar: exclam
Encoding: 33 33 271
Width: 150
VWidth: 0
GlyphClass: 2
Flags: W
PickledData: "(dp1
S'com.typemytype.robofont.layerData'
p2
(dp3
S'b'
(dp4
S'name'
p5
S'exclam'
p6
sS'lib'
p7
(dp8
sS'unicodes'
p9
(tsS'width'
p10
I150
sS'contours'
p11
(tsS'components'
p12
(tsS'anchors'
p13
(tsss."
LayerCount: 2
Fore
SplineSet
69 321 m 257
 83 321 l 257
 99 730 l 257
 99 1156 l 257
 52 1156 l 257
 52 730 l 257
 69 321 l 257
76 -15 m 256
 104 -15 123 2 123 27 c 256
 123 51 104 68 76 68 c 256
 50 68 32 51 32 27 c 256
 32 2 50 -15 76 -15 c 256
EndSplineSet
EndChar

StartChar: exclamdown
Encoding: 161 161 272
Width: 150
VWidth: 0
GlyphClass: 2
Flags: HW
PickledData: "(dp1
S'com.typemytype.robofont.layerData'
p2
(dp3
S'b'
(dp4
S'name'
p5
S'exclamdown'
p6
sS'lib'
p7
(dp8
sS'unicodes'
p9
(tsS'width'
p10
I180
sS'contours'
p11
(tsS'components'
p12
(tsS'anchors'
p13
(tsss."
LayerCount: 2
Fore
SplineSet
86 519 m 261
 72 519 l 261
 56 110 l 261
 56 -316 l 261
 103 -316 l 261
 103 110 l 261
 86 519 l 261
79 855 m 260
 51 855 32 838 32 813 c 260
 32 789 51 772 79 772 c 260
 105 772 123 789 123 813 c 260
 123 838 105 855 79 855 c 260
EndSplineSet
EndChar

StartChar: f
Encoding: 102 102 273
Width: 671
VWidth: 0
GlyphClass: 2
Flags: HW
PickledData: "(dp1
S'com.typemytype.robofont.layerData'
p2
(dp3
S'b'
(dp4
S'name'
p5
S'f'
sS'lib'
p6
(dp7
sS'unicodes'
p8
(tsS'width'
p9
I671
sS'contours'
p10
(tsS'components'
p11
(tsS'anchors'
p12
(tsss."
AnchorPoint: "top" 379 1074 basechar 0
LayerCount: 2
Fore
SplineSet
114 0 m 1
 504 0 l 1
 504 34 l 1
 312 34 l 1
 312 770 l 1
 550 770 l 1
 550 804 l 1
 312 804 l 1
 312 1036 l 2
 312 1113 358 1155 424 1155 c 0
 489 1155 530 1120 539 1047 c 1
 572 1062 l 1
 564 1142 511 1191 422 1191 c 0
 326 1191 264 1134 264 1036 c 2
 264 804 l 1
 109 804 l 1
 109 770 l 1
 264 770 l 1
 264 34 l 1
 114 34 l 1
 114 0 l 1
EndSplineSet
EndChar

StartChar: ff
Encoding: 65544 -1 278
Width: 1226
VWidth: 0
GlyphClass: 3
Flags: W
PickledData: "(dp1
S'com.typemytype.robofont.layerData'
p2
(dp3
S'b'
(dp4
S'name'
p5
S'ff'
p6
sS'lib'
p7
(dp8
sS'unicodes'
p9
(tsS'width'
p10
I1226
sS'contours'
p11
(tsS'components'
p12
(tsS'anchors'
p13
(tsss."
LayerCount: 2
Fore
SplineSet
668 0 m 257
 1059 0 l 257
 1059 34 l 257
 866 34 l 257
 866 771 l 257
 1105 771 l 257
 1105 805 l 257
 866 805 l 257
 866 1039 l 258
 866 1112 921 1153 967 1153 c 256
 1015 1153 1075 1142 1086 1047 c 257
 1117 1062 l 257
 1105 1165 1033 1191 967 1191 c 256
 904 1191 822 1139 822 1033 c 258
 822 805 l 257
 511 805 l 257
 511 771 l 257
 822 771 l 257
 822 34 l 257
 668 34 l 257
 668 0 l 257
EndSplineSet
Refer: 273 102 N 1 0 0 1 0 0 2
Ligature2: "dligDiscretionaryLigatureslooku subtable" f f
EndChar

StartChar: ffi
Encoding: 65545 -1 279
Width: 1699
VWidth: 0
GlyphClass: 3
Flags: W
PickledData: "(dp1
S'com.typemytype.robofont.layerData'
p2
(dp3
S'b'
(dp4
S'name'
p5
S'ffi'
p6
sS'lib'
p7
(dp8
sS'unicodes'
p9
(tsS'width'
p10
I1699
sS'contours'
p11
(tsS'components'
p12
(tsS'anchors'
p13
(tsss."
LayerCount: 2
Fore
SplineSet
207 0 m 257
 598 0 l 257
 598 34 l 257
 405 34 l 257
 405 770 l 257
 848 770 l 257
 848 804 l 257
 405 804 l 257
 405 1011 l 258
 405 1111 506 1173 667 1173 c 256
 767 1173 896 1132 1001 1067 c 257
 1026 1092 l 257
 914 1163 774 1208 663 1208 c 256
 477 1208 361 1130 361 1005 c 258
 361 804 l 257
 202 804 l 257
 202 770 l 257
 361 770 l 257
 361 34 l 257
 207 34 l 257
 207 0 l 257
EndSplineSet
Refer: 281 64257 N 1 0 0 1 671 0 2
Ligature2: "dligDiscretionaryLigatureslooku subtable" f f i
EndChar

StartChar: ffl
Encoding: 65546 -1 280
Width: 1801
VWidth: 0
GlyphClass: 3
Flags: W
PickledData: "(dp1
S'com.typemytype.robofont.layerData'
p2
(dp3
S'b'
(dp4
S'name'
p5
S'ffl'
p6
sS'lib'
p7
(dp8
sS'unicodes'
p9
(tsS'width'
p10
I1801
sS'contours'
p11
(tsS'components'
p12
(tsS'anchors'
p13
(tsss."
LayerCount: 2
Fore
SplineSet
100 0 m 257
 491 0 l 257
 491 34 l 257
 298 34 l 257
 298 770 l 257
 741 770 l 257
 741 804 l 257
 298 804 l 257
 298 1011 l 258
 298 1111 399 1173 560 1173 c 256
 660 1173 789 1132 894 1067 c 257
 919 1092 l 257
 807 1163 667 1208 556 1208 c 256
 370 1208 254 1130 254 1005 c 258
 254 804 l 257
 95 804 l 257
 95 770 l 257
 254 770 l 257
 254 34 l 257
 100 34 l 257
 100 0 l 257
EndSplineSet
Refer: 284 64258 N 1 0 0 1 578 0 2
Ligature2: "dligDiscretionaryLigatureslooku subtable" f f l
EndChar

StartChar: fi
Encoding: 64257 64257 281
Width: 1044
VWidth: 0
GlyphClass: 3
Flags: W
PickledData: "(dp1
S'com.typemytype.robofont.layerData'
p2
(dp3
S'b'
(dp4
S'name'
p5
S'fi'
p6
sS'lib'
p7
(dp8
sS'unicodes'
p9
(tsS'width'
p10
I1044
sS'contours'
p11
(tsS'components'
p12
(tsS'anchors'
p13
(tsss."
LayerCount: 2
Fore
SplineSet
114 0 m 257
 528 0 l 257
 528 34 l 257
 326 34 l 257
 326 770 l 257
 835 770 l 257
 835 34 l 257
 682 34 l 257
 682 0 l 257
 1036 0 l 257
 1036 34 l 257
 879 34 l 257
 879 804 l 257
 326 804 l 257
 326 952 l 258
 326 1083 449 1166 644 1166 c 256
 708 1166 810 1152 831 1101 c 257
 803 1096 792 1073 792 1052 c 256
 792 1026 816 1009 850 1009 c 256
 883 1009 901 1031 901 1065 c 256
 901 1149 803 1202 648 1202 c 256
 423 1202 282 1105 282 950 c 258
 282 804 l 257
 109 804 l 257
 109 770 l 257
 282 770 l 257
 282 34 l 257
 114 34 l 257
 114 0 l 257
EndSplineSet
Ligature2: "ligaStandardLigatureslookup15 subtable" f i
EndChar

StartChar: five
Encoding: 53 53 282
Width: 964
VWidth: 0
GlyphClass: 2
Flags: W
PickledData: "(dp1
S'com.typemytype.robofont.layerData'
p2
(dp3
S'b'
(dp4
S'name'
p5
S'five'
p6
sS'lib'
p7
(dp8
sS'unicodes'
p9
(tsS'width'
p10
I964
sS'contours'
p11
(tsS'components'
p12
(tsS'anchors'
p13
(tsss."
LayerCount: 2
Fore
SplineSet
473 -22 m 256
 745 -22 896 112 896 352 c 256
 896 594 753 728 495 728 c 256
 369 728 266 684 207 605 c 257
 208 1118 l 257
 783 1118 l 257
 783 920 l 257
 826 920 l 257
 826 1152 l 257
 164 1152 l 257
 164 585 l 257
 210 567 l 257
 283 650 395 692 495 692 c 256
 726 692 854 571 854 352 c 256
 854 135 718 14 473 14 c 256
 336 14 214 80 131 200 c 257
 106 169 l 257
 199 46 330 -22 473 -22 c 256
EndSplineSet
EndChar

StartChar: fj
Encoding: 65547 -1 283
Width: 1044
VWidth: 0
GlyphClass: 3
Flags: W
LayerCount: 2
Fore
SplineSet
634 -240 m 257
 706 -240 l 258
 904 -240 879 -101 879 -34 c 258
 879 804 l 257
 326 804 l 257
 326 952 l 258
 326 1083 449 1166 644 1166 c 256
 708 1166 810 1152 831 1101 c 257
 803 1096 792 1073 792 1052 c 256
 792 1026 816 1009 850 1009 c 256
 883 1009 901 1031 901 1065 c 256
 901 1149 803 1202 648 1202 c 256
 423 1202 282 1105 282 950 c 258
 282 804 l 257
 109 804 l 257
 109 770 l 257
 282 770 l 257
 282 34 l 257
 114 34 l 257
 114 0 l 257
 528 0 l 257
 528 34 l 257
 326 34 l 257
 326 770 l 257
 832 770 l 257
 832 -39 l 258
 832 -152 839 -208 696 -208 c 258
 634 -208 l 257
 634 -240 l 257
EndSplineSet
Ligature2: "dligDiscretionaryLigatureslooku subtable" f j
EndChar

StartChar: fl
Encoding: 64258 64258 284
Width: 1223
VWidth: 0
GlyphClass: 3
Flags: W
PickledData: "(dp1
S'com.typemytype.robofont.layerData'
p2
(dp3
S'b'
(dp4
S'name'
p5
S'fl'
p6
sS'lib'
p7
(dp8
sS'unicodes'
p9
(tsS'width'
p10
I1223
sS'contours'
p11
(tsS'components'
p12
(tsS'anchors'
p13
(tsss."
LayerCount: 2
Fore
SplineSet
114 0 m 257
 528 0 l 257
 528 34 l 257
 326 34 l 257
 326 770 l 257
 545 770 l 257
 545 804 l 257
 326 804 l 257
 326 967 l 258
 326 1113 450 1204 648 1204 c 256
 788 1204 876 1174 876 1127 c 258
 876 34 l 257
 876 0 l 257
 1127 0 l 257
 1127 34 l 257
 920 34 l 257
 920 1120 l 258
 920 1194 815 1240 648 1240 c 256
 423 1240 282 1132 282 959 c 258
 282 804 l 257
 109 804 l 257
 109 770 l 257
 282 770 l 257
 282 34 l 257
 114 34 l 257
 114 0 l 257
EndSplineSet
Ligature2: "ligaStandardLigatureslookup15 subtable" f l
EndChar

StartChar: florin
Encoding: 402 402 285
Width: 707
VWidth: 0
GlyphClass: 2
Flags: W
LayerCount: 2
Fore
SplineSet
414 1034 m 258
 370 804 l 257
 195 804 l 257
 190 773 l 257
 365 773 l 257
 233 60 l 258
 213 -46 173 -58 82 -58 c 257
 84 -86 l 257
 176 -86 247 -86 274 60 c 258
 408 773 l 257
 627 773 l 257
 631 804 l 257
 412 804 l 257
 456 1030 l 258
 478 1142 525 1172 587 1168 c 256
 636 1165 657 1129 662 1077 c 257
 692 1077 699 1099 699 1115 c 256
 699 1162 640 1192 590 1194 c 256
 501 1198 437 1156 414 1034 c 258
EndSplineSet
EndChar

StartChar: foundryicon
Encoding: 65548 -1 286
Width: 1347
VWidth: 0
GlyphClass: 2
Flags: W
PickledData: "(dp1
S'com.typemytype.robofont.layerData'
p2
(dp3
S'b'
(dp4
S'name'
p5
S'foundryicon'
p6
sS'lib'
p7
(dp8
sS'unicodes'
p9
(tsS'width'
p10
I313
sS'contours'
p11
(tsS'components'
p12
(tsS'anchors'
p13
(tsss."
LayerCount: 2
Fore
SplineSet
485 405 m 257
 485 672 l 257
 591 672 l 257
 761 523 l 257
 761 672 l 257
 867 672 l 257
 867 405 l 257
 761 405 l 257
 591 552 l 257
 591 405 l 257
 485 405 l 257
280 2 m 257
 669 278 l 257
 1066 2 l 257
 922 461 l 257
 1313 755 l 257
 828 755 l 257
 669 1215 l 257
 519 755 l 257
 34 755 l 257
 423 461 l 257
 280 2 l 257
EndSplineSet
EndChar

StartChar: four
Encoding: 52 52 287
Width: 964
VWidth: 0
GlyphClass: 2
Flags: W
PickledData: "(dp1
S'com.typemytype.robofont.layerData'
p2
(dp3
S'b'
(dp4
S'name'
p5
S'four'
p6
sS'lib'
p7
(dp8
sS'unicodes'
p9
(tsS'width'
p10
I964
sS'contours'
p11
(tsS'components'
p12
(tsS'anchors'
p13
(tsss."
LayerCount: 2
Fore
SplineSet
450 0 m 257
 782 0 l 257
 782 34 l 257
 637 34 l 257
 637 370 l 257
 857 370 l 257
 857 404 l 257
 637 404 l 257
 637 1152 l 257
 582 1152 l 257
 113 408 l 257
 122 370 l 257
 593 370 l 257
 593 34 l 257
 450 34 l 257
 450 0 l 257
159 404 m 257
 593 1102 l 257
 593 404 l 257
 159 404 l 257
EndSplineSet
Substitution2: "supsSuperscriptlookup10 subtable" foursuperior
EndChar

StartChar: foursuperior
Encoding: 8308 8308 288
Width: 718
VWidth: 0
GlyphClass: 2
Flags: W
PickledData: "(dp1
S'com.typemytype.robofont.layerData'
p2
(dp3
S'b'
(dp4
S'name'
p5
S'uni2074'
p6
sS'lib'
p7
(dp8
sS'unicodes'
p9
(tsS'width'
p10
I718
sS'contours'
p11
(tsS'components'
p12
(tsS'anchors'
p13
(tsss."
LayerCount: 2
Fore
SplineSet
307 550 m 257
 592 550 l 257
 592 584 l 257
 467 584 l 257
 467 782 l 257
 664 782 l 257
 664 816 l 257
 467 816 l 257
 467 1321 l 257
 418 1321 l 257
 45 812 l 257
 57 782 l 257
 429 782 l 257
 429 584 l 257
 307 584 l 257
 307 550 l 257
96 816 m 257
 429 1275 l 257
 429 816 l 257
 96 816 l 257
EndSplineSet
EndChar

StartChar: fraction
Encoding: 8260 8260 289
Width: 337
VWidth: 0
GlyphClass: 2
Flags: W
PickledData: "(dp1
S'com.typemytype.robofont.layerData'
p2
(dp3
S'b'
(dp4
S'name'
p5
S'fraction'
p6
sS'lib'
p7
(dp8
sS'unicodes'
p9
(tsS'width'
p10
I337
sS'contours'
p11
(tsS'components'
p12
(tsS'anchors'
p13
(tsss."
LayerCount: 2
Fore
SplineSet
-35 -25 m 257
 19 -25 l 257
 360 1289 l 257
 312 1289 l 257
 -35 -25 l 257
EndSplineSet
EndChar

StartChar: g
Encoding: 103 103 290
Width: 1013
VWidth: 0
GlyphClass: 2
Flags: HW
PickledData: "(dp1
S'com.typemytype.robofont.layerData'
p2
(dp3
S'b'
(dp4
S'name'
p5
S'g'
sS'lib'
p6
(dp7
sS'unicodes'
p8
(tsS'width'
p9
I1013
sS'contours'
p10
((dp11
S'points'
p12
((dp13
S'segmentType'
p14
S'curve'
p15
sS'x'
I510
sS'smooth'
p16
I1
sS'y'
S'-333'
p17
s(dp18
S'y'
S'-333'
p19
sS'x'
I722
sg16
I0
s(dp20
S'y'
S'-225'
p21
sS'x'
I880
sg16
I0
s(dp22
g14
S'curve'
p23
sS'x'
I880
sg16
I0
sS'y'
I15
s(dp24
g14
S'line'
p25
sS'x'
I880
sg16
I0
sS'y'
I735
s(dp26
g14
S'line'
p27
sS'x'
I1005
sg16
I0
sS'y'
I735
s(dp28
g14
S'line'
p29
sS'x'
I1005
sg16
I0
sS'y'
I789
s(dp30
g14
S'line'
p31
sS'x'
I804
sg16
I0
sS'y'
I789
s(dp32
g14
S'line'
p33
sS'x'
I804
sg16
I0
sS'y'
I673
s(dp34
S'y'
I673
sS'x'
I804
sg16
I0
s(dp35
S'y'
S'-2'
p36
sS'x'
I804
sg16
I0
s(dp37
g14
S'curve'
p38
sS'x'
I804
sg16
I1
sS'y'
S'-2'
p39
s(dp40
S'y'
S'-173'
p41
sS'x'
I804
sg16
I0
s(dp42
S'y'
S'-271'
p43
sS'x'
I695
sg16
I0
s(dp44
g14
S'curve'
p45
sS'x'
I515
sg16
I1
sS'y'
S'-271'
p46
s(dp47
S'y'
S'-271'
p48
sS'x'
I444
sg16
I0
s(dp49
S'y'
S'-255'
p50
sS'x'
I362
sg16
I0
s(dp51
g14
S'curve'
p52
sS'x'
I272
sg16
I0
sS'y'
S'-224'
p53
s(dp54
g14
S'line'
p55
sS'x'
I257
sg16
I0
sS'y'
S'-289'
p56
s(dp57
S'y'
S'-318'
p58
sS'x'
I345
sg16
I0
s(dp59
S'y'
S'-333'
p60
sS'x'
I431
sg16
I0
stp61
stp62
sS'components'
p63
(tsS'anchors'
p64
(tsss."
AnchorPoint: "top" 486 804 basechar 0
LayerCount: 2
Fore
SplineSet
62.9599910868 410.609048405 m 0
 62.9599910868 165.926454137 241.253902892 -6.5595703125 490 -6.5595703125 c 0
 598.526980052 -6.5595703125 723.084651763 43.1884528471 804 115.504813095 c 1
 804 -31 l 2
 804 -220 701 -340 480 -340 c 0
 405 -340 314 -326 200 -294 c 1
 193 -328 l 1
 298 -355 394 -374 477 -374 c 0
 710 -374 848 -261 848 -17 c 2
 848 770 l 1
 984 770 l 1
 984 804 l 1
 804 804 l 1
 804 702.365594076 l 1
 716.948921926 774.32638054 581.495983956 824.48046875 464 824.48046875 c 0
 228.117834351 824.48046875 62.9599910868 653.130730055 62.9599910868 410.609048405 c 0
804 669.664578269 m 1
 804 152.84003826 l 1
 720.56990214 78.451281771 595.897922601 26.759765625 490 26.759765625 c 0
 265 26.759765625 105 183.559570312 105 404.059570312 c 0
 105 630.440429688 254 791.16015625 464 791.16015625 c 0
 579.790252094 791.16015625 714.49712822 741.724817676 804 669.664578269 c 1
EndSplineSet
EndChar

StartChar: germandbls
Encoding: 223 223 297
Width: 1198
VWidth: 0
GlyphClass: 2
Flags: W
PickledData: "(dp1
S'com.typemytype.robofont.layerData'
p2
(dp3
S'b'
(dp4
S'name'
p5
S'germandbls'
p6
sS'lib'
p7
(dp8
sS'unicodes'
p9
(tsS'width'
p10
I1198
sS'contours'
p11
(tsS'components'
p12
(tsS'anchors'
p13
(tsss."
LayerCount: 2
Fore
SplineSet
110 0 m 257
 431 0 l 257
 431 40 l 257
 309 40 l 257
 309 882 l 258
 309 1096 400 1230 602 1230 c 256
 806 1230 900 1136 900 987 c 256
 900 815 798 705 602 694 c 257
 602 670 l 257
 887 669 1055 550 1055 353 c 256
 1055 149 857 40 575 40 c 257
 575 0 l 257
 901 0 1097 141 1097 353 c 256
 1097 531 987 666 713 687 c 257
 853 716 942 828 942 986 c 256
 942 1171 820 1264 602 1264 c 256
 379 1264 264 1130 264 877 c 258
 264 40 l 257
 110 40 l 257
 110 0 l 257
EndSplineSet
EndChar

StartChar: grave
Encoding: 96 96 298
Width: 137
VWidth: 0
GlyphClass: 4
Flags: W
PickledData: "(dp1
S'com.typemytype.robofont.layerData'
p2
(dp3
S'b'
(dp4
S'name'
p5
S'grave'
p6
sS'lib'
p7
(dp8
sS'unicodes'
p9
(tsS'width'
p10
I50
sS'contours'
p11
(tsS'components'
p12
(tsS'anchors'
p13
(tsss."
AnchorPoint: "top" 133 804 mark 0
LayerCount: 2
Fore
SplineSet
116 991 m 257
 137 991 l 257
 50 1236 l 257
 8 1236 l 257
 116 991 l 257
EndSplineSet
EndChar

StartChar: greater
Encoding: 62 62 299
Width: 896
VWidth: 0
GlyphClass: 2
Flags: HW
PickledData: "(dp1
S'com.typemytype.robofont.layerData'
p2
(dp3
S'b'
(dp4
S'name'
p5
S'greater'
p6
sS'lib'
p7
(dp8
sS'unicodes'
p9
(tsS'width'
p10
I896
sS'contours'
p11
(tsS'components'
p12
(tsS'anchors'
p13
(tsss."
LayerCount: 2
Fore
SplineSet
141 -102 m 261
 945 556 l 257
 945 575 l 257
 141 1241 l 257
 141 1185 l 257
 892 566 l 257
 141 -50 l 257
 141 -102 l 261
EndSplineSet
EndChar

StartChar: greaterequal
Encoding: 8805 8805 300
Width: 595
VWidth: 0
GlyphClass: 2
Flags: W
PickledData: "(dp1
S'com.typemytype.robofont.layerData'
p2
(dp3
S'b'
(dp4
S'name'
p5
S'greaterequal'
p6
sS'lib'
p7
(dp8
sS'unicodes'
p9
(tsS'width'
p10
I595
sS'contours'
p11
(tsS'components'
p12
(tsS'anchors'
p13
(tsss."
LayerCount: 2
Fore
SplineSet
-1 182 m 257
 610 496 l 257
 610 519 l 257
 -1 836 l 257
 -1 793 l 257
 538 507 l 257
 -1 222 l 257
 -1 182 l 257
-1 0 m 257
 610 0 l 257
 610 33 l 257
 -1 33 l 257
 -1 0 l 257
EndSplineSet
EndChar

StartChar: guillemotleft
Encoding: 171 171 303
Width: 744
VWidth: 0
GlyphClass: 2
Flags: W
PickledData: "(dp1
S'com.typemytype.robofont.layerData'
p2
(dp3
S'b'
(dp4
S'name'
p5
S'guillemotleft'
p6
sS'lib'
p7
(dp8
sS'unicodes'
p9
(tsS'width'
p10
I744
sS'contours'
p11
(tsS'components'
p12
(tsS'anchors'
p13
(tsss."
LayerCount: 2
Fore
SplineSet
327 309 m 257
 356 309 l 257
 143 686 l 257
 356 1059 l 257
 327 1059 l 257
 63 686 l 257
 327 309 l 257
560 309 m 257
 589 309 l 257
 374 686 l 257
 589 1059 l 257
 560 1059 l 257
 295 686 l 257
 560 309 l 257
EndSplineSet
EndChar

StartChar: guillemotright
Encoding: 187 187 304
Width: 744
VWidth: 0
GlyphClass: 2
Flags: W
PickledData: "(dp1
S'com.typemytype.robofont.layerData'
p2
(dp3
S'b'
(dp4
S'name'
p5
S'guillemotright'
p6
sS'lib'
p7
(dp8
sS'unicodes'
p9
(tsS'width'
p10
I744
sS'contours'
p11
(tsS'components'
p12
(tsS'anchors'
p13
(tsss."
LayerCount: 2
Fore
SplineSet
155 309 m 257
 184 309 l 257
 448 686 l 257
 184 1059 l 257
 155 1059 l 257
 368 686 l 257
 155 309 l 257
387 309 m 257
 416 309 l 257
 681 686 l 257
 416 1059 l 257
 387 1059 l 257
 601 686 l 257
 387 309 l 257
EndSplineSet
EndChar

StartChar: guilsinglleft
Encoding: 8249 8249 305
Width: 405
VWidth: 0
GlyphClass: 2
Flags: W
PickledData: "(dp1
S'com.typemytype.robofont.layerData'
p2
(dp3
S'b'
(dp4
S'name'
p5
S'guilsinglleft'
p6
sS'lib'
p7
(dp8
sS'unicodes'
p9
(tsS'width'
p10
I405
sS'contours'
p11
(tsS'components'
p12
(tsS'anchors'
p13
(tsss."
LayerCount: 2
Fore
SplineSet
270 309 m 257
 299 309 l 257
 86 686 l 257
 299 1059 l 257
 270 1059 l 257
 7 686 l 257
 270 309 l 257
EndSplineSet
EndChar

StartChar: guilsinglright
Encoding: 8250 8250 306
Width: 405
VWidth: 0
GlyphClass: 2
Flags: W
PickledData: "(dp1
S'com.typemytype.robofont.layerData'
p2
(dp3
S'b'
(dp4
S'name'
p5
S'guilsinglright'
p6
sS'lib'
p7
(dp8
sS'unicodes'
p9
(tsS'width'
p10
I405
sS'contours'
p11
(tsS'components'
p12
(tsS'anchors'
p13
(tsss."
LayerCount: 2
Fore
SplineSet
106 309 m 257
 135 309 l 257
 399 686 l 257
 135 1059 l 257
 106 1059 l 257
 319 686 l 257
 106 309 l 257
EndSplineSet
EndChar

StartChar: h
Encoding: 104 104 307
Width: 965
VWidth: 0
GlyphClass: 2
Flags: HW
PickledData: "(dp1
S'com.typemytype.robofont.layerData'
p2
(dp3
S'b'
(dp4
S'name'
p5
S'h'
sS'lib'
p6
(dp7
sS'unicodes'
p8
(tsS'width'
p9
I965
sS'contours'
p10
(tsS'components'
p11
(tsS'anchors'
p12
(tsss."
AnchorPoint: "top" 499 1005 basechar 0
LayerCount: 2
Fore
SplineSet
25 0 m 1
 368 0 l 1
 368 34 l 1
 218 34 l 1
 218 678.331483148 l 1
 348.324195981 744.924099794 549.666488591 790.681893616 558.146847322 790.681893616 c 1
 558.146847322 790.681893616 558.388712259 790.45744967 557 790 c 1
 682 790 761 719 761 605 c 2
 761 34 l 1
 581 34 l 1
 581 0 l 1
 959 0 l 1
 959 34 l 1
 805 34 l 1
 805 582 l 2
 805 732 711 826 562 826 c 0
 472.048947441 826 341.658785227 783.033445993 218 713.339357969 c 1
 218 1174 l 1
 33 1174 l 1
 33 1140 l 1
 174 1140 l 1
 174 34 l 1
 25 34 l 1
 25 0 l 1
EndSplineSet
EndChar

StartChar: hungarumlaut
Encoding: 733 733 312
Width: 356
VWidth: 0
GlyphClass: 4
Flags: W
PickledData: "(dp1
S'com.typemytype.robofont.layerData'
p2
(dp3
S'b'
(dp4
S'name'
p5
S'hungarumlaut'
p6
sS'lib'
p7
(dp8
sS'unicodes'
p9
(tsS'width'
p10
I356
sS'contours'
p11
(tsS'components'
p12
(tsS'anchors'
p13
(tsss."
AnchorPoint: "top" 134 804 mark 0
LayerCount: 2
Fore
SplineSet
337 1286 m 257
 230 991 l 257
 251 991 l 257
 379 1286 l 257
 337 1286 l 257
157 1286 m 257
 50 991 l 257
 71 991 l 257
 199 1286 l 257
 157 1286 l 257
EndSplineSet
EndChar

StartChar: hyphen
Encoding: 45 45 313
Width: 915
VWidth: 0
GlyphClass: 2
Flags: W
PickledData: "(dp1
S'com.typemytype.robofont.layerData'
p2
(dp3
S'b'
(dp4
S'name'
p5
S'hyphen'
p6
sS'lib'
p7
(dp8
sS'unicodes'
p9
(tsS'width'
p10
I915
sS'contours'
p11
(tsS'components'
p12
(tsS'anchors'
p13
(tsss."
LayerCount: 2
Fore
SplineSet
195 437 m 257
 718 437 l 257
 718 471 l 257
 195 471 l 257
 195 437 l 257
EndSplineSet
EndChar

StartChar: i
Encoding: 105 105 314
Width: 537
VWidth: 0
GlyphClass: 2
Flags: HW
PickledData: "(dp1
S'com.typemytype.robofont.layerData'
p2
(dp3
S'b'
(dp4
S'name'
p5
S'i'
sS'lib'
p6
(dp7
sS'unicodes'
p8
(tsS'width'
p9
I531
sS'contours'
p10
(tsS'components'
p11
(tsS'anchors'
p12
(tsss."
LayerCount: 2
Fore
SplineSet
283 1019 m 0
 311 1019 330 1036 330 1061 c 0
 330 1085 311 1102 283 1102 c 0
 257 1102 239 1085 239 1061 c 0
 239 1036 257 1019 283 1019 c 0
96 0 m 1
 497 0 l 1
 497 34 l 1
 321 34 l 1
 321 290.666666667 321 547.333333333 321 804 c 1
 99 804 l 1
 99 770 l 1
 277 770 l 1
 277 34 l 1
 96 34 l 1
 96 0 l 1
EndSplineSet
Substitution2: "sub_single_locllatn_12 subtable" idotaccent
Substitution2: "sub_single_locllatn_10 subtable" idotaccent
Substitution2: "sub_single_locllatn_8 subtable" idotaccent
Substitution2: "sub_single_locllatn_6 subtable" idotaccent
Substitution2: "sub_single_locllatn_4 subtable" idotaccent
EndChar

StartChar: infinity
Encoding: 8734 8734 326
Width: 1244
VWidth: 0
GlyphClass: 2
Flags: W
PickledData: "(dp1
S'com.typemytype.robofont.layerData'
p2
(dp3
S'b'
(dp4
S'name'
p5
S'infinity'
p6
sS'lib'
p7
(dp8
sS'unicodes'
p9
(tsS'width'
p10
I1244
sS'contours'
p11
(tsS'components'
p12
(tsS'anchors'
p13
(tsss."
LayerCount: 2
Fore
SplineSet
872 278 m 256
 980 278 1107 362 1107 539 c 256
 1107 720 985 802 873 802 c 256
 764 802 679 735 619 624 c 257
 553 754 448 805 376 805 c 256
 227 805 137 680 137 544 c 256
 137 405 209 283 376 283 c 256
 464 283 556 332 628 464 c 257
 695 321 783 278 872 278 c 256
368 315 m 256
 252 315 192 414 192 543 c 256
 192 646 244 772 366 772 c 256
 463 772 543 688 606 544 c 257
 531 383 456 315 368 315 c 256
877 312 m 256
 775 312 711 374 637 539 c 257
 707 690 779 767 876 767 c 256
 982 767 1051 668 1051 541 c 256
 1051 400 979 312 877 312 c 256
EndSplineSet
EndChar

StartChar: integral
Encoding: 8747 8747 327
Width: 600
VWidth: 0
GlyphClass: 2
Flags: W
LayerCount: 2
Fore
SplineSet
64 -83 m 256
 155 -83 191 -23 210 77 c 258
 388 1030 l 258
 408 1140 457 1172 519 1168 c 256
 568 1165 589 1129 594 1077 c 257
 624 1077 631 1099 631 1115 c 256
 631 1162 572 1192 522 1194 c 256
 433 1198 368 1154 346 1034 c 258
 168 81 l 258
 152 -9 131 -57 67 -57 c 256
 18 -57 -3 -18 -8 34 c 257
 -38 34 -45 12 -45 -4 c 256
 -45 -51 14 -83 64 -83 c 256
EndSplineSet
EndChar

StartChar: j
Encoding: 106 106 330
Width: 398
VWidth: 0
GlyphClass: 2
Flags: HW
PickledData: "(dp1
S'com.typemytype.robofont.layerData'
p2
(dp3
S'b'
(dp4
S'name'
p5
S'j'
sS'lib'
p6
(dp7
sS'unicodes'
p8
(tsS'width'
p9
I398
sS'contours'
p10
(tsS'components'
p11
(tsS'anchors'
p12
(tsss."
LayerCount: 2
Fore
SplineSet
228 1020 m 0
 256 1020 275 1037 275 1062 c 0
 275 1086 256 1103 228 1103 c 0
 202 1103 184 1086 184 1062 c 0
 184 1037 202 1020 228 1020 c 0
23 -240 m 1
 95 -240 l 2
 253.080645161 -240 269.016194069 -151.398348075 269.016194069 -81.5749413623 c 0
 269.016194069 -63.9427679501 268 -47.5080645161 268 -34 c 2
 268 805 l 1
 64 805 l 1
 64 774 l 1
 221 774 l 1
 221 -39 l 2
 221 -49.076433121 221.055661487 -58.6996227027 221.055661487 -67.8702778087 c 0
 221.055661487 -161.541969248 215.248407643 -208 85 -208 c 2
 23 -208 l 1
 23 -240 l 1
EndSplineSet
EndChar

StartChar: k
Encoding: 107 107 333
Width: 972
VWidth: 0
GlyphClass: 2
Flags: HW
PickledData: "(dp1
S'com.typemytype.robofont.guides'
p2
((dp3
S'y'
I421
sS'x'
I474
sS'magnetic'
p4
I5
sS'angle'
p5
I0
sS'isGlobal'
p6
I0
stp7
sS'com.typemytype.robofont.layerData'
p8
(dp9
S'b'
(dp10
S'name'
p11
S'k'
sS'lib'
p12
(dp13
sS'unicodes'
p14
(tsS'width'
p15
I927
sS'contours'
p16
(tsS'components'
p17
(tsS'anchors'
p18
(tsss."
AnchorPoint: "top" 551 1004 basechar 0
AnchorPoint: "bot" 531 0 basechar 0
LayerCount: 2
Fore
SplineSet
723 0 m 1
 926 0 l 1
 926 34 l 1
 742 34 l 1
 314 419 l 1
 767 770 l 1
 921 770 l 1
 921 804 l 1
 545 804 l 1
 545 770 l 1
 713 770 l 1
 256 423 l 1
 256 1174 l 1
 71 1174 l 1
 71 1140 l 1
 212 1140 l 1
 212 34 l 1
 63 34 l 1
 63 0 l 1
 406 0 l 1
 406 34 l 1
 256 34 l 1
 256 423 l 1
 723 0 l 1
EndSplineSet
EndChar

StartChar: kgreenlandic
Encoding: 312 312 336
Width: 927
VWidth: 0
GlyphClass: 2
Flags: W
PickledData: "(dp1
S'com.typemytype.robofont.layerData'
p2
(dp3
S'b'
(dp4
S'name'
p5
S'kgreenlandic'
p6
sS'lib'
p7
(dp8
sS'unicodes'
p9
(tsS'width'
p10
I927
sS'contours'
p11
(tsS'components'
p12
(tsS'anchors'
p13
(tsss."
LayerCount: 2
Fore
SplineSet
681 0 m 257
 879 0 l 257
 879 34 l 257
 706 34 l 257
 343 411 l 257
 731 770 l 257
 874 770 l 257
 874 804 l 257
 522 804 l 257
 522 770 l 257
 674 770 l 257
 286 413 l 257
 681 0 l 257
72 0 m 257
 395 0 l 257
 395 34 l 257
 256 34 l 257
 256 804 l 257
 80 804 l 257
 80 770 l 257
 212 770 l 257
 212 34 l 257
 72 34 l 257
 72 0 l 257
EndSplineSet
EndChar

StartChar: l
Encoding: 108 108 337
Width: 445
VWidth: 0
GlyphClass: 2
Flags: HW
PickledData: "(dp1
S'com.typemytype.robofont.layerData'
p2
(dp3
S'b'
(dp4
S'name'
p5
S'l'
sS'lib'
p6
(dp7
sS'unicodes'
p8
(tsS'width'
p9
I563
sS'contours'
p10
(tsS'components'
p11
(tsS'anchors'
p12
(tsss."
AnchorPoint: "bot" 232 0 basechar 0
AnchorPoint: "top" 227 1152 basechar 0
LayerCount: 2
Fore
SplineSet
57 0 m 1
 400 0 l 1
 400 34 l 1
 250 34 l 1
 250 1174 l 1
 65 1174 l 1
 65 1140 l 1
 206 1140 l 1
 206 34 l 1
 57 34 l 1
 57 0 l 1
EndSplineSet
EndChar

StartChar: lc_ascender_stem
Encoding: 65550 -1 339
Width: 1170
VWidth: 0
GlyphClass: 2
Flags: W
PickledData: "(dp1
S'com.schriftgestaltung.Glyphs.Export'
p2
I00
sS'com.typemytype.robofont.layerData'
p3
(dp4
S'b'
(dp5
S'name'
p6
S'lc_descender_stem'
p7
sS'lib'
p8
(dp9
sS'unicodes'
p10
(tsS'width'
p11
I1170
sS'contours'
p12
(tsS'components'
p13
(tsS'anchors'
p14
(tsss."
LayerCount: 2
Fore
SplineSet
83 0 m 257
 426 0 l 257
 426 34 l 257
 276 34 l 257
 276 1174 l 257
 91 1174 l 257
 91 1140 l 257
 232 1140 l 257
 232 34 l 257
 83 34 l 257
 83 0 l 257
EndSplineSet
EndChar

StartChar: lc_ascender_stem_1
Encoding: 65551 -1 340
Width: 1378
VWidth: 0
GlyphClass: 2
Flags: W
PickledData: "(dp1
S'com.schriftgestaltung.Glyphs.Export'
p2
I00
sS'com.typemytype.robofont.layerData'
p3
(dp4
S'b'
(dp5
S'name'
p6
S'lc_ascender_stem_1'
p7
sS'lib'
p8
(dp9
sS'unicodes'
p10
(tsS'width'
p11
I1378
sS'contours'
p12
(tsS'components'
p13
(tsS'anchors'
p14
(tsss."
LayerCount: 2
Fore
SplineSet
94 0 m 257
 278 0 l 257
 278 1174 l 257
 102 1174 l 257
 102 1140 l 257
 234 1140 l 257
 234 34 l 257
 94 34 l 257
 94 0 l 257
EndSplineSet
EndChar

StartChar: lc_ascender_stem_2
Encoding: 65552 -1 341
Width: 1378
VWidth: 0
GlyphClass: 2
Flags: W
PickledData: "(dp1
S'com.schriftgestaltung.Glyphs.Export'
p2
I00
sS'com.typemytype.robofont.layerData'
p3
(dp4
S'b'
(dp5
S'name'
p6
S'lc_descender_stem'
p7
sS'lib'
p8
(dp9
sS'unicodes'
p10
(tsS'width'
p11
I1378
sS'contours'
p12
(tsS'components'
p13
(tsS'anchors'
p14
(tsss."
LayerCount: 2
Fore
SplineSet
232 0 m 257
 415 0 l 257
 415 34 l 257
 276 34 l 257
 276 1174 l 257
 100 1174 l 257
 100 1140 l 257
 232 1140 l 257
 232 0 l 257
EndSplineSet
EndChar

StartChar: lc_bowl_left
Encoding: 65553 -1 342
Width: 1179
VWidth: 0
GlyphClass: 2
Flags: W
PickledData: "(dp1
S'com.schriftgestaltung.Glyphs.Export'
p2
I00
sS'com.typemytype.robofont.layerData'
p3
(dp4
S'b'
(dp5
S'name'
p6
S'lc_bowl_left'
p7
sS'lib'
p8
(dp9
sS'unicodes'
p10
(tsS'width'
p11
I1179
sS'contours'
p12
((dp13
S'points'
p14
((dp15
S'segmentType'
p16
S'line'
p17
sS'x'
I134
sS'smooth'
p18
I0
sS'y'
I121
s(dp19
S'y'
I36
sS'x'
I206
sg18
I0
s(dp20
S'y'
S'-16'
p21
sS'x'
I320
sg18
I0
s(dp22
g16
S'curve'
p23
sS'x'
I464
sg18
I1
sS'y'
S'-16'
p24
s(dp25
S'y'
S'-16'
p26
sS'x'
I739
sg18
I0
s(dp27
S'y'
I185
sS'x'
I886
sg18
I0
s(dp28
g16
S'curve'
p29
sS'x'
I886
sg18
I1
sS'y'
I387
s(dp30
S'y'
I573
sS'x'
I886
sg18
I0
s(dp31
S'y'
I817
sS'x'
I774
sg18
I0
s(dp32
g16
S'curve'
p33
sS'x'
I467
sg18
I1
sS'y'
I817
s(dp34
S'y'
I817
sS'x'
I309
sg18
I0
s(dp35
S'y'
I733
sS'x'
I179
sg18
I0
s(dp36
g16
S'curve'
p37
sS'x'
I134
sg18
I0
sS'y'
I684
s(dp38
g16
S'line'
p39
sS'x'
I134
sg18
I0
sS'y'
I618
s(dp40
S'y'
I725
sS'x'
I273
sg18
I0
s(dp41
S'y'
I753
sS'x'
I353
sg18
I0
s(dp42
g16
S'curve'
p43
sS'x'
I470
sg18
I1
sS'y'
I753
s(dp44
S'y'
I753
sS'x'
I701
sg18
I0
s(dp45
S'y'
I568
sS'x'
I810
sg18
I0
s(dp46
g16
S'curve'
p47
sS'x'
I810
sg18
I1
sS'y'
I395
s(dp48
S'y'
I204
sS'x'
I810
sg18
I0
s(dp49
S'y'
I48
sS'x'
I680
sg18
I0
s(dp50
g16
S'curve'
p51
sS'x'
I468
sg18
I1
sS'y'
I48
s(dp52
S'y'
I48
sS'x'
I346
sg18
I0
s(dp53
S'y'
I62
sS'x'
I263
sg18
I0
s(dp54
g16
S'curve'
p55
sS'x'
I134
sg18
I0
sS'y'
I194
stp56
stp57
sS'components'
p58
(tsS'anchors'
p59
(tsss."
LayerCount: 2
Fore
SplineSet
564 -22 m 256
 679 -22 812 35 892 116 c 257
 892 154 l 257
 809 71 676 12 564 12 c 256
 339 12 179 172 179 397 c 256
 179 628 328 792 538 792 c 256
 660 792 803 736 892 656 c 257
 892 689 l 257
 806 769 662 826 538 826 c 256
 300 826 134 648 137 397 c 256
 140 152 317 -22 564 -22 c 256
EndSplineSet
EndChar

StartChar: lc_bowl_right
Encoding: 65554 -1 343
Width: 1179
VWidth: 0
GlyphClass: 2
Flags: W
PickledData: "(dp1
S'com.schriftgestaltung.Glyphs.Export'
p2
I00
sS'com.typemytype.robofont.layerData'
p3
(dp4
S'b'
(dp5
S'name'
p6
S'lc_bowl_right'
p7
sS'lib'
p8
(dp9
sS'unicodes'
p10
(tsS'width'
p11
I1179
sS'contours'
p12
((dp13
S'points'
p14
((dp15
S'segmentType'
p16
S'line'
p17
sS'x'
I268
sS'smooth'
p18
I0
sS'y'
I121
s(dp19
S'y'
I36
sS'x'
I340
sg18
I0
s(dp20
S'y'
S'-16'
p21
sS'x'
I454
sg18
I0
s(dp22
g16
S'curve'
p23
sS'x'
I598
sg18
I1
sS'y'
S'-16'
p24
s(dp25
S'y'
S'-16'
p26
sS'x'
I873
sg18
I0
s(dp27
S'y'
I185
sS'x'
I1020
sg18
I0
s(dp28
g16
S'curve'
p29
sS'x'
I1020
sg18
I1
sS'y'
I387
s(dp30
S'y'
I573
sS'x'
I1020
sg18
I0
s(dp31
S'y'
I817
sS'x'
I908
sg18
I0
s(dp32
g16
S'curve'
p33
sS'x'
I601
sg18
I1
sS'y'
I817
s(dp34
S'y'
I817
sS'x'
I443
sg18
I0
s(dp35
S'y'
I733
sS'x'
I313
sg18
I0
s(dp36
g16
S'curve'
p37
sS'x'
I268
sg18
I0
sS'y'
I684
s(dp38
g16
S'line'
p39
sS'x'
I268
sg18
I0
sS'y'
I618
s(dp40
S'y'
I725
sS'x'
I407
sg18
I0
s(dp41
S'y'
I753
sS'x'
I487
sg18
I0
s(dp42
g16
S'curve'
p43
sS'x'
I604
sg18
I1
sS'y'
I753
s(dp44
S'y'
I753
sS'x'
I835
sg18
I0
s(dp45
S'y'
I568
sS'x'
I944
sg18
I0
s(dp46
g16
S'curve'
p47
sS'x'
I944
sg18
I1
sS'y'
I395
s(dp48
S'y'
I204
sS'x'
I944
sg18
I0
s(dp49
S'y'
I48
sS'x'
I814
sg18
I0
s(dp50
g16
S'curve'
p51
sS'x'
I602
sg18
I1
sS'y'
I48
s(dp52
S'y'
I48
sS'x'
I480
sg18
I0
s(dp53
S'y'
I62
sS'x'
I397
sg18
I0
s(dp54
g16
S'curve'
p55
sS'x'
I268
sg18
I0
sS'y'
I194
stp56
stp57
sS'components'
p58
(tsS'anchors'
p59
(tsss."
LayerCount: 2
Fore
SplineSet
596 -22 m 256
 856 -22 1021 141 1025 400 c 256
 1030 662 871 826 612 826 c 256
 501 826 371 774 276 692 c 257
 276 655 l 257
 376 739 506 792 612 792 c 256
 840 792 983 641 983 400 c 256
 983 162 834 12 596 12 c 256
 482 12 359 71 276 166 c 257
 276 124 l 257
 357 34 480 -22 596 -22 c 256
EndSplineSet
EndChar

StartChar: lc_descender_stem
Encoding: 65555 -1 344
Width: 1192
VWidth: 0
GlyphClass: 2
Flags: W
PickledData: "(dp1
S'com.schriftgestaltung.Glyphs.Export'
p2
I00
sS'com.typemytype.robofont.layerData'
p3
(dp4
S'b'
(dp5
S'name'
p6
S'lc_descender_stem'
p7
sS'lib'
p8
(dp9
sS'unicodes'
p10
(tsS'width'
p11
I1192
sS'contours'
p12
(tsS'components'
p13
(tsS'anchors'
p14
(tsss."
LayerCount: 2
Fore
SplineSet
103 -316 m 257
 421 -316 l 257
 421 -282 l 257
 287 -282 l 257
 288 682 l 257
 287 804 l 257
 119 804 l 257
 119 770 l 257
 243 770 l 257
 243 -282 l 257
 103 -282 l 257
 103 -316 l 257
EndSplineSet
EndChar

StartChar: lc_xheight_curved_stem
Encoding: 65556 -1 345
Width: 1142
VWidth: 0
GlyphClass: 2
Flags: W
PickledData: "(dp1
S'com.schriftgestaltung.Glyphs.Export'
p2
I00
sS'com.typemytype.robofont.layerData'
p3
(dp4
S'b'
(dp5
S'name'
p6
S'lc_xheight_curved_stem'
p7
sS'lib'
p8
(dp9
sS'unicodes'
p10
(tsS'width'
p11
I1142
sS'contours'
p12
((dp13
S'points'
p14
((dp15
S'segmentType'
p16
S'line'
p17
sS'x'
I351
sS'smooth'
p18
I0
sS'y'
I643
s(dp19
S'y'
I715
sS'x'
I455
sg18
I0
s(dp20
S'y'
I756
sS'x'
I545
sg18
I0
s(dp21
g16
S'curve'
p22
sS'x'
I675
sg18
I1
sS'y'
I756
s(dp23
S'y'
I756
sS'x'
I821
sg18
I0
s(dp24
S'y'
I676
sS'x'
I849
sg18
I0
s(dp25
g16
S'curve'
p26
sS'x'
I849
sg18
I1
sS'y'
I577
s(dp27
g16
S'line'
p28
sS'x'
I849
sg18
I0
sS'y'
I58
s(dp29
g16
S'line'
p30
sS'x'
I688
sg18
I0
sS'y'
I58
s(dp31
g16
S'line'
p32
sS'x'
I688
sg18
I0
sS'y'
I0
s(dp33
g16
S'line'
p34
sS'x'
I1073
sg18
I0
sS'y'
I0
s(dp35
g16
S'line'
p36
sS'x'
I1073
sg18
I0
sS'y'
I58
s(dp37
g16
S'line'
p38
sS'x'
I924
sg18
I0
sS'y'
I58
s(dp39
g16
S'line'
p40
sS'x'
I924
sg18
I1
sS'y'
I592
s(dp41
S'y'
I697
sS'x'
I924
sg18
I0
s(dp42
S'y'
I820
sS'x'
I866
sg18
I0
s(dp43
g16
S'curve'
p44
sS'x'
I682
sg18
I1
sS'y'
I820
s(dp45
S'y'
I820
sS'x'
I557
sg18
I0
s(dp46
S'y'
I789
sS'x'
I468
sg18
I0
s(dp47
g16
S'curve'
p48
sS'x'
I348
sg18
I0
sS'y'
I709
stp49
stp50
sS'components'
p51
(tsS'anchors'
p52
(tsss."
LayerCount: 2
Fore
SplineSet
707 0 m 257
 1085 0 l 257
 1085 34 l 257
 931 34 l 257
 931 582 l 258
 931 732 837 826 688 826 c 256
 590 826 444 775 311 694 c 257
 311 661 l 257
 463 743 606 790 683 790 c 256
 808 790 887 719 887 605 c 258
 887 34 l 257
 707 34 l 257
 707 0 l 257
EndSplineSet
EndChar

StartChar: lc_xheight_stem
Encoding: 65557 -1 346
Width: 1324
VWidth: 0
GlyphClass: 2
Flags: W
PickledData: "(dp1
S'com.schriftgestaltung.Glyphs.Export'
p2
I00
sS'com.typemytype.robofont.layerData'
p3
(dp4
S'b'
(dp5
S'name'
p6
S'lc_xheight_stem'
p7
sS'lib'
p8
(dp9
sS'unicodes'
p10
(tsS'width'
p11
I1324
sS'contours'
p12
(tsS'components'
p13
(tsS'anchors'
p14
(tsss."
LayerCount: 2
Fore
SplineSet
93 0 m 257
 494 0 l 257
 494 34 l 257
 318 34 l 257
 318 646 l 257
 318 804 l 257
 96 804 l 257
 96 770 l 257
 274 770 l 257
 274 34 l 257
 93 34 l 257
 93 0 l 257
EndSplineSet
EndChar

StartChar: less
Encoding: 60 60 350
Width: 896
VWidth: 0
GlyphClass: 2
Flags: HW
PickledData: "(dp1
S'com.typemytype.robofont.layerData'
p2
(dp3
S'b'
(dp4
S'name'
p5
S'less'
p6
sS'lib'
p7
(dp8
sS'unicodes'
p9
(tsS'width'
p10
I896
sS'contours'
p11
(tsS'components'
p12
(tsS'anchors'
p13
(tsss."
LayerCount: 2
Fore
SplineSet
757 -102 m 261
 757 -50 l 257
 6 566 l 257
 757 1185 l 257
 757 1241 l 257
 -49 572 l 257
 -49 559 l 257
 757 -102 l 261
EndSplineSet
EndChar

StartChar: lessequal
Encoding: 8804 8804 351
Width: 593
VWidth: 0
GlyphClass: 2
Flags: W
PickledData: "(dp1
S'com.typemytype.robofont.layerData'
p2
(dp3
S'b'
(dp4
S'name'
p5
S'lessequal'
p6
sS'lib'
p7
(dp8
sS'unicodes'
p9
(tsS'width'
p10
I593
sS'contours'
p11
(tsS'components'
p12
(tsS'anchors'
p13
(tsss."
LayerCount: 2
Fore
SplineSet
607 182 m 257
 607 222 l 257
 68 507 l 257
 607 793 l 257
 607 836 l 257
 -4 519 l 257
 -4 496 l 257
 607 182 l 257
-4 0 m 257
 607 0 l 257
 607 33 l 257
 -4 33 l 257
 -4 0 l 257
EndSplineSet
EndChar

StartChar: logicalnot
Encoding: 172 172 353
Width: 827
VWidth: 0
GlyphClass: 2
Flags: W
PickledData: "(dp1
S'com.typemytype.robofont.layerData'
p2
(dp3
S'b'
(dp4
S'name'
p5
S'logicalnot'
p6
sS'lib'
p7
(dp8
sS'unicodes'
p9
(tsS'width'
p10
I827
sS'contours'
p11
(tsS'components'
p12
(tsS'anchors'
p13
(tsss."
LayerCount: 2
Fore
SplineSet
698 304 m 257
 736 304 l 257
 736 639 l 257
 101 639 l 257
 101 603 l 257
 698 603 l 257
 698 304 l 257
EndSplineSet
EndChar

StartChar: lozenge
Encoding: 9674 9674 355
Width: 948
VWidth: 0
GlyphClass: 2
Flags: W
PickledData: "(dp1
S'com.typemytype.robofont.layerData'
p2
(dp3
S'b'
(dp4
S'name'
p5
S'lozenge'
p6
sS'lib'
p7
(dp8
sS'unicodes'
p9
(tsS'width'
p10
I948
sS'contours'
p11
(tsS'components'
p12
(tsS'anchors'
p13
(tsss."
LayerCount: 2
Fore
SplineSet
455 -32 m 257
 494 -32 l 257
 910 630 l 257
 494 1295 l 257
 455 1295 l 257
 38 628 l 257
 455 -32 l 257
477 7 m 257
 103 630 l 257
 477 1254 l 257
 851 630 l 257
 477 7 l 257
EndSplineSet
EndChar

StartChar: lslash
Encoding: 322 322 356
Width: 445
VWidth: 0
GlyphClass: 2
Flags: W
PickledData: "(dp1
S'com.typemytype.robofont.layerData'
p2
(dp3
S'b'
(dp4
S'name'
p5
S'lslash'
p6
sS'lib'
p7
(dp8
sS'unicodes'
p9
(tsS'width'
p10
I506
sS'contours'
p11
(tsS'components'
p12
(tsS'anchors'
p13
(tsss."
LayerCount: 2
Fore
SplineSet
53 460 m 257
 393 679 l 257
 393 727 l 257
 52 506 l 257
 53 460 l 257
EndSplineSet
Refer: 337 108 N 1 0 0 1 0 0 2
EndChar

StartChar: m
Encoding: 109 109 357
Width: 1571
VWidth: 0
GlyphClass: 2
Flags: HW
PickledData: "(dp1
S'com.typemytype.robofont.layerData'
p2
(dp3
S'b'
(dp4
S'name'
p5
S'm'
sS'lib'
p6
(dp7
sS'unicodes'
p8
(tsS'width'
p9
I1571
sS'contours'
p10
(tsS'components'
p11
(tsS'anchors'
p12
(tsss."
AnchorPoint: "top" 803 804 basechar 0
LayerCount: 2
Fore
SplineSet
34 0 m 1
 435 0 l 1
 435 34 l 1
 259 34 l 1
 259 250.967196282 259 467.934392563 259 684.901588845 c 1
 393.381710658 752.066912503 515.824725274 790 585 790 c 0
 710 790 789 719 789 605 c 2
 789 34 l 1
 609 34 l 1
 609 0 l 1
 987 0 l 1
 987 34 l 1
 833 34 l 1
 833 582 l 2
 833 616.286361228 828.088794257 647.646897757 818.732135081 675.627799644 c 1
 950.937242931 743.780299441 1155.5457636 790.70267568 1164.17349542 790.70267568 c 1
 1164.17349542 790.70267568 1164.41898631 790.471413697 1163 790 c 1
 1288 790 1367 719 1367 605 c 2
 1367 34 l 1
 1187 34 l 1
 1187 0 l 1
 1565 0 l 1
 1565 34 l 1
 1411 34 l 1
 1411 582 l 2
 1411 732 1317 826 1168 826 c 0
 1073.98809846 826 935.803414077 779.066418239 807.297733844 703.738394497 c 1
 769.755594076 781.058797598 693.02548923 826 590 826 c 0
 503.195569745 826 378.731785328 785.986936203 259 720.554553171 c 1
 259 804 l 1
 37 804 l 1
 37 770 l 1
 215 770 l 1
 215 695.21519185 l 2
 214.333012134 694.810882693 213.66634291 694.405817862 213 694 c 2
 213 661 l 2
 213.666841492 661.359743436 214.333509763 661.718813236 215 662.077208384 c 2
 215 34 l 1
 34 34 l 1
 34 0 l 1
EndSplineSet
EndChar

StartChar: macron
Encoding: 175 175 358
Width: 316
VWidth: 0
GlyphClass: 4
Flags: W
PickledData: "(dp1
S'com.typemytype.robofont.layerData'
p2
(dp3
S'b'
(dp4
S'name'
p5
S'macron'
p6
sS'lib'
p7
(dp8
sS'unicodes'
p9
(tsS'width'
p10
I316
sS'contours'
p11
(tsS'components'
p12
(tsS'anchors'
p13
(tsss."
AnchorPoint: "top" 164 804 mark 0
LayerCount: 2
Fore
SplineSet
-22 918 m 257
 347 918 l 257
 347 950 l 257
 -22 950 l 257
 -22 918 l 257
EndSplineSet
EndChar

StartChar: minus
Encoding: 8722 8722 361
Width: 912
VWidth: 0
GlyphClass: 2
Flags: W
PickledData: "(dp1
S'com.typemytype.robofont.layerData'
p2
(dp3
S'b'
(dp4
S'name'
p5
S'minus'
p6
sS'lib'
p7
(dp8
sS'unicodes'
p9
(tsS'width'
p10
I912
sS'contours'
p11
(tsS'components'
p12
(tsS'anchors'
p13
(tsss."
LayerCount: 2
Fore
SplineSet
100 569 m 257
 812 569 l 257
 812 616 l 257
 100 616 l 257
 100 569 l 257
EndSplineSet
EndChar

StartChar: mu
Encoding: 956 956 362
Width: 1025
VWidth: 0
GlyphClass: 2
Flags: W
LayerCount: 2
Fore
SplineSet
199 -313 m 257
 243 -313 l 257
 243 377 l 257
 199 377 l 257
 199 -313 l 257
EndSplineSet
Refer: 465 117 N 1 0 0 1 0 0 2
EndChar

StartChar: multiply
Encoding: 215 215 363
Width: 520
VWidth: 0
GlyphClass: 2
Flags: W
PickledData: "(dp1
S'com.typemytype.robofont.layerData'
p2
(dp3
S'b'
(dp4
S'name'
p5
S'multiply'
p6
sS'lib'
p7
(dp8
sS'unicodes'
p9
(tsS'width'
p10
I520
sS'contours'
p11
(tsS'components'
p12
(tsS'anchors'
p13
(tsss."
LayerCount: 2
Fore
SplineSet
467 387 m 257
 495 415 l 257
 297 617 l 257
 495 819 l 257
 467 849 l 257
 266 647 l 257
 66 846 l 257
 37 818 l 257
 237 617 l 257
 37 417 l 257
 65 388 l 257
 266 589 l 257
 467 387 l 257
EndSplineSet
EndChar

StartChar: n
Encoding: 110 110 364
Width: 1010
VWidth: 0
GlyphClass: 2
Flags: HW
PickledData: "(dp1
S'com.typemytype.robofont.layerData'
p2
(dp3
S'b'
(dp4
S'name'
p5
S'n'
sS'lib'
p6
(dp7
sS'unicodes'
p8
(tsS'width'
p9
I1010
sS'contours'
p10
(tsS'components'
p11
(tsS'anchors'
p12
(tsss."
AnchorPoint: "bot" 544 0 basechar 0
AnchorPoint: "top" 596 804 basechar 0
LayerCount: 2
Fore
SplineSet
34 0 m 1
 435 0 l 1
 435 34 l 1
 259 34 l 1
 259 248.093566681 259 462.187133362 259 676.280700043 c 1
 399.997749756 748.812102746 529.91803678 790 602 790 c 0
 727 790 806 719 806 605 c 2
 806 34 l 1
 626 34 l 1
 626 0 l 1
 1004 0 l 1
 1004 34 l 1
 850 34 l 1
 850 582 l 2
 850 732 756 826 607 826 c 0
 516.078478647 826 383.840557236 782.101324938 259 711.07428709 c 1
 259 804 l 1
 37 804 l 1
 37 770 l 1
 215 770 l 1
 215 34 l 1
 34 34 l 1
 34 0 l 1
EndSplineSet
EndChar

StartChar: nine
Encoding: 57 57 371
Width: 830
VWidth: 0
GlyphClass: 2
Flags: W
PickledData: "(dp1
S'com.typemytype.robofont.layerData'
p2
(dp3
S'b'
(dp4
S'name'
p5
S'nine'
p6
sS'lib'
p7
(dp8
sS'unicodes'
p9
(tsS'width'
p10
I830
sS'contours'
p11
(tsS'components'
p12
(tsS'anchors'
p13
(tsss."
LayerCount: 2
Fore
SplineSet
332 -76 m 257
 695 554 l 258
 724 604 780 708 780 845 c 256
 780 1038 635 1174 431 1174 c 256
 207 1174 67 1042 67 832 c 256
 67 621 205 489 424 489 c 256
 488 489 604 515 665 580 c 257
 290 -56 l 257
 332 -76 l 257
424 521 m 256
 231 521 109 641 109 832 c 256
 109 1022 233 1142 431 1142 c 256
 611 1142 738 1019 738 845 c 256
 738 638 580 521 424 521 c 256
EndSplineSet
EndChar

StartChar: notequal
Encoding: 8800 8800 373
Width: 793
VWidth: 0
GlyphClass: 2
Flags: W
PickledData: "(dp1
S'com.typemytype.robofont.layerData'
p2
(dp3
S'b'
(dp4
S'name'
p5
S'notequal'
p6
sS'lib'
p7
(dp8
sS'unicodes'
p9
(tsS'width'
p10
I570
sS'contours'
p11
(tsS'components'
p12
(tsS'anchors'
p13
(tsss."
LayerCount: 2
Fore
SplineSet
298 88 m 257
 330 88 l 257
 378 269 l 257
 723 269 l 257
 723 296 l 257
 386 296 l 257
 447 529 l 257
 713 529 l 257
 713 561 l 257
 454 561 l 257
 502 740 l 257
 474 740 l 257
 425 561 l 257
 80 561 l 257
 80 529 l 257
 416 529 l 257
 355 296 l 257
 90 296 l 257
 90 269 l 257
 347 269 l 257
 298 88 l 257
EndSplineSet
EndChar

StartChar: numbersign
Encoding: 35 35 375
Width: 917
VWidth: 0
GlyphClass: 2
Flags: W
PickledData: "(dp1
S'com.typemytype.robofont.layerData'
p2
(dp3
S'b'
(dp4
S'name'
p5
S'numbersign'
p6
sS'lib'
p7
(dp8
sS'unicodes'
p9
(tsS'width'
p10
I917
sS'contours'
p11
(tsS'components'
p12
(tsS'anchors'
p13
(tsss."
LayerCount: 2
Fore
SplineSet
186 0 m 257
 241 0 l 257
 270 388 l 257
 617 388 l 257
 586 0 l 257
 641 0 l 257
 670 388 l 257
 825 388 l 257
 826 421 l 257
 671 421 l 257
 699 782 l 257
 863 782 l 257
 865 815 l 257
 698 815 l 257
 721 1147 l 257
 668 1147 l 257
 644 815 l 257
 296 815 l 257
 321 1147 l 257
 266 1147 l 257
 242 815 l 257
 98 815 l 257
 96 782 l 257
 243 782 l 257
 217 421 l 257
 59 421 l 257
 56 388 l 257
 216 388 l 257
 186 0 l 257
269 421 m 257
 298 782 l 257
 645 782 l 257
 617 421 l 257
 269 421 l 257
EndSplineSet
EndChar

StartChar: o
Encoding: 111 111 376
Width: 986
VWidth: 0
GlyphClass: 2
Flags: HW
PickledData: "(dp1
S'com.typemytype.robofont.layerData'
p2
(dp3
S'b'
(dp4
S'name'
p5
S'o'
sS'lib'
p6
(dp7
sS'unicodes'
p8
(tsS'width'
p9
I986
sS'contours'
p10
(tsS'components'
p11
(tsS'anchors'
p12
(tsss."
AnchorPoint: "top" 488 805 basechar 0
LayerCount: 2
Fore
SplineSet
491 12 m 0
 265 12 105 176 105 407 c 0
 105 633 265 792 491 792 c 0
 719 792 881 633 881 408 c 0
 881 176 719 12 491 12 c 0
491 -22 m 0
 744 -22 923 156 923 408 c 0
 923 653 744 826 491 826 c 0
 240 826 63 652 63 407 c 0
 63 155 240 -22 491 -22 c 0
EndSplineSet
Substitution2: "Single Substitution lookup 14 subtable" ordmasculine
EndChar

StartChar: oe
Encoding: 339 339 384
Width: 1793
VWidth: 0
GlyphClass: 2
Flags: W
PickledData: "(dp1
S'com.typemytype.robofont.layerData'
p2
(dp3
S'b'
(dp4
S'name'
p5
S'oe'
p6
sS'lib'
p7
(dp8
sS'unicodes'
p9
(tsS'width'
p10
I1961
sS'contours'
p11
(tsS'components'
p12
(tsS'anchors'
p13
(tsss."
LayerCount: 2
Fore
SplineSet
491 -22 m 256
 692 -22 847 91 901 264 c 257
 959 80 1127 -22 1303 -22 c 256
 1422 -22 1553 25 1658 129 c 257
 1645 166 l 257
 1576 81 1432 12 1303 12 c 256
 1123 12 936 140 925 390 c 257
 1678 390 l 257
 1670 718 1460 826 1284 826 c 256
 1124 826 958 734 902 548 c 257
 847 716 692 826 491 826 c 256
 240 826 63 652 63 407 c 256
 63 155 240 -22 491 -22 c 256
491 12 m 256
 265 12 105 176 105 407 c 256
 105 633 265 792 491 792 c 256
 719 792 881 633 881 408 c 256
 881 176 719 12 491 12 c 256
924 424 m 257
 931 649 1091 792 1284 792 c 256
 1456 792 1614 678 1638 424 c 257
 924 424 l 257
EndSplineSet
EndChar

StartChar: ogonek
Encoding: 731 731 385
Width: 390
VWidth: 0
GlyphClass: 2
Flags: W
PickledData: "(dp1
S'com.typemytype.robofont.layerData'
p2
(dp3
S'b'
(dp4
S'name'
p5
S'ogonek'
p6
sS'lib'
p7
(dp8
sS'unicodes'
p9
(tsS'width'
p10
I390
sS'contours'
p11
(tsS'components'
p12
(tsS'anchors'
p13
(tsss."
LayerCount: 2
Fore
SplineSet
234 -308 m 256
 271 -308 312 -295 345 -270 c 257
 345 -235 l 257
 315 -259 280 -272 248 -272 c 256
 197 -272 155 -240 155 -177 c 256
 155 -127 194 -61 263 0 c 257
 232 0 l 257
 151 -62 107 -134 107 -192 c 256
 107 -268 167 -308 234 -308 c 256
EndSplineSet
EndChar

StartChar: one
Encoding: 49 49 390
Width: 559
VWidth: 0
GlyphClass: 2
Flags: W
PickledData: "(dp1
S'com.typemytype.robofont.layerData'
p2
(dp3
S'b'
(dp4
S'name'
p5
S'one'
p6
sS'lib'
p7
(dp8
sS'unicodes'
p9
(tsS'width'
p10
I559
sS'contours'
p11
(tsS'components'
p12
(tsS'anchors'
p13
(tsss."
LayerCount: 2
Fore
SplineSet
126 0 m 257
 494 0 l 257
 494 34 l 257
 334 34 l 257
 334 1154 l 257
 133 1091 l 257
 147 1058 l 257
 290 1104 l 257
 290 34 l 257
 126 34 l 257
 126 0 l 257
EndSplineSet
Substitution2: "supsSuperscriptlookup10 subtable" onesuperior
EndChar

StartChar: onehalf
Encoding: 189 189 391
Width: 1651
VWidth: 0
GlyphClass: 3
Flags: W
LayerCount: 2
Fore
SplineSet
1049 0 m 257
 1563 0 l 257
 1563 179 l 257
 1527 179 l 257
 1528 34 l 257
 1102 34 l 257
 1386 305 l 258
 1489 403 1541 475 1541 584 c 256
 1541 726 1429 795 1293 795 c 256
 1120 795 1040 681 1040 549 c 256
 1040 525 1043 501 1048 476 c 257
 1087 476 l 257
 1081 500 1078 524 1078 547 c 256
 1078 663 1146 761 1293 761 c 256
 1416 761 1502 699 1502 586 c 256
 1502 481 1468 434 1365 336 c 258
 1049 34 l 257
 1049 0 l 257
114 366 m 257
 395 366 l 257
 395 400 l 257
 273 400 l 257
 273 1152 l 257
 114 1152 l 257
 115 1118 l 257
 235 1118 l 257
 235 400 l 257
 114 400 l 257
 114 366 l 257
351 0 m 257
 393 0 l 257
 1167 1152 l 257
 1128 1152 l 257
 351 0 l 257
EndSplineSet
Ligature2: "fracDiagonalFractionslookup11 subtable" one slash two
EndChar

StartChar: onequarter
Encoding: 188 188 392
Width: 1395
VWidth: 0
GlyphClass: 3
Flags: W
PickledData: "(dp1
S'com.typemytype.robofont.layerData'
p2
(dp3
S'b'
(dp4
S'name'
p5
S'onequarter'
p6
sS'lib'
p7
(dp8
sS'unicodes'
p9
(tsS'width'
p10
I1395
sS'contours'
p11
(tsS'components'
p12
(tsS'anchors'
p13
(tsss."
LayerCount: 2
Fore
SplineSet
1088 0 m 257
 1355 0 l 257
 1355 34 l 257
 1246 34 l 257
 1246 262 l 257
 1353 262 l 257
 1353 296 l 257
 1246 296 l 257
 1246 804 l 257
 1197 804 l 257
 839 286 l 257
 852 262 l 257
 1208 262 l 257
 1208 34 l 257
 1088 34 l 257
 1088 0 l 257
113 366 m 257
 394 366 l 257
 394 400 l 257
 272 400 l 257
 272 1152 l 257
 113 1152 l 257
 114 1118 l 257
 234 1118 l 257
 234 400 l 257
 113 400 l 257
 113 366 l 257
339 0 m 257
 381 0 l 257
 1155 1152 l 257
 1116 1152 l 257
 339 0 l 257
890 296 m 257
 1208 759 l 257
 1208 296 l 257
 890 296 l 257
EndSplineSet
Ligature2: "fracDiagonalFractionslookup11 subtable" one slash four
EndChar

StartChar: onesuperior
Encoding: 185 185 393
Width: 531
VWidth: 0
GlyphClass: 2
Flags: W
PickledData: "(dp1
S'com.typemytype.robofont.layerData'
p2
(dp3
S'b'
(dp4
S'name'
p5
S'uni00B9'
p6
sS'lib'
p7
(dp8
sS'unicodes'
p9
(tsS'width'
p10
I531
sS'contours'
p11
(tsS'components'
p12
(tsS'anchors'
p13
(tsss."
LayerCount: 2
Fore
SplineSet
131 550 m 257
 412 550 l 257
 412 584 l 257
 296 584 l 257
 296 1308 l 257
 135 1273 l 257
 146 1237 l 257
 252 1262 l 257
 252 584 l 257
 131 584 l 257
 131 550 l 257
EndSplineSet
EndChar

StartChar: ordfeminine
Encoding: 170 170 395
Width: 801
VWidth: 0
GlyphClass: 2
Flags: W
PickledData: "(dp1
S'com.typemytype.robofont.layerData'
p2
(dp3
S'b'
(dp4
S'name'
p5
S'ordfeminine'
p6
sS'lib'
p7
(dp8
sS'unicodes'
p9
(tsS'width'
p10
I801
sS'contours'
p11
(tsS'components'
p12
(tsS'anchors'
p13
(tsss."
LayerCount: 2
Fore
SplineSet
331 572 m 256
 406 572 504 604 554 645 c 257
 555 580 l 257
 702 580 l 257
 702 616 l 257
 598 616 l 257
 598 990 l 258
 598 1056 570 1174 378 1174 c 256
 298 1174 222 1158 156 1109 c 257
 177 1076 l 257
 233 1121 306 1138 382 1138 c 256
 500 1138 554 1086 554 979 c 258
 554 893 l 257
 500 901 431 910 365 910 c 256
 243 910 128 878 128 745 c 256
 128 655 189 572 331 572 c 256
331 608 m 256
 224 608 172 664 172 744 c 256
 172 849 261 875 375 875 c 256
 431 875 494 868 554 862 c 257
 554 685 l 257
 496 634 410 608 331 608 c 256
EndSplineSet
EndChar

StartChar: ordmasculine
Encoding: 186 186 396
Width: 806
VWidth: 0
GlyphClass: 2
Flags: W
PickledData: "(dp1
S'com.typemytype.robofont.layerData'
p2
(dp3
S'b'
(dp4
S'name'
p5
S'ordmasculine'
p6
sS'lib'
p7
(dp8
sS'unicodes'
p9
(tsS'width'
p10
I809
sS'contours'
p11
(tsS'components'
p12
(tsS'anchors'
p13
(tsss."
LayerCount: 2
Fore
SplineSet
403 562 m 256
 561 562 702 661 702 868 c 256
 702 1075 561 1174 403 1174 c 256
 245 1174 104 1075 104 868 c 256
 104 661 245 562 403 562 c 256
403 598 m 256
 274 598 148 677 148 868 c 256
 148 1059 274 1138 403 1138 c 256
 532 1138 658 1059 658 868 c 256
 658 677 532 598 403 598 c 256
EndSplineSet
EndChar

StartChar: oslash
Encoding: 248 248 397
Width: 1023
VWidth: 0
GlyphClass: 2
Flags: W
PickledData: "(dp1
S'com.typemytype.robofont.layerData'
p2
(dp3
S'b'
(dp4
S'name'
p5
S'oslash'
p6
sS'lib'
p7
(dp8
sS'unicodes'
p9
(tsS'width'
p10
I1023
sS'contours'
p11
(tsS'components'
p12
(tsS'anchors'
p13
(tsss."
LayerCount: 2
Fore
SplineSet
187 -193 m 257
 890 979 l 257
 870 995 l 257
 168 -176 l 257
 187 -193 l 257
EndSplineSet
Refer: 376 111 N 1 0 0 1 0 0 2
EndChar

StartChar: p
Encoding: 112 112 400
Width: 1037
VWidth: 0
GlyphClass: 2
Flags: HW
PickledData: "(dp1
S'com.typemytype.robofont.layerData'
p2
(dp3
S'b'
(dp4
S'name'
p5
S'p'
sS'lib'
p6
(dp7
sS'unicodes'
p8
(tsS'width'
p9
I1037
sS'contours'
p10
(tsS'components'
p11
(tsS'anchors'
p12
(tsss."
AnchorPoint: "top" 563 805 basechar 0
LayerCount: 2
Fore
SplineSet
545 -22 m 0
 809.07982772 -22 974.114556995 144.921522739 974.114556995 411.948595473 c 0
 974.114556995 666.97662307 816.040015366 826 561 826 c 0
 459.362446833 826 341.79488376 782.40207815 249.753313794 712.095717159 c 1
 249 804 l 1
 81 804 l 1
 81 770 l 1
 205 770 l 1
 205 -282 l 1
 65 -282 l 1
 65 -316 l 1
 383 -316 l 1
 383 -282 l 1
 249 -282 l 1
 249.395318466 99.0870015805 l 1
 329.50496589 23.7833505464 440.113942354 -22 545 -22 c 0
249.437937093 140.171357559 m 1
 249.992623237 674.888800206 l 1
 346.00939672 747.278904588 463.630229397 792 561 792 c 0
 789 792 932 641 932 400 c 0
 932 162 783 12 545 12 c 0
 441.721194849 12 331.055608816 60.4244524477 249.437937093 140.171357559 c 1
EndSplineSet
EndChar

StartChar: paragraph
Encoding: 182 182 401
Width: 953
VWidth: 0
GlyphClass: 2
Flags: W
PickledData: "(dp1
S'com.typemytype.robofont.layerData'
p2
(dp3
S'b'
(dp4
S'name'
p5
S'paragraph'
p6
sS'lib'
p7
(dp8
sS'unicodes'
p9
(tsS'width'
p10
I953
sS'contours'
p11
(tsS'components'
p12
(tsS'anchors'
p13
(tsss."
LayerCount: 2
Fore
SplineSet
488 -19 m 257
 837 -19 l 257
 837 16 l 257
 698 16 l 257
 698 1123 l 257
 860 1123 l 257
 860 1152 l 257
 406 1152 l 258
 207 1152 115 1023 115 930 c 256
 115 826 205 688 414 690 c 258
 654 690 l 257
 654 16 l 257
 488 16 l 257
 488 -19 l 257
477 737 m 257
 477 1123 l 257
 654 1123 l 257
 654 737 l 257
 477 737 l 257
EndSplineSet
EndChar

StartChar: parenleft
Encoding: 40 40 402
Width: 500
VWidth: 0
GlyphClass: 2
Flags: W
PickledData: "(dp1
S'com.typemytype.robofont.layerData'
p2
(dp3
S'b'
(dp4
S'name'
p5
S'parenleft'
p6
sS'lib'
p7
(dp8
sS'unicodes'
p9
(tsS'width'
p10
I500
sS'contours'
p11
(tsS'components'
p12
(tsS'anchors'
p13
(tsss."
LayerCount: 2
Fore
SplineSet
474 -114 m 257
 476 -88 l 257
 252 5 140 268 140 531 c 256
 140 794 252 1057 476 1149 c 257
 474 1174 l 257
 223 1086 97 807 97 529 c 256
 97 250 223 -28 474 -114 c 257
EndSplineSet
EndChar

StartChar: parenright
Encoding: 41 41 403
Width: 501
VWidth: 0
GlyphClass: 2
Flags: W
PickledData: "(dp1
S'com.typemytype.robofont.layerData'
p2
(dp3
S'b'
(dp4
S'name'
p5
S'parenright'
p6
sS'lib'
p7
(dp8
sS'unicodes'
p9
(tsS'width'
p10
I501
sS'contours'
p11
(tsS'components'
p12
(tsS'anchors'
p13
(tsss."
LayerCount: 2
Fore
SplineSet
84 -114 m 257
 336 -28 462 250 462 529 c 256
 462 807 336 1086 84 1174 c 257
 82 1149 l 257
 306 1057 419 794 419 531 c 256
 419 268 306 5 82 -88 c 257
 84 -114 l 257
EndSplineSet
EndChar

StartChar: partialdiff
Encoding: 8706 8706 404
Width: 1018
VWidth: 0
GlyphClass: 2
Flags: W
LayerCount: 2
Fore
SplineSet
401 -22 m 256
 735 -22 843 335 843 626 c 256
 843 954 729 1166 496 1166 c 256
 357 1166 266 1104 266 1020 c 256
 266 978 284 971 300 971 c 257
 300 1095 392 1132 498 1132 c 256
 675 1132 816 1016 816 531 c 257
 826 536 l 257
 812 607 716 694 561 694 c 256
 259 694 140 410 140 236 c 256
 140 100 205 -22 401 -22 c 256
410 9 m 256
 232 9 180 120 180 236 c 256
 180 378 272 661 560 661 c 256
 702 661 786 600 809 507 c 257
 785 259 649 9 410 9 c 256
EndSplineSet
EndChar

StartChar: percent
Encoding: 37 37 406
Width: 1578
VWidth: 0
GlyphClass: 2
Flags: W
PickledData: "(dp1
S'com.typemytype.robofont.layerData'
p2
(dp3
S'b'
(dp4
S'name'
p5
S'percent'
p6
sS'lib'
p7
(dp8
sS'unicodes'
p9
(tsS'width'
p10
I1578
sS'contours'
p11
(tsS'components'
p12
(tsS'anchors'
p13
(tsss."
LayerCount: 2
Fore
SplineSet
390 671 m 256
 251 671 153 769 153 907 c 256
 153 1044 251 1141 390 1141 c 256
 530 1141 629 1044 629 907 c 256
 629 769 530 671 390 671 c 256
390 636 m 256
 555 636 671 748 671 907 c 256
 671 1063 555 1174 390 1174 c 256
 227 1174 111 1063 111 907 c 256
 111 748 227 636 390 636 c 256
303 -36 m 257
 1324 1203 l 257
 1299 1222 l 257
 274 -11 l 257
 303 -36 l 257
1203 13 m 256
 1064 13 966 111 966 249 c 256
 966 386 1064 483 1203 483 c 256
 1343 483 1442 386 1442 249 c 256
 1442 111 1343 13 1203 13 c 256
1203 -22 m 256
 1368 -22 1484 90 1484 249 c 256
 1484 405 1368 516 1203 516 c 256
 1040 516 924 405 924 249 c 256
 924 90 1040 -22 1203 -22 c 256
EndSplineSet
EndChar

StartChar: period
Encoding: 46 46 407
Width: 452
VWidth: 0
GlyphClass: 2
Flags: W
PickledData: "(dp1
S'com.typemytype.robofont.layerData'
p2
(dp3
S'b'
(dp4
S'name'
p5
S'period'
p6
sS'lib'
p7
(dp8
sS'unicodes'
p9
(tsS'width'
p10
I452
sS'contours'
p11
(tsS'components'
p12
(tsS'anchors'
p13
(tsss."
LayerCount: 2
Fore
SplineSet
197 0 m 257
 268 0 l 257
 268 84 l 257
 197 84 l 257
 197 0 l 257
EndSplineSet
EndChar

StartChar: periodcentered
Encoding: 183 183 408
Width: 453
VWidth: 0
GlyphClass: 2
Flags: W
PickledData: "(dp1
S'com.typemytype.robofont.layerData'
p2
(dp3
S'b'
(dp4
S'name'
p5
S'periodcentered'
p6
sS'lib'
p7
(dp8
sS'unicodes'
p9
(tsS'width'
p10
I453
sS'contours'
p11
(tsS'components'
p12
(tsS'anchors'
p13
(tsss."
LayerCount: 2
Fore
SplineSet
236 512 m 256
 264 512 283 529 283 554 c 256
 283 578 264 595 236 595 c 256
 210 595 192 578 192 554 c 256
 192 529 210 512 236 512 c 256
EndSplineSet
EndChar

StartChar: perthousand
Encoding: 8240 8240 409
Width: 2272
VWidth: 0
GlyphClass: 2
Flags: W
LayerCount: 2
Fore
SplineSet
1904 -22 m 256
 2069 -22 2185 90 2185 249 c 256
 2185 405 2069 516 1904 516 c 256
 1741 516 1625 405 1625 249 c 256
 1625 90 1741 -22 1904 -22 c 256
1904 13 m 256
 1765 13 1667 111 1667 249 c 256
 1667 386 1765 483 1904 483 c 256
 2044 483 2143 386 2143 249 c 256
 2143 111 2044 13 1904 13 c 256
EndSplineSet
Refer: 406 37 N 1 0 0 1 0 0 2
EndChar

StartChar: pi
Encoding: 960 960 410
Width: 1111
VWidth: 0
GlyphClass: 2
Flags: W
LayerCount: 2
Fore
SplineSet
901 -10 m 256
 926 -10 963 -3 996 9 c 257
 996 40 l 257
 968 31 944 26 922 26 c 256
 825 26 777 102 777 247 c 256
 777 353 827 594 867 770 c 257
 1027 770 l 257
 1027 804 l 257
 294 804 l 258
 195 804 171 723 171 636 c 257
 204 636 l 257
 204 739 241 770 293 770 c 258
 390 770 l 257
 312 237 l 258
 292 103 276 30 120 30 c 257
 120 -4 l 257
 309 -4 342 58 363 237 c 258
 426 770 l 257
 832 770 l 257
 789 614 731 366 731 238 c 256
 731 67 795 -10 901 -10 c 256
EndSplineSet
EndChar

StartChar: plus
Encoding: 43 43 411
Width: 690
VWidth: 0
GlyphClass: 2
Flags: W
PickledData: "(dp1
S'com.typemytype.robofont.layerData'
p2
(dp3
S'b'
(dp4
S'name'
p5
S'plus'
p6
sS'lib'
p7
(dp8
sS'unicodes'
p9
(tsS'width'
p10
I690
sS'contours'
p11
(tsS'components'
p12
(tsS'anchors'
p13
(tsss."
LayerCount: 2
Fore
SplineSet
328 156 m 257
 365 156 l 257
 365 554 l 257
 700 554 l 257
 700 596 l 257
 365 596 l 257
 365 977 l 257
 328 977 l 257
 328 596 l 257
 -10 596 l 257
 -10 554 l 257
 328 554 l 257
 328 156 l 257
EndSplineSet
EndChar

StartChar: plusminus
Encoding: 177 177 412
Width: 659
VWidth: 0
GlyphClass: 2
Flags: W
PickledData: "(dp1
S'com.typemytype.robofont.layerData'
p2
(dp3
S'b'
(dp4
S'name'
p5
S'plusminus'
p6
sS'lib'
p7
(dp8
sS'unicodes'
p9
(tsS'width'
p10
I659
sS'contours'
p11
(tsS'components'
p12
(tsS'anchors'
p13
(tsss."
LayerCount: 2
Fore
SplineSet
313 76 m 257
 350 76 l 257
 350 479 l 257
 697 479 l 257
 697 520 l 257
 350 520 l 257
 350 906 l 257
 313 906 l 257
 313 520 l 257
 -35 520 l 257
 -35 479 l 257
 313 479 l 257
 313 76 l 257
-38 0 m 257
 694 0 l 257
 694 38 l 257
 -38 38 l 257
 -38 0 l 257
EndSplineSet
EndChar

StartChar: product
Encoding: 8719 8719 413
Width: 1305
VWidth: 0
GlyphClass: 2
Flags: W
PickledData: "(dp1
S'com.typemytype.robofont.layerData'
p2
(dp3
S'b'
(dp4
S'name'
p5
S'product'
p6
sS'lib'
p7
(dp8
sS'unicodes'
p9
(tsS'width'
p10
I1305
sS'contours'
p11
(tsS'components'
p12
(tsS'anchors'
p13
(tsss."
LayerCount: 2
Fore
SplineSet
116 0 m 257
 454 0 l 257
 454 36 l 257
 306 36 l 257
 306 1117 l 257
 999 1117 l 257
 999 36 l 257
 851 36 l 257
 851 0 l 257
 1189 0 l 257
 1189 36 l 257
 1041 36 l 257
 1041 1117 l 257
 1189 1117 l 257
 1189 1152 l 257
 116 1152 l 257
 116 1117 l 257
 264 1117 l 257
 264 36 l 257
 116 36 l 257
 116 0 l 257
EndSplineSet
EndChar

StartChar: q
Encoding: 113 113 414
Width: 1049
VWidth: 0
GlyphClass: 2
Flags: HW
PickledData: "(dp1
S'com.typemytype.robofont.layerData'
p2
(dp3
S'b'
(dp4
S'name'
p5
S'q'
sS'lib'
p6
(dp7
sS'unicodes'
p8
(tsS'width'
p9
I1049
sS'contours'
p10
(tsS'components'
p11
(tsS'anchors'
p12
(tsss."
LayerCount: 2
Fore
SplineSet
62.9599910868 403.683128152 m 0
 62.9599910868 154.084048906 241.212717088 -22 490 -22 c 0
 593.721544215 -22 712.085572908 24.3678675131 793 92.8917878828 c 1
 793 -296 l 1
 658 -296 l 1
 658 -330 l 1
 975 -330 l 1
 975 -296 l 1
 837 -296 l 1
 837 770 l 1
 966 770 l 1
 966 804 l 1
 799 804 l 1
 794.267590913 709.351818253 l 1
 707.074758451 778.494110434 577.203012635 826 464 826 c 0
 228.117834351 826 62.9599910868 651.153758551 62.9599910868 403.683128152 c 0
793 676.772265363 m 1
 793 130.980485079 l 1
 709.869972771 60.3022803136 591.338817855 12 490 12 c 0
 265 12 105 172 105 397 c 0
 105 628 254 792 464 792 c 0
 575.139232433 792 703.705937905 745.526738564 793 676.772265363 c 1
EndSplineSet
EndChar

StartChar: question
Encoding: 63 63 415
Width: 629
VWidth: 0
GlyphClass: 2
Flags: W
PickledData: "(dp1
S'com.typemytype.robofont.layerData'
p2
(dp3
S'b'
(dp4
S'name'
p5
S'question'
p6
sS'lib'
p7
(dp8
sS'unicodes'
p9
(tsS'width'
p10
I629
sS'contours'
p11
(tsS'components'
p12
(tsS'anchors'
p13
(tsss."
LayerCount: 2
Fore
SplineSet
268 279 m 257
 288 279 l 257
 352 690 607 619 607 907 c 256
 607 1071 499 1174 307 1174 c 256
 137 1174 24 1115 7 949 c 257
 37 949 l 257
 68 1094 153 1138 307 1138 c 256
 477 1138 571 1049 571 907 c 256
 571 640 308 706 268 279 c 257
275 -22 m 256
 305 -22 326 -3 326 24 c 256
 326 50 305 69 275 69 c 256
 247 69 227 50 227 24 c 256
 227 -3 247 -22 275 -22 c 256
EndSplineSet
EndChar

StartChar: quotedbl
Encoding: 34 34 417
Width: 514
VWidth: 0
GlyphClass: 2
Flags: W
PickledData: "(dp1
S'com.typemytype.robofont.layerData'
p2
(dp3
S'b'
(dp4
S'name'
p5
S'quotedbl'
p6
sS'lib'
p7
(dp8
sS'unicodes'
p9
(tsS'width'
p10
I514
sS'contours'
p11
(tsS'components'
p12
(tsS'anchors'
p13
(tsss."
LayerCount: 2
Fore
SplineSet
185 909 m 257
 204 909 l 257
 215 1259 l 257
 166 1259 l 257
 185 909 l 257
317 909 m 257
 335 909 l 257
 357 1259 l 257
 308 1259 l 257
 317 909 l 257
EndSplineSet
EndChar

StartChar: quotedblbase
Encoding: 8222 8222 418
Width: 652
VWidth: 0
GlyphClass: 2
Flags: W
PickledData: "(dp1
S'com.typemytype.robofont.layerData'
p2
(dp3
S'b'
(dp4
S'name'
p5
S'quotedblbase'
p6
sS'lib'
p7
(dp8
sS'unicodes'
p9
(tsS'width'
p10
I652
sS'contours'
p11
(tsS'components'
p12
(tsS'anchors'
p13
(tsss."
LayerCount: 2
Fore
SplineSet
190 -157 m 257
 270 -156 292 -81 292 -8 c 258
 292 78 l 257
 202 78 l 257
 202 -6 l 257
 245 -6 l 257
 244 -83 249 -107 190 -130 c 257
 190 -157 l 257
382 -157 m 257
 461 -156 484 -81 484 -8 c 258
 484 78 l 257
 394 78 l 257
 394 -6 l 257
 435 -6 l 257
 435 -84 441 -107 382 -130 c 257
 382 -157 l 257
EndSplineSet
EndChar

StartChar: quotedblleft
Encoding: 8220 8220 419
Width: 642
VWidth: 0
GlyphClass: 2
Flags: W
PickledData: "(dp1
S'com.typemytype.robofont.layerData'
p2
(dp3
S'b'
(dp4
S'name'
p5
S'quotedblleft'
p6
sS'lib'
p7
(dp8
sS'unicodes'
p9
(tsS'width'
p10
I642
sS'contours'
p11
(tsS'components'
p12
(tsS'anchors'
p13
(tsss."
LayerCount: 2
Fore
SplineSet
173 1053 m 257
 263 1053 l 257
 263 1137 l 257
 222 1137 l 257
 222 1215 217 1238 277 1262 c 257
 277 1289 l 257
 196 1288 173 1214 173 1140 c 258
 173 1053 l 257
356 1053 m 257
 446 1053 l 257
 446 1137 l 257
 405 1137 l 257
 405 1215 401 1238 460 1262 c 257
 460 1289 l 257
 379 1287 356 1214 356 1140 c 258
 356 1053 l 257
EndSplineSet
EndChar

StartChar: quotedblright
Encoding: 8221 8221 420
Width: 649
VWidth: 0
GlyphClass: 2
Flags: W
PickledData: "(dp1
S'com.typemytype.robofont.layerData'
p2
(dp3
S'b'
(dp4
S'name'
p5
S'quotedblright'
p6
sS'lib'
p7
(dp8
sS'unicodes'
p9
(tsS'width'
p10
I649
sS'contours'
p11
(tsS'components'
p12
(tsS'anchors'
p13
(tsss."
LayerCount: 2
Fore
SplineSet
190 1030 m 257
 270 1031 294 1106 293 1179 c 258
 293 1266 l 257
 204 1266 l 257
 204 1183 l 257
 245 1183 l 257
 244 1105 249 1080 190 1058 c 257
 190 1030 l 257
373 1030 m 257
 454 1031 477 1106 477 1179 c 258
 477 1266 l 257
 387 1266 l 257
 387 1183 l 257
 428 1183 l 257
 428 1105 432 1080 373 1058 c 257
 373 1030 l 257
EndSplineSet
EndChar

StartChar: quoteleft
Encoding: 8216 8216 421
Width: 399
VWidth: 0
GlyphClass: 2
Flags: W
PickledData: "(dp1
S'com.typemytype.robofont.layerData'
p2
(dp3
S'b'
(dp4
S'name'
p5
S'quoteleft'
p6
sS'lib'
p7
(dp8
sS'unicodes'
p9
(tsS'width'
p10
I399
sS'contours'
p11
(tsS'components'
p12
(tsS'anchors'
p13
(tsss."
LayerCount: 2
Fore
SplineSet
134 1053 m 257
 223 1053 l 257
 223 1137 l 257
 182 1137 l 257
 182 1215 178 1238 237 1262 c 257
 237 1289 l 257
 157 1288 134 1214 134 1140 c 258
 134 1053 l 257
EndSplineSet
EndChar

StartChar: quoteright
Encoding: 8217 8217 422
Width: 409
VWidth: 0
GlyphClass: 2
Flags: W
PickledData: "(dp1
S'com.typemytype.robofont.layerData'
p2
(dp3
S'b'
(dp4
S'name'
p5
S'quoteright'
p6
sS'lib'
p7
(dp8
sS'unicodes'
p9
(tsS'width'
p10
I409
sS'contours'
p11
(tsS'components'
p12
(tsS'anchors'
p13
(tsss."
LayerCount: 2
Fore
SplineSet
174 1030 m 257
 255 1031 278 1106 278 1179 c 258
 278 1266 l 257
 188 1266 l 257
 188 1183 l 257
 229 1183 l 257
 229 1105 234 1080 174 1058 c 257
 174 1030 l 257
EndSplineSet
EndChar

StartChar: quotesinglbase
Encoding: 8218 8218 423
Width: 403
VWidth: 0
GlyphClass: 2
Flags: W
PickledData: "(dp1
S'com.typemytype.robofont.layerData'
p2
(dp3
S'b'
(dp4
S'name'
p5
S'quotesinglbase'
p6
sS'lib'
p7
(dp8
sS'unicodes'
p9
(tsS'width'
p10
I403
sS'contours'
p11
(tsS'components'
p12
(tsS'anchors'
p13
(tsss."
LayerCount: 2
Fore
SplineSet
180 -157 m 257
 261 -156 283 -81 282 -8 c 258
 282 78 l 257
 193 78 l 257
 193 -6 l 257
 235 -6 l 257
 235 -83 239 -107 180 -130 c 257
 180 -157 l 257
EndSplineSet
EndChar

StartChar: quotesingle
Encoding: 39 39 424
Width: 239
VWidth: 0
GlyphClass: 2
Flags: W
PickledData: "(dp1
S'com.typemytype.robofont.layerData'
p2
(dp3
S'b'
(dp4
S'name'
p5
S'quotesingle'
p6
sS'lib'
p7
(dp8
sS'unicodes'
p9
(tsS'width'
p10
I239
sS'contours'
p11
(tsS'components'
p12
(tsS'anchors'
p13
(tsss."
LayerCount: 2
Fore
SplineSet
118 909 m 257
 137 909 l 257
 148 1259 l 257
 99 1259 l 257
 118 909 l 257
EndSplineSet
EndChar

StartChar: r
Encoding: 114 114 425
Width: 773
VWidth: 0
GlyphClass: 2
Flags: HW
PickledData: "(dp1
S'com.typemytype.robofont.layerData'
p2
(dp3
S'b'
(dp4
S'name'
p5
S'r'
sS'lib'
p6
(dp7
sS'unicodes'
p8
(tsS'width'
p9
I773
sS'contours'
p10
((dp11
S'points'
p12
((dp13
S'segmentType'
p14
S'line'
p15
sS'x'
I338
sS'smooth'
p16
I0
sS'y'
I449
s(dp17
S'y'
I643
sS'x'
I338
sg16
I0
s(dp18
S'y'
I756
sS'x'
I441
sg16
I0
s(dp19
g14
S'curve'
p20
sS'x'
I570
sg16
I1
sS'y'
I756
s(dp21
S'y'
I756
sS'x'
I614
sg16
I0
s(dp22
S'y'
I742
sS'x'
I651
sg16
I0
s(dp23
g14
S'curve'
p24
sS'x'
I704
sg16
I0
sS'y'
I716
s(dp25
g14
S'line'
p26
sS'x'
I722
sg16
I0
sS'y'
I784
s(dp27
S'y'
I810
sS'x'
I664
sg16
I0
s(dp28
S'y'
I820
sS'x'
I622
sg16
I0
s(dp29
g14
S'curve'
p30
sS'x'
I575
sg16
I1
sS'y'
I820
s(dp31
S'y'
I820
sS'x'
I467
sg16
I0
s(dp32
S'y'
I769
sS'x'
I381
sg16
I0
s(dp33
g14
S'curve'
p34
sS'x'
I316
sg16
I0
sS'y'
I582
stp35
stp36
sS'components'
p37
(tsS'anchors'
p38
(tsss."
AnchorPoint: "bot" 332 0 basechar 0
AnchorPoint: "top" 503 805 basechar 0
LayerCount: 2
Fore
SplineSet
347 467 m 1
 347 670 447 791 557 791 c 0
 612 791 647 778 689 755 c 1
 698 787 l 1
 653 813 609 825 554 825 c 0
 472.907692475 825 389.076541825 777.070245337 345 643.816498296 c 1
 345 697.210998864 345 750.605499432 345 804 c 1
 123 804 l 1
 123 770 l 1
 301 770 l 1
 301 34 l 1
 120 34 l 1
 120 0 l 1
 521 0 l 1
 521 34 l 1
 345 34 l 1
 345 473.833333333 l 1
 347 467 l 1
EndSplineSet
EndChar

StartChar: radical
Encoding: 8730 8730 427
Width: 1118
VWidth: 0
GlyphClass: 2
Flags: W
PickledData: "(dp1
S'com.typemytype.robofont.layerData'
p2
(dp3
S'b'
(dp4
S'name'
p5
S'radical'
p6
sS'lib'
p7
(dp8
sS'unicodes'
p9
(tsS'width'
p10
I1118
sS'contours'
p11
(tsS'components'
p12
(tsS'anchors'
p13
(tsss."
LayerCount: 2
Fore
SplineSet
514 -14 m 257
 532 -14 l 257
 986 1363 l 257
 946 1363 l 257
 524 75 l 257
 286 621 l 257
 56 621 l 257
 56 587 l 257
 246 587 l 257
 514 -14 l 257
EndSplineSet
EndChar

StartChar: registered
Encoding: 174 174 431
Width: 1512
VWidth: 0
GlyphClass: 2
Flags: W
PickledData: "(dp1
S'com.typemytype.robofont.layerData'
p2
(dp3
S'b'
(dp4
S'name'
p5
S'registered'
p6
sS'lib'
p7
(dp8
sS'unicodes'
p9
(tsS'width'
p10
I1512
sS'contours'
p11
(tsS'components'
p12
(tsS'anchors'
p13
(tsss."
LayerCount: 2
Fore
SplineSet
422 217 m 257
 657 217 l 257
 657 249 l 257
 558 249 l 257
 558 577 l 257
 752 577 l 257
 955 217 l 257
 1086 217 l 257
 1086 251 l 257
 981 251 l 257
 794 580 l 257
 934 585 1012 650 1012 763 c 256
 1012 894 935 967 796 967 c 258
 414 967 l 257
 414 935 l 257
 519 935 l 257
 519 249 l 257
 422 249 l 257
 422 217 l 257
558 612 m 257
 558 935 l 257
 796 935 l 258
 909 935 974 874 974 763 c 256
 974 666 909 612 797 612 c 258
 558 612 l 257
728 14 m 256
 337 14 170 300 170 572 c 256
 170 832 341 1136 728 1136 c 256
 1110 1136 1286 832 1286 572 c 256
 1286 310 1110 14 728 14 c 256
728 -22 m 256
 1147 -22 1328 289 1328 571 c 256
 1328 851 1144 1172 728 1172 c 256
 313 1172 128 852 128 571 c 256
 128 291 309 -23 728 -22 c 256
EndSplineSet
EndChar

StartChar: ring
Encoding: 730 730 432
Width: 317
VWidth: 0
GlyphClass: 4
Flags: W
PickledData: "(dp1
S'com.typemytype.robofont.layerData'
p2
(dp3
S'b'
(dp4
S'name'
p5
S'ring'
p6
sS'lib'
p7
(dp8
sS'unicodes'
p9
(tsS'width'
p10
I317
sS'contours'
p11
(tsS'components'
p12
(tsS'anchors'
p13
(tsss."
AnchorPoint: "top" 155 804 mark 0
AnchorPoint: "top" 156 1066 basechar 0
LayerCount: 2
Fore
SplineSet
156 887 m 256
 227 887 268 928 268 999 c 256
 268 1068 226 1108 155 1108 c 256
 84 1108 42 1068 41 999 c 256
 42 928 84 887 156 887 c 256
156 914 m 256
 105 914 74 945 74 999 c 256
 74 1050 105 1080 156 1080 c 256
 206 1080 236 1050 236 999 c 256
 236 945 206 914 156 914 c 256
EndSplineSet
EndChar

StartChar: s
Encoding: 115 115 434
Width: 919
VWidth: 0
GlyphClass: 2
Flags: HW
PickledData: "(dp1
S'com.typemytype.robofont.layerData'
p2
(dp3
S'b'
(dp4
S'name'
p5
S's'
sS'lib'
p6
(dp7
sS'unicodes'
p8
(tsS'width'
p9
I919
sS'contours'
p10
(tsS'components'
p11
(tsS'anchors'
p12
(tsss."
AnchorPoint: "bot" 470 0 basechar 0
AnchorPoint: "top" 458 805 basechar 0
LayerCount: 2
Fore
SplineSet
479 -22 m 0
 638 -22 796 44 796 193 c 0
 796 364 685 388 511 426 c 2
 372 456 l 2
 279.464711643 475.900062012 196.994086531 514.320044197 196.994086531 607.52334394 c 0
 196.994086531 735.448839852 322.48523169 792 445 792 c 0
 540 792 663 744 707 682 c 1
 712 545 l 1
 752 545 l 1
 752 804 l 1
 710 804 l 1
 710 728 l 1
 646 790 541 826 445 826 c 0
 296 826 155 761 155 604 c 0
 155 496 241 443 366 417 c 2
 503 389 l 2
 679.053175234 352.783346809 756.025467108 321.898774091 756.025467108 190.229746234 c 0
 756.025467108 82.7817311934 640.615104152 12 479 12 c 0
 359 12 257 49 190 125 c 1
 187 233 l 1
 148 233 l 1
 148 0 l 1
 188 0 l 1
 188 84 l 1
 238 27 353 -22 479 -22 c 0
EndSplineSet
EndChar

StartChar: section
Encoding: 167 167 442
Width: 953
VWidth: 0
GlyphClass: 2
Flags: W
LayerCount: 2
Fore
SplineSet
505 -131 m 256
 694 -131 780 -41 780 99 c 256
 780 183 755 222 720 257 c 257
 795 306 831 385 828 476 c 256
 824 587 739 639 531 759 c 256
 350 863 282 888 282 1022 c 256
 282 1131 356 1209 506 1209 c 256
 660 1209 717 1134 729 1014 c 257
 749 1014 754 1025 754 1051 c 256
 754 1136 694 1239 506 1239 c 256
 335 1239 242 1145 242 1022 c 256
 242 919 287 861 366 811 c 257
 278 793 206 730 206 629 c 256
 206 508 265 468 465 366 c 256
 706 243 743 212 743 97 c 256
 743 -24 676 -101 505 -101 c 256
 357 -101 267 -73 263 63 c 257
 249 63 234 59 234 25 c 256
 234 -83 328 -131 505 -131 c 256
704 273 m 257
 653 312 569 354 482 400 c 256
 308 492 248 516 248 629 c 256
 248 707 295 770 384 798 c 257
 513 727 l 258
 724 611 790 558 790 469 c 256
 790 391 770 325 704 273 c 257
EndSplineSet
EndChar

StartChar: semicolon
Encoding: 59 59 443
Width: 294
VWidth: 0
GlyphClass: 2
Flags: W
PickledData: "(dp1
S'com.typemytype.robofont.layerData'
p2
(dp3
S'b'
(dp4
S'name'
p5
S'semicolon'
p6
sS'lib'
p7
(dp8
sS'unicodes'
p9
(tsS'width'
p10
I294
sS'contours'
p11
(tsS'components'
p12
(tsS'anchors'
p13
(tsss."
LayerCount: 2
Fore
SplineSet
78 121 m 257
 156 122 177 199 177 270 c 258
 177 358 l 257
 92 358 l 257
 92 274 l 257
 129 274 l 257
 129 197 135 172 78 150 c 257
 78 121 l 257
100 729 m 257
 173 729 l 257
 173 813 l 257
 100 813 l 257
 100 729 l 257
EndSplineSet
EndChar

StartChar: seven
Encoding: 55 55 444
Width: 964
VWidth: 0
GlyphClass: 2
Flags: W
PickledData: "(dp1
S'com.typemytype.robofont.layerData'
p2
(dp3
S'b'
(dp4
S'name'
p5
S'seven'
p6
sS'lib'
p7
(dp8
sS'unicodes'
p9
(tsS'width'
p10
I964
sS'contours'
p11
(tsS'components'
p12
(tsS'anchors'
p13
(tsss."
LayerCount: 2
Fore
SplineSet
427 0 m 257
 470 0 l 257
 470 0 688 691 849 1119 c 257
 849 1152 l 257
 125 1152 l 257
 125 852 l 257
 169 852 l 257
 169 1118 l 257
 803 1118 l 257
 580 507 427 0 427 0 c 257
EndSplineSet
EndChar

StartChar: six
Encoding: 54 54 445
Width: 829
VWidth: 0
GlyphClass: 2
Flags: W
PickledData: "(dp1
S'com.typemytype.robofont.layerData'
p2
(dp3
S'b'
(dp4
S'name'
p5
S'six'
p6
sS'lib'
p7
(dp8
sS'unicodes'
p9
(tsS'width'
p10
I829
sS'contours'
p11
(tsS'components'
p12
(tsS'anchors'
p13
(tsss."
LayerCount: 2
Fore
SplineSet
406 -22 m 256
 630 -22 770 110 770 320 c 256
 770 531 632 663 413 663 c 256
 349 663 233 637 172 572 c 257
 547 1208 l 257
 505 1228 l 257
 142 598 l 258
 113 548 57 444 57 307 c 256
 57 114 202 -22 406 -22 c 256
406 10 m 256
 226 10 99 133 99 307 c 256
 99 514 257 631 413 631 c 256
 606 631 728 511 728 320 c 256
 728 130 604 10 406 10 c 256
EndSplineSet
EndChar

StartChar: slash
Encoding: 47 47 446
Width: 295
VWidth: 0
GlyphClass: 2
Flags: W
PickledData: "(dp1
S'com.typemytype.robofont.layerData'
p2
(dp3
S'b'
(dp4
S'name'
p5
S'slash'
p6
sS'lib'
p7
(dp8
sS'unicodes'
p9
(tsS'width'
p10
I295
sS'contours'
p11
(tsS'components'
p12
(tsS'anchors'
p13
(tsss."
LayerCount: 2
Fore
SplineSet
-36 -25 m 257
 10 -25 l 257
 318 1172 l 257
 277 1172 l 257
 -36 -25 l 257
EndSplineSet
EndChar

StartChar: sterling
Encoding: 163 163 450
Width: 1047
VWidth: 0
GlyphClass: 2
Flags: W
LayerCount: 2
Fore
SplineSet
291 -22 m 256
 413 -22 501 51 541 146 c 257
 618 52 717 -4 814 -4 c 256
 970 -4 1047 103 1047 243 c 256
 1047 258 1046 272 1044 287 c 257
 1012 287 l 257
 1012 138 955 32 812 32 c 256
 722 32 619 99 555 182 c 257
 588 284 595 397 532 562 c 257
 911 562 l 257
 911 596 l 257
 516 596 l 257
 452 719 376 824 376 942 c 256
 376 1107 506 1219 675 1219 c 256
 868 1219 949 1111 949 968 c 257
 988 968 l 257
 988 1146 882 1255 675 1255 c 256
 485 1255 332 1130 332 940 c 256
 332 831 415 699 469 596 c 257
 213 596 l 257
 213 562 l 257
 487 562 l 257
 556 400 548 284 525 212 c 257
 480 273 380 325 296 325 c 256
 162 325 78 256 78 145 c 256
 78 42 160 -22 291 -22 c 256
292 14 m 256
 186 14 120 65 120 145 c 256
 120 233 188 289 297 289 c 256
 364 289 456 241 511 173 c 257
 488 74 380 14 292 14 c 256
EndSplineSet
EndChar

StartChar: summation
Encoding: 8721 8721 451
Width: 1212
VWidth: 0
GlyphClass: 2
Flags: W
PickledData: "(dp1
S'com.typemytype.robofont.layerData'
p2
(dp3
S'b'
(dp4
S'name'
p5
S'summation'
p6
sS'lib'
p7
(dp8
sS'unicodes'
p9
(tsS'width'
p10
I1212
sS'contours'
p11
(tsS'components'
p12
(tsS'anchors'
p13
(tsss."
LayerCount: 2
Fore
SplineSet
119 0 m 257
 1062 0 l 257
 1062 362 l 257
 1022 362 l 257
 1022 34 l 257
 314 34 l 257
 710 586 l 257
 710 617 l 257
 319 1118 l 257
 996 1118 l 257
 996 796 l 257
 1034 796 l 257
 1034 1152 l 257
 119 1152 l 257
 119 1118 l 257
 274 1118 l 257
 673 601 l 257
 265 34 l 257
 119 34 l 257
 119 0 l 257
EndSplineSet
EndChar

StartChar: t
Encoding: 116 116 452
Width: 572
VWidth: 0
GlyphClass: 2
Flags: HW
PickledData: "(dp1
S'com.typemytype.robofont.layerData'
p2
(dp3
S'b'
(dp4
S'name'
p5
S't'
sS'lib'
p6
(dp7
sS'unicodes'
p8
(tsS'width'
p9
I572
sS'contours'
p10
(tsS'components'
p11
(tsS'anchors'
p12
(tsss."
AnchorPoint: "top" 217 989 basechar 0
AnchorPoint: "bot" 393 10 basechar 0
LayerCount: 2
Fore
SplineSet
449 0 m 2
 522 0 l 1
 522 34 l 1
 449 34 l 2
 301 34 239 82 239 219 c 2
 239 770 l 1
 478 770 l 1
 479 804 l 1
 239 804 l 1
 239 1096 l 1
 195 1084 l 1
 195 804 l 1
 41 804 l 1
 41 770 l 1
 195 770 l 1
 195 216 l 2
 195 46 304 0 449 0 c 2
EndSplineSet
EndChar

StartChar: thorn
Encoding: 254 254 457
Width: 1026
VWidth: 0
GlyphClass: 2
Flags: W
PickledData: "(dp1
S'com.typemytype.robofont.layerData'
p2
(dp3
S'b'
(dp4
S'name'
p5
S'thorn'
p6
sS'lib'
p7
(dp8
sS'unicodes'
p9
(tsS'width'
p10
I1069
sS'contours'
p11
(tsS'components'
p12
(tsS'anchors'
p13
(tsss."
LayerCount: 2
Fore
SplineSet
21 -383 m 257
 239 -383 l 257
 243 1152 l 257
 43 1152 l 257
 43 1114 l 257
 195 1114 l 257
 195 -348 l 257
 21 -348 l 257
 21 -383 l 257
EndSplineSet
Refer: 343 -1 N 1 0 0 1 -62 21 2
EndChar

StartChar: three
Encoding: 51 51 458
Width: 964
VWidth: 0
GlyphClass: 2
Flags: W
PickledData: "(dp1
S'com.typemytype.robofont.layerData'
p2
(dp3
S'b'
(dp4
S'name'
p5
S'three'
p6
sS'lib'
p7
(dp8
sS'unicodes'
p9
(tsS'width'
p10
I964
sS'contours'
p11
(tsS'components'
p12
(tsS'anchors'
p13
(tsss."
LayerCount: 2
Fore
SplineSet
469 -20 m 256
 716 -20 853 105 853 329 c 256
 853 487 748 586 560 606 c 257
 742 624 843 720 843 875 c 256
 843 1067 705 1174 456 1174 c 256
 278 1174 149 1091 95 943 c 257
 127 929 l 257
 182 1063 300 1138 456 1138 c 256
 678 1138 801 1044 801 875 c 256
 801 714 665 624 419 624 c 257
 419 590 l 257
 671 590 811 497 811 329 c 256
 811 128 689 16 469 16 c 256
 318 16 198 90 132 224 c 257
 100 200 l 257
 163 59 295 -20 469 -20 c 256
EndSplineSet
Substitution2: "supsSuperscriptlookup10 subtable" threesuperior
EndChar

StartChar: threequarters
Encoding: 190 190 459
Width: 1497
VWidth: 0
GlyphClass: 3
Flags: W
LayerCount: 2
Fore
SplineSet
328 369 m 256
 497 369 603 451 603 581 c 256
 603 687 524 764 397 780 c 257
 515 793 589 862 589 960 c 256
 589 1091 492 1174 338 1174 c 256
 225 1174 127 1121 84 1036 c 257
 113 1017 l 257
 153 1093 239 1140 336 1140 c 256
 466 1140 547 1070 547 959 c 256
 547 859 454 797 306 797 c 257
 308 761 l 257
 463 761 561 691 561 579 c 256
 561 472 472 405 329 405 c 256
 223 405 134 454 98 531 c 257
 68 509 l 257
 107 423 207 369 328 369 c 256
1230 0 m 257
 1497 0 l 257
 1497 34 l 257
 1388 34 l 257
 1388 262 l 257
 1495 262 l 257
 1495 296 l 257
 1388 296 l 257
 1388 804 l 257
 1339 804 l 257
 969 286 l 257
 982 262 l 257
 1350 262 l 257
 1350 34 l 257
 1230 34 l 257
 1230 0 l 257
481 0 m 257
 523 0 l 257
 1297 1152 l 257
 1258 1152 l 257
 481 0 l 257
1020 296 m 257
 1350 759 l 257
 1350 296 l 257
 1020 296 l 257
EndSplineSet
Ligature2: "fracDiagonalFractionslookup11 subtable" three slash four
EndChar

StartChar: threesuperior
Encoding: 179 179 460
Width: 964
VWidth: 0
GlyphClass: 2
Flags: W
LayerCount: 2
Fore
SplineSet
479 530 m 256
 647 530 753 612 753 741 c 256
 753 848 668 932 543 940 c 257
 661 953 739 1023 739 1121 c 256
 739 1252 642 1335 487 1335 c 256
 375 1335 277 1282 234 1197 c 257
 263 1178 l 257
 303 1254 389 1301 487 1301 c 256
 616 1301 697 1231 697 1121 c 256
 697 1020 604 958 456 958 c 257
 458 922 l 257
 633 922 711 852 711 741 c 256
 711 633 622 566 479 566 c 256
 373 566 284 615 248 692 c 257
 218 670 l 257
 257 584 357 530 479 530 c 256
EndSplineSet
EndChar

StartChar: tilde
Encoding: 732 732 461
Width: 429
VWidth: 0
GlyphClass: 4
Flags: W
PickledData: "(dp1
S'com.typemytype.robofont.layerData'
p2
(dp3
S'b'
(dp4
S'name'
p5
S'tilde'
p6
sS'lib'
p7
(dp8
sS'unicodes'
p9
(tsS'width'
p10
I429
sS'contours'
p11
(tsS'components'
p12
(tsS'anchors'
p13
(tsss."
AnchorPoint: "top" 220 789 mark 0
LayerCount: 2
Fore
SplineSet
334 940 m 256
 397 940 409 978 417 1055 c 257
 394 1055 l 257
 378 979 362 972 329 972 c 256
 270 972 187 1059 109 1059 c 256
 53 1059 32 1012 23 942 c 257
 47 942 l 257
 63 1012 75 1027 107 1027 c 256
 170 1027 244 940 334 940 c 256
EndSplineSet
EndChar

StartChar: trademark
Encoding: 8482 8482 462
Width: 1581
VWidth: 0
GlyphClass: 2
Flags: W
PickledData: "(dp1
S'com.typemytype.robofont.layerData'
p2
(dp3
S'b'
(dp4
S'name'
p5
S'trademark'
p6
sS'lib'
p7
(dp8
sS'unicodes'
p9
(tsS'width'
p10
I1581
sS'contours'
p11
(tsS'components'
p12
(tsS'anchors'
p13
(tsss."
LayerCount: 2
Fore
SplineSet
800 584 m 257
 982 584 l 257
 982 615 l 257
 907 615 l 257
 907 1039 l 257
 1118 639 l 257
 1119 639 l 257
 1318 1036 l 257
 1318 615 l 257
 1245 615 l 257
 1245 584 l 257
 1422 584 l 257
 1422 615 l 257
 1353 615 l 257
 1353 1121 l 257
 1422 1121 l 257
 1422 1152 l 257
 1337 1152 l 257
 1118 693 l 257
 886 1152 l 257
 800 1152 l 257
 800 1121 l 257
 870 1121 l 257
 870 615 l 257
 800 615 l 257
 800 584 l 257
293 584 m 257
 470 584 l 257
 470 613 l 257
 397 613 l 257
 397 1116 l 257
 601 1116 l 257
 601 960 l 257
 639 960 l 257
 639 1152 l 257
 131 1152 l 257
 131 960 l 257
 168 960 l 257
 168 1116 l 257
 365 1116 l 257
 365 613 l 257
 293 613 l 257
 293 584 l 257
EndSplineSet
EndChar

StartChar: two
Encoding: 50 50 463
Width: 964
VWidth: 0
GlyphClass: 2
Flags: W
PickledData: "(dp1
S'com.typemytype.robofont.layerData'
p2
(dp3
S'b'
(dp4
S'name'
p5
S'two'
p6
sS'lib'
p7
(dp8
sS'unicodes'
p9
(tsS'width'
p10
I964
sS'contours'
p11
(tsS'components'
p12
(tsS'anchors'
p13
(tsss."
LayerCount: 2
Fore
SplineSet
118 0 m 257
 821 0 l 257
 821 243 l 257
 786 243 l 257
 786 34 l 257
 171 34 l 257
 563 426 l 258
 743 606 820 734 820 854 c 256
 820 1051 689 1174 480 1174 c 256
 267 1174 133 1048 133 847 c 256
 133 819 139 777 149 740 c 257
 190 740 l 257
 181 785 175 826 175 847 c 256
 175 1026 293 1138 480 1138 c 256
 663 1138 778 1028 778 854 c 256
 778 742 705 622 534 452 c 258
 118 37 l 257
 118 0 l 257
EndSplineSet
Substitution2: "supsSuperscriptlookup10 subtable" twosuperior
EndChar

StartChar: twosuperior
Encoding: 178 178 464
Width: 897
VWidth: 0
GlyphClass: 2
Flags: W
PickledData: "(dp1
S'com.typemytype.robofont.layerData'
p2
(dp3
S'b'
(dp4
S'name'
p5
S'uni00B2'
p6
sS'lib'
p7
(dp8
sS'unicodes'
p9
(tsS'width'
p10
I897
sS'contours'
p11
(tsS'components'
p12
(tsS'anchors'
p13
(tsss."
LayerCount: 2
Fore
SplineSet
195 574 m 257
 195 540 l 257
 709 540 l 257
 709 719 l 257
 673 719 l 257
 674 574 l 257
 246 574 l 257
 532 845 l 258
 635 943 687 1015 687 1124 c 256
 687 1266 575 1335 439 1335 c 256
 266 1335 186 1221 186 1089 c 256
 186 1065 189 1041 194 1016 c 257
 233 1016 l 257
 227 1040 224 1064 224 1087 c 256
 224 1200 294 1301 439 1301 c 256
 562 1301 648 1239 648 1126 c 256
 648 1021 611 975 509 876 c 258
 195 574 l 257
EndSplineSet
EndChar

StartChar: u
Encoding: 117 117 465
Width: 1025
VWidth: 0
GlyphClass: 2
Flags: HW
PickledData: "(dp1
S'com.typemytype.robofont.layerData'
p2
(dp3
S'b'
(dp4
S'name'
p5
S'u'
sS'lib'
p6
(dp7
sS'unicodes'
p8
(tsS'width'
p9
I1025
sS'contours'
p10
(tsS'components'
p11
(tsS'anchors'
p12
(tsss."
AnchorPoint: "top" 488 804 basechar 0
LayerCount: 2
Fore
SplineSet
443 -22 m 0
 571 -22 681 30 785 101 c 1
 791 0 l 1
 978 0 l 1
 978 32 l 1
 826 32 l 1
 826 804 l 1
 630 804 l 1
 630 770 l 1
 782 770 l 1
 782 133 l 1
 675 64 580 12 442 12 c 0
 302 12 243 108 243 204 c 2
 243 804 l 1
 40 804 l 1
 40 770 l 1
 199 770 l 1
 199 203 l 2
 199 130 238 -22 443 -22 c 0
EndSplineSet
EndChar

StartChar: uc_main_stem
Encoding: 65561 -1 468
Width: 626
VWidth: 0
GlyphClass: 2
Flags: W
PickledData: "(dp1
S'com.schriftgestaltung.Glyphs.Export'
p2
I00
sS'com.typemytype.robofont.layerData'
p3
(dp4
S'b'
(dp5
S'name'
p6
S'uc_main_stem'
p7
sS'lib'
p8
(dp9
sS'unicodes'
p10
(tsS'width'
p11
I626
sS'contours'
p12
(tsS'components'
p13
(tsS'anchors'
p14
(tsss."
LayerCount: 2
Fore
SplineSet
114 0 m 257
 510 0 l 257
 510 34 l 257
 334 34 l 257
 334 1118 l 257
 510 1118 l 257
 510 1152 l 257
 114 1152 l 257
 114 1118 l 257
 290 1118 l 257
 290 34 l 257
 114 34 l 257
 114 0 l 257
EndSplineSet
EndChar

StartChar: underscore
Encoding: 95 95 477
Width: 762
VWidth: 0
GlyphClass: 2
Flags: W
PickledData: "(dp1
S'com.typemytype.robofont.layerData'
p2
(dp3
S'b'
(dp4
S'name'
p5
S'underscore'
p6
sS'lib'
p7
(dp8
sS'unicodes'
p9
(tsS'width'
p10
I1126
sS'contours'
p11
(tsS'components'
p12
(tsS'anchors'
p13
(tsss."
LayerCount: 2
Fore
SplineSet
48 -123 m 257
 714 -123 l 257
 714 -87 l 257
 48 -87 l 257
 48 -123 l 257
EndSplineSet
EndChar

StartChar: uni00AD
Encoding: 173 173 483
Width: 915
VWidth: 0
GlyphClass: 2
Flags: HW
PickledData: "(dp1
S'com.typemytype.robofont.layerData'
p2
(dp3
S'b'
(dp4
S'name'
p5
S'uni00AD'
p6
sS'lib'
p7
(dp8
sS'unicodes'
p9
(tsS'width'
p10
I-130
sS'contours'
p11
(tsS'components'
p12
(tsS'anchors'
p13
(tsss."
LayerCount: 2
Fore
SplineSet
195 437 m 257
 718 437 l 257
 718 471 l 257
 195 471 l 257
 195 437 l 257
EndSplineSet
EndChar

StartChar: uni00B5
Encoding: 181 181 484
Width: 1025
VWidth: 0
GlyphClass: 2
Flags: W
PickledData: "(dp1
S'com.typemytype.robofont.layerData'
p2
(dp3
S'b'
(dp4
S'name'
p5
S'uni00B5'
p6
sS'lib'
p7
(dp8
sS'unicodes'
p9
(tsS'width'
p10
I1025
sS'contours'
p11
(tsS'components'
p12
(tsS'anchors'
p13
(tsss."
AnchorPoint: "top" 488 804 basechar 0
LayerCount: 2
Fore
SplineSet
978 0 m 257
 978 32 l 257
 826 32 l 257
 826 804 l 257
 630 804 l 257
 630 770 l 257
 782 770 l 257
 782 133 l 257
 675 64 580 12 442 12 c 256
 302 12 243 108 243 204 c 258
 243 804 l 257
 40 804 l 257
 40 770 l 257
 199 770 l 257
 199 -261 l 257
 243 -261 l 257
 243 65 l 257
 278 17 339 -22 443 -22 c 256
 571 -22 681 30 785 101 c 257
 791 0 l 257
 978 0 l 257
EndSplineSet
EndChar

StartChar: uni0237
Encoding: 567 567 550
Width: 398
VWidth: 0
GlyphClass: 2
Flags: W
PickledData: "(dp1
S'com.typemytype.robofont.layerData'
p2
(dp3
S'b'
(dp4
S'name'
p5
S'uni0237'
p6
sS'lib'
p7
(dp8
sS'unicodes'
p9
(tsS'width'
p10
I398
sS'contours'
p11
(tsS'components'
p12
(tsS'anchors'
p13
(tsss."
AnchorPoint: "top" 228 804 basechar 0
LayerCount: 2
Fore
SplineSet
23 -240 m 257
 95 -240 l 258
 290 -240 265 -101 265 -34 c 258
 265 804 l 257
 48 804 l 257
 48 770 l 257
 221 770 l 257
 221 -39 l 258
 221 -152 228 -208 85 -208 c 258
 23 -208 l 257
 23 -240 l 257
EndSplineSet
EndChar

StartChar: uni02C9
Encoding: 713 713 551
Width: 600
VWidth: 0
GlyphClass: 2
Flags: W
LayerCount: 2
Fore
SplineSet
118 903 m 257
 487 903 l 257
 487 951 l 257
 118 951 l 257
 118 903 l 257
EndSplineSet
EndChar

StartChar: uni0307
Encoding: 775 775 552
Width: 342
VWidth: 0
GlyphClass: 4
Flags: W
PickledData: "(dp1
S'com.typemytype.robofont.layerData'
p2
(dp3
S'b'
(dp4
S'name'
p5
S'uni0307'
p6
sS'lib'
p7
(dp8
sS'unicodes'
p9
(tsS'width'
p10
I342
sS'contours'
p11
(tsS'components'
p12
(tsS'anchors'
p13
(tsss."
AnchorPoint: "top" 172 805 mark 0
LayerCount: 2
Fore
SplineSet
170 978 m 256
 209 978 226 1006 226 1028 c 256
 226 1050 212 1079 170 1079 c 256
 129 1079 116 1052 115 1028 c 256
 115 1007 129 978 170 978 c 256
EndSplineSet
EndChar

StartChar: uni0311
Encoding: 785 785 553
Width: 962
VWidth: 0
GlyphClass: 4
Flags: W
PickledData: "(dp1
S'com.typemytype.robofont.layerData'
p2
(dp3
S'b'
(dp4
S'name'
p5
S'uni0311'
p6
sS'lib'
p7
(dp8
sS'unicodes'
p9
(tsS'width'
p10
I962
sS'contours'
p11
(tsS'components'
p12
(tsS'anchors'
p13
(tsss."
AnchorPoint: "top" 488 804 mark 0
LayerCount: 2
Fore
SplineSet
352 934 m 257
 382 934 l 257
 400 996 434 1026 487 1026 c 256
 539 1026 573 996 591 934 c 257
 619 934 l 257
 604 1019 561 1060 487 1059 c 256
 415 1060 371 1019 352 934 c 257
EndSplineSet
EndChar

StartChar: uni2113
Encoding: 8467 8467 572
Width: 552
VWidth: 0
GlyphClass: 2
Flags: W
LayerCount: 2
Fore
SplineSet
365 -12 m 257
 374 15 l 257
 226 15 168 28 204 257 c 258
 355 1215 l 257
 129 1215 l 257
 130 1178 l 257
 319 1178 l 257
 167 258 l 258
 134 55 150 -14 365 -12 c 257
EndSplineSet
EndChar

StartChar: uni2126
Encoding: 8486 8486 573
Width: 1426
VWidth: 0
GlyphClass: 2
Flags: W
LayerCount: 2
Fore
SplineSet
191 0 m 257
 548 0 l 257
 548 38 l 257
 324 177 213 420 213 636 c 256
 213 901 380 1139 713 1139 c 256
 1046 1139 1213 901 1213 636 c 256
 1213 420 1102 177 878 38 c 257
 878 0 l 257
 1235 0 l 257
 1235 34 l 257
 915 34 l 257
 1143 168 1254 409 1254 629 c 256
 1254 913 1070 1174 713 1174 c 256
 356 1174 172 913 172 629 c 256
 172 409 283 168 511 34 c 257
 191 34 l 257
 191 0 l 257
EndSplineSet
EndChar

StartChar: uni2206
Encoding: 8710 8710 574
Width: 679
VWidth: 0
GlyphClass: 2
Flags: W
PickledData: "(dp1
S'com.typemytype.robofont.layerData'
p2
(dp3
S'b'
(dp4
S'name'
p5
S'uni2206'
p6
sS'lib'
p7
(dp8
sS'unicodes'
p9
(tsS'width'
p10
I679
sS'contours'
p11
(tsS'components'
p12
(tsS'anchors'
p13
(tsss."
LayerCount: 2
Fore
SplineSet
58 0 m 257
 646 0 l 257
 646 45 l 257
 356 988 l 257
 344 988 l 257
 58 48 l 257
 58 0 l 257
85 47 m 257
 350 919 l 257
 614 47 l 257
 85 47 l 257
EndSplineSet
EndChar

StartChar: uniFB00
Encoding: 64256 64256 577
Width: 1342
VWidth: 0
GlyphClass: 2
Flags: W
LayerCount: 2
Fore
SplineSet
1105 771 m 257
 1105 805 l 257
 866 805 l 257
 866 1039 l 258
 866 1112 921 1153 967 1153 c 256
 1015 1153 1075 1142 1086 1047 c 257
 1117 1062 l 257
 1105 1165 1033 1191 967 1191 c 256
 904 1191 822 1139 822 1033 c 258
 822 805 l 257
 312 804 l 257
 312 1036 l 258
 312 1113 352 1155 418 1155 c 256
 483 1155 520 1120 529 1047 c 257
 562 1062 l 257
 554 1142 505 1191 416 1191 c 256
 320 1191 264 1134 264 1036 c 258
 264 804 l 257
 109 804 l 257
 109 770 l 257
 264 770 l 257
 264 34 l 257
 114 34 l 257
 114 0 l 257
 504 0 l 257
 504 34 l 257
 312 34 l 257
 312 770 l 257
 822 771 l 257
 822 34 l 257
 668 34 l 257
 668 0 l 257
 1059 0 l 257
 1059 34 l 257
 866 34 l 257
 866 771 l 257
 1105 771 l 257
EndSplineSet
EndChar

StartChar: uniFB03
Encoding: 64259 64259 578
Width: 1879
VWidth: 0
GlyphClass: 2
Flags: W
PickledData: "(dp1
S'com.typemytype.robofont.layerData'
p2
(dp3
S'b'
(dp4
S'name'
p5
S'uniFB03'
p6
sS'lib'
p7
(dp8
sS'unicodes'
p9
(tsS'width'
p10
I1855
sS'contours'
p11
(tsS'components'
p12
(tsS'anchors'
p13
(tsss."
LayerCount: 2
Fore
SplineSet
207 0 m 257
 598 0 l 257
 598 34 l 257
 405 34 l 257
 405 770 l 257
 848 770 l 257
 848 804 l 257
 405 804 l 257
 405 1011 l 258
 405 1111 506 1173 667 1173 c 256
 767 1173 896 1132 1001 1067 c 257
 1026 1092 l 257
 914 1163 774 1208 663 1208 c 256
 477 1208 361 1130 361 1005 c 258
 361 804 l 257
 202 804 l 257
 202 770 l 257
 361 770 l 257
 361 34 l 257
 207 34 l 257
 207 0 l 257
EndSplineSet
Refer: 281 64257 N 1 0 0 1 671 0 2
EndChar

StartChar: v
Encoding: 118 118 583
Width: 1054
VWidth: 0
GlyphClass: 2
Flags: HW
PickledData: "(dp1
S'com.typemytype.robofont.layerData'
p2
(dp3
S'b'
(dp4
S'name'
p5
S'v'
sS'lib'
p6
(dp7
sS'unicodes'
p8
(tsS'width'
p9
I1054
sS'contours'
p10
(tsS'components'
p11
(tsS'anchors'
p12
(tsss."
LayerCount: 2
Fore
SplineSet
504 0 m 1
 561 0 l 1
 891 771 l 1
 1035 771 l 1
 1035 805 l 1
 668 805 l 1
 668 771 l 1
 842 771 l 1
 533 30 l 1
 212 771 l 1
 389 771 l 1
 389 805 l 1
 18 805 l 1
 18 771 l 1
 166 771 l 1
 504 0 l 1
EndSplineSet
EndChar

StartChar: w
Encoding: 119 119 584
Width: 1574
VWidth: 0
GlyphClass: 2
Flags: HW
PickledData: "(dp1
S'com.typemytype.robofont.layerData'
p2
(dp3
S'b'
(dp4
S'name'
p5
S'w'
sS'lib'
p6
(dp7
sS'unicodes'
p8
(tsS'width'
p9
I1574
sS'contours'
p10
(tsS'components'
p11
(tsS'anchors'
p12
(tsss."
AnchorPoint: "top" 783 804 basechar 0
LayerCount: 2
Fore
SplineSet
450 0 m 1
 511 0 l 1
 783 731 l 1
 1056 0 l 1
 1114 0 l 1
 1380 771 l 1
 1520 771 l 1
 1520 805 l 1
 1191 805 l 1
 1191 771 l 1
 1335 771 l 1
 1084 30 l 1
 805 771 l 1
 959 771 l 1
 959 805 l 1
 607 805 l 1
 607 771 l 1
 757 771 l 1
 482 28 l 1
 218 771 l 1
 380 771 l 1
 380 805 l 1
 35 805 l 1
 35 771 l 1
 172 771 l 1
 450 0 l 1
EndSplineSet
EndChar

StartChar: x
Encoding: 120 120 589
Width: 1088
VWidth: 0
GlyphClass: 2
Flags: HW
PickledData: "(dp1
S'com.typemytype.robofont.layerData'
p2
(dp3
S'b'
(dp4
S'name'
p5
S'x'
sS'lib'
p6
(dp7
sS'unicodes'
p8
(tsS'width'
p9
I1088
sS'contours'
p10
(tsS'components'
p11
(tsS'anchors'
p12
(tsss."
LayerCount: 2
Fore
SplineSet
50 0 m 1
 410 0 l 1
 410 34 l 1
 252 34 l 1
 543 390 l 1
 843 34 l 1
 660 34 l 1
 660 0 l 1
 1042 0 l 1
 1042 34 l 1
 884 34 l 1
 569 411 l 1
 861 770 l 1
 1030 770 l 1
 1030 804 l 1
 648 804 l 1
 648 770 l 1
 817 770 l 1
 547 440 l 1
 271 770 l 1
 439 770 l 1
 439 804 l 1
 78 804 l 1
 78 770 l 1
 228 770 l 1
 521 417 l 1
 204 34 l 1
 50 34 l 1
 50 0 l 1
EndSplineSet
EndChar

StartChar: y
Encoding: 121 121 590
Width: 1072
VWidth: 0
GlyphClass: 2
Flags: HW
PickledData: "(dp1
S'com.typemytype.robofont.layerData'
p2
(dp3
S'b'
(dp4
S'name'
p5
S'y'
sS'lib'
p6
(dp7
sS'unicodes'
p8
(tsS'width'
p9
I1072
sS'contours'
p10
(tsS'components'
p11
(tsS'anchors'
p12
(tsss."
AnchorPoint: "top" 569 804 basechar 0
LayerCount: 2
Fore
SplineSet
240 -237 m 1
 318 -237 l 2
 448 -237 493 -218 542 -104 c 2
 920 770 l 1
 1051 770 l 1
 1051 804 l 1
 699 804 l 1
 699 770 l 1
 874 770 l 1
 577 72 l 1
 268 770 l 1
 417 770 l 1
 417 804 l 1
 52 804 l 1
 52 770 l 1
 221 770 l 1
 539 64 l 1
 571 64 l 1
 503 -87 l 2
 462 -179 441 -196 318 -196 c 2
 240 -196 l 1
 240 -237 l 1
EndSplineSet
EndChar

StartChar: yen
Encoding: 165 165 594
Width: 1477
VWidth: 0
GlyphClass: 2
Flags: W
PickledData: "(dp1
S'com.typemytype.robofont.layerData'
p2
(dp3
S'b'
(dp4
S'name'
p5
S'yen'
p6
sS'lib'
p7
(dp8
sS'unicodes'
p9
(tsS'width'
p10
I1477
sS'contours'
p11
(tsS'components'
p12
(tsS'anchors'
p13
(tsss."
LayerCount: 2
Fore
SplineSet
308 206 m 257
 942 206 l 257
 942 237 l 257
 308 237 l 257
 308 206 l 257
308 359 m 257
 942 359 l 257
 942 390 l 257
 308 390 l 257
 308 359 l 257
EndSplineSet
Refer: 163 89 N 1 0 0 1 0 0 2
EndChar

StartChar: z
Encoding: 122 122 598
Width: 955
VWidth: 0
GlyphClass: 2
Flags: HW
PickledData: "(dp1
S'com.typemytype.robofont.layerData'
p2
(dp3
S'b'
(dp4
S'name'
p5
S'z'
sS'lib'
p6
(dp7
sS'unicodes'
p8
(tsS'width'
p9
I955
sS'contours'
p10
(tsS'components'
p11
(tsS'anchors'
p12
(tsss."
AnchorPoint: "top" 482 804 basechar 0
LayerCount: 2
Fore
SplineSet
150 0 m 1
 788 0 l 1
 788 262 l 1
 747 262 l 1
 747 34 l 1
 200 34 l 1
 774 756 l 1
 774 805 l 1
 179 805 l 1
 179 572 l 1
 223 572 l 1
 223 771 l 1
 735 771 l 1
 150 43 l 1
 150 0 l 1
EndSplineSet
EndChar

StartChar: zero
Encoding: 48 48 602
Width: 1090
VWidth: 0
GlyphClass: 2
Flags: W
PickledData: "(dp1
S'com.typemytype.robofont.layerData'
p2
(dp3
S'b'
(dp4
S'name'
p5
S'zero'
p6
sS'lib'
p7
(dp8
sS'unicodes'
p9
(tsS'width'
p10
I1090
sS'contours'
p11
(tsS'components'
p12
(tsS'anchors'
p13
(tsss."
LayerCount: 2
Fore
SplineSet
545 10 m 256
 307 8 174 209 174 574 c 256
 174 938 307 1140 545 1140 c 256
 784 1140 917 938 917 574 c 256
 917 211 784 10 545 10 c 256
545 -22 m 256
 811 -22 959 191 959 574 c 256
 959 960 811 1174 545 1174 c 256
 280 1174 132 960 132 574 c 256
 132 191 280 -22 545 -22 c 256
EndSplineSet
EndChar
